<svg xmlns="http://www.w3.org/2000/svg" xmlns:xlink="http://www.w3.org/1999/xlink" width="11520" zoomAndPan="magnify" viewBox="0 0 8640 2592.000001" height="3456" preserveAspectRatio="xMidYMid meet" version="1.0"><defs><clipPath id="b026efc068"><path d="M 1.667969 0 L 8638.332031 0 L 8638.332031 2591 L 1.667969 2591 Z M 1.667969 0 " clip-rule="nonzero"/></clipPath><clipPath id="100e061bad"><path d="M 2604 1988 L 4376 1988 L 4376 2591 L 2604 2591 Z M 2604 1988 " clip-rule="nonzero"/></clipPath><clipPath id="dd0a2b020e"><path d="M 2614 1987 L 4138 1987 L 4138 2591 L 2614 2591 Z M 2614 1987 " clip-rule="nonzero"/></clipPath><clipPath id="cb0931dd2b"><path d="M 2605 1988 L 4349 1988 L 4349 2591 L 2605 2591 Z M 2605 1988 " clip-rule="nonzero"/></clipPath><clipPath id="75fa3d690c"><path d="M 2709 2164 L 4385 2164 L 4385 2591 L 2709 2591 Z M 2709 2164 " clip-rule="nonzero"/></clipPath><clipPath id="1d7268b698"><path d="M 2747 2192 L 4346 2192 L 4346 2591 L 2747 2591 Z M 2747 2192 " clip-rule="nonzero"/></clipPath><clipPath id="68eaccc5b7"><path d="M 2967 2528 L 3721 2528 L 3721 2591 L 2967 2591 Z M 2967 2528 " clip-rule="nonzero"/></clipPath><clipPath id="996be52dde"><path d="M 2746 2180 L 4334 2180 L 4334 2591 L 2746 2591 Z M 2746 2180 " clip-rule="nonzero"/></clipPath><clipPath id="4973c38d8d"><path d="M 2747 2192 L 4344 2192 L 4344 2591 L 2747 2591 Z M 2747 2192 " clip-rule="nonzero"/></clipPath><clipPath id="d7ed4e7f21"><path d="M 3382 2478 L 3997 2478 L 3997 2591 L 3382 2591 Z M 3382 2478 " clip-rule="nonzero"/></clipPath><clipPath id="952f9c6138"><path d="M 3380 2538 L 3999 2538 L 3999 2591 L 3380 2591 Z M 3380 2538 " clip-rule="nonzero"/></clipPath><clipPath id="7c42d57ccb"><path d="M 3382 2484 L 3975 2484 L 3975 2591 L 3382 2591 Z M 3382 2484 " clip-rule="nonzero"/></clipPath><clipPath id="f30679e0f9"><path d="M 3520 2479 L 3806 2479 L 3806 2591 L 3520 2591 Z M 3520 2479 " clip-rule="nonzero"/></clipPath><clipPath id="14258c05cb"><path d="M 3956 2588 L 3999 2588 L 3999 2591 L 3956 2591 Z M 3956 2588 " clip-rule="nonzero"/></clipPath><clipPath id="880dae6383"><path d="M 3401 2480 L 3997 2480 L 3997 2591 L 3401 2591 Z M 3401 2480 " clip-rule="nonzero"/></clipPath><clipPath id="e9b8b34497"><path d="M 1.667969 433 L 682 433 L 682 2591 L 1.667969 2591 Z M 1.667969 433 " clip-rule="nonzero"/></clipPath><clipPath id="c1e897c466"><path d="M 1.667969 460 L 685 460 L 685 2298 L 1.667969 2298 Z M 1.667969 460 " clip-rule="nonzero"/></clipPath><clipPath id="0cce9d780d"><path d="M 1.667969 434 L 682 434 L 682 2591 L 1.667969 2591 Z M 1.667969 434 " clip-rule="nonzero"/></clipPath><clipPath id="44f1f03809"><path d="M 1.667969 559 L 465 559 L 465 2591 L 1.667969 2591 Z M 1.667969 559 " clip-rule="nonzero"/></clipPath><clipPath id="6a94dae82c"><path d="M 1.667969 609 L 428 609 L 428 2591 L 1.667969 2591 Z M 1.667969 609 " clip-rule="nonzero"/></clipPath><clipPath id="e9764cf144"><path d="M 1.667969 606 L 441 606 L 441 2591 L 1.667969 2591 Z M 1.667969 606 " clip-rule="nonzero"/></clipPath><clipPath id="fb8c26089f"><path d="M 1.667969 609 L 428 609 L 428 2591 L 1.667969 2591 Z M 1.667969 609 " clip-rule="nonzero"/></clipPath><clipPath id="c597e91ad3"><path d="M 1.667969 1430 L 52 1430 L 52 2210 L 1.667969 2210 Z M 1.667969 1430 " clip-rule="nonzero"/></clipPath><clipPath id="65a27f6023"><path d="M 1.667969 1427 L 3 1427 L 3 2213 L 1.667969 2213 Z M 1.667969 1427 " clip-rule="nonzero"/></clipPath><clipPath id="33cbf5fefe"><path d="M 1.667969 1430 L 49 1430 L 49 2194 L 1.667969 2194 Z M 1.667969 1430 " clip-rule="nonzero"/></clipPath><clipPath id="febf6f59d7"><path d="M 1.667969 1576 L 50 1576 L 50 2003 L 1.667969 2003 Z M 1.667969 1576 " clip-rule="nonzero"/></clipPath><clipPath id="7675b313ee"><path d="M 1.667969 1443 L 49 1443 L 49 2210 L 1.667969 2210 Z M 1.667969 1443 " clip-rule="nonzero"/></clipPath><clipPath id="86bfb530af"><path d="M 6878 1901 L 8638.332031 1901 L 8638.332031 2591 L 6878 2591 Z M 6878 1901 " clip-rule="nonzero"/></clipPath><clipPath id="0fe7597cc6"><path d="M 6763 1887 L 8638.332031 1887 L 8638.332031 2591 L 6763 2591 Z M 6763 1887 " clip-rule="nonzero"/></clipPath><clipPath id="2442f71c0f"><path d="M 6814 1921 L 8638.332031 1921 L 8638.332031 2591 L 6814 2591 Z M 6814 1921 " clip-rule="nonzero"/></clipPath><clipPath id="c76ed3a63b"><path d="M 7487 2008 L 8638.332031 2008 L 8638.332031 2591 L 7487 2591 Z M 7487 2008 " clip-rule="nonzero"/></clipPath><clipPath id="5b897a3028"><path d="M 6812 1921 L 8638.332031 1921 L 8638.332031 2591 L 6812 2591 Z M 6812 1921 " clip-rule="nonzero"/></clipPath><clipPath id="bbef7e0b1f"><path d="M 6814 1921 L 8638.332031 1921 L 8638.332031 2591 L 6814 2591 Z M 6814 1921 " clip-rule="nonzero"/></clipPath><clipPath id="b53187121d"><path d="M 7284 2307 L 8123 2307 L 8123 2591 L 7284 2591 Z M 7284 2307 " clip-rule="nonzero"/></clipPath><clipPath id="d5e883c4ad"><path d="M 7639 2414 L 7974 2414 L 7974 2591 L 7639 2591 Z M 7639 2414 " clip-rule="nonzero"/></clipPath><clipPath id="15f9ca5add"><path d="M 7283 2467 L 8127 2467 L 8127 2591 L 7283 2591 Z M 7283 2467 " clip-rule="nonzero"/></clipPath><clipPath id="04b2783f4c"><path d="M 7285 2311 L 8123 2311 L 8123 2591 L 7285 2591 Z M 7285 2311 " clip-rule="nonzero"/></clipPath><clipPath id="bda618c741"><path d="M 7435 2334 L 8028 2334 L 8028 2591 L 7435 2591 Z M 7435 2334 " clip-rule="nonzero"/></clipPath><clipPath id="f390e48158"><path d="M 7284 2311 L 8123 2311 L 8123 2591 L 7284 2591 Z M 7284 2311 " clip-rule="nonzero"/></clipPath><clipPath id="fe48e56284"><path d="M 7947 2529 L 8066 2529 L 8066 2591 L 7947 2591 Z M 7947 2529 " clip-rule="nonzero"/></clipPath><clipPath id="f2768ff6c3"><path d="M 7425 436 L 8638.332031 436 L 8638.332031 1337 L 7425 1337 Z M 7425 436 " clip-rule="nonzero"/></clipPath><clipPath id="ef88aa379f"><path d="M 7425 436 L 8638.332031 436 L 8638.332031 1286 L 7425 1286 Z M 7425 436 " clip-rule="nonzero"/></clipPath><clipPath id="ad793daed2"><path d="M 7499 561 L 8638.332031 561 L 8638.332031 1419 L 7499 1419 Z M 7499 561 " clip-rule="nonzero"/></clipPath><clipPath id="a17f6e31e0"><path d="M 7530 584 L 8638.332031 584 L 8638.332031 1399 L 7530 1399 Z M 7530 584 " clip-rule="nonzero"/></clipPath><clipPath id="6c8a688953"><path d="M 7528 578 L 8638.332031 578 L 8638.332031 1344 L 7528 1344 Z M 7528 578 " clip-rule="nonzero"/></clipPath><clipPath id="6e05c1594c"><path d="M 7530 584 L 8638.332031 584 L 8638.332031 1395 L 7530 1395 Z M 7530 584 " clip-rule="nonzero"/></clipPath></defs><g clip-path="url(#b026efc068)"><path fill="#ffffff" d="M 1.667969 0 L 8638.332031 0 L 8638.332031 2591 L 1.667969 2591 Z M 1.667969 0 " fill-opacity="1" fill-rule="nonzero"/><path fill="#d0f4a2" d="M 1.667969 0 L 8638.332031 0 L 8638.332031 2591 L 1.667969 2591 Z M 1.667969 0 " fill-opacity="1" fill-rule="nonzero"/></g><g clip-path="url(#100e061bad)"><path fill="#4d8831" d="M 4375.199219 2583.527344 C 4339.945312 2010.152344 3749.386719 1833.789062 3283.535156 2130.5625 C 3283.535156 2130.5625 3064.113281 2245.535156 2805.316406 2327.972656 C 2559.671875 2406.199219 2525.292969 2825.402344 2783.828125 2934.9375 L 4375.199219 2583.527344 " fill-opacity="1" fill-rule="nonzero"/></g><g clip-path="url(#dd0a2b020e)"><path fill="#d3d2d2" d="M 2665.699219 2843.640625 C 2640.617188 2809.703125 2623.429688 2768.394531 2614.046875 2723.933594 C 2623.429688 2765.238281 2640.09375 2804.527344 2664.296875 2838.816406 C 2664.734375 2840.398438 2665.261719 2842.0625 2665.699219 2843.640625 M 2679.378906 2416.199219 C 2710.6875 2376.46875 2752.171875 2345.160156 2803.824219 2328.410156 C 2752.960938 2344.984375 2711.214844 2376.117188 2679.378906 2416.199219 M 2803.910156 2328.410156 C 2804.175781 2328.324219 2804.351562 2328.234375 2804.527344 2328.148438 C 2804.351562 2328.234375 2804.175781 2328.324219 2803.910156 2328.410156 M 2804.613281 2328.148438 C 2804.875 2328.058594 2805.140625 2327.972656 2805.316406 2327.972656 C 2805.140625 2327.972656 2804.875 2328.058594 2804.613281 2328.148438 M 4137.976562 2110.566406 C 4029.933594 2029.882812 3894.089844 1988.488281 3749.5625 1988.488281 C 3709.222656 1988.488281 3668.179688 1991.734375 3626.871094 1998.222656 C 3670.457031 1991.03125 3714.132812 1987.347656 3757.367188 1987.347656 C 3896.019531 1987.347656 4029.667969 2025.5 4137.976562 2110.566406 " fill-opacity="1" fill-rule="nonzero"/></g><g clip-path="url(#cb0931dd2b)"><path fill="#3f7027" d="M 2664.296875 2838.816406 C 2640.09375 2804.527344 2623.429688 2765.238281 2614.046875 2723.933594 C 2592.296875 2620.097656 2613.695312 2499.421875 2679.378906 2416.199219 C 2711.214844 2376.117188 2752.960938 2344.984375 2803.824219 2328.410156 C 2803.910156 2328.410156 2803.910156 2328.410156 2803.910156 2328.410156 C 2804.175781 2328.324219 2804.351562 2328.234375 2804.527344 2328.148438 C 2804.613281 2328.148438 2804.613281 2328.148438 2804.613281 2328.148438 C 2804.875 2328.058594 2805.140625 2327.972656 2805.316406 2327.972656 C 3064.113281 2245.535156 3283.535156 2130.5625 3283.535156 2130.5625 C 3388.070312 2063.910156 3506.902344 2017.957031 3626.871094 1998.222656 C 3668.179688 1991.734375 3709.222656 1988.488281 3749.5625 1988.488281 C 3894.089844 1988.488281 4029.933594 2029.882812 4137.976562 2110.566406 C 4231.464844 2184.058594 4306.007812 2292.628906 4348.277344 2441.628906 C 4289.695312 2360.246094 4191.210938 2069.085938 3794.8125 2069.085938 C 3764.820312 2069.085938 3733.074219 2070.75 3699.574219 2074.257812 C 3346.9375 2111.707031 3255.46875 2229.660156 3044.207031 2305.082031 C 2736.558594 2414.882812 2558.882812 2468.378906 2664.296875 2838.816406 " fill-opacity="1" fill-rule="nonzero"/></g><g clip-path="url(#75fa3d690c)"><path fill="#53b132" d="M 2730.246094 2656.140625 C 2651.84375 2511.703125 2820.3125 2464.257812 2820.3125 2464.257812 C 2980.011719 2401.902344 3440.25 2117.40625 3887.597656 2170.902344 C 4661.886719 2263.6875 4511.046875 3380.621094 3570.921875 3225.570312 C 3336.152344 3186.894531 3118.308594 3061.222656 2897.660156 2990.273438 C 2675.347656 2918.710938 2719.457031 2790.410156 2719.457031 2790.410156 C 2719.457031 2790.410156 2770.9375 2731.300781 2730.246094 2656.140625 " fill-opacity="1" fill-rule="nonzero"/></g><g clip-path="url(#1d7268b698)"><path fill="#d3e854" d="M 2767.691406 2658.949219 C 2692.972656 2521.960938 2853.726562 2476.886719 2853.726562 2476.886719 C 3006.671875 2417.511719 3445.160156 2147.75 3872.164062 2198.527344 C 4609.355469 2286.140625 4468.863281 3346.15625 3569.78125 3198.996094 C 3345.800781 3162.339844 3137.867188 3043.15625 2927.390625 2975.890625 C 2715.25 2908.101562 2757.34375 2786.375 2757.34375 2786.375 C 2757.34375 2786.375 2806.542969 2730.246094 2767.691406 2658.949219 " fill-opacity="1" fill-rule="nonzero"/></g><g clip-path="url(#68eaccc5b7)"><path fill="#e0ee85" d="M 3595.300781 3101.828125 C 3405.171875 3101.828125 3057.972656 2992.730469 2990.796875 2898.191406 C 2970.449219 2869.601562 2983.605469 2827.066406 2984.042969 2794.882812 C 2984.570312 2751.820312 2966.769531 2710.867188 2967.382812 2667.628906 C 2968.082031 2615.011719 3060.339844 2528.890625 3139.269531 2528.890625 C 3152.6875 2528.890625 3165.667969 2531.347656 3177.855469 2536.957031 C 3317.734375 2601.066406 3064.988281 2967.734375 3616.785156 3004.132812 C 3644.410156 3005.972656 3715.710938 3007.375 3719.570312 3037.105469 C 3725.621094 3083.148438 3673.878906 3101.828125 3595.300781 3101.828125 " fill-opacity="1" fill-rule="nonzero"/></g><g clip-path="url(#996be52dde)"><path fill="#46ad36" d="M 3977.488281 3174.96875 C 4176.652344 3106.828125 4296.535156 2955.632812 4333.457031 2791.722656 C 4300.304688 2957.738281 4181.828125 3109.632812 3977.488281 3174.96875 M 2949.84375 2983.433594 C 2948.527344 2983.433594 2941.246094 2980.363281 2928.09375 2976.066406 C 2935.371094 2978.433594 2942.738281 2980.890625 2950.015625 2983.347656 C 2950.015625 2983.347656 2949.929688 2983.433594 2949.84375 2983.433594 M 2782.601562 2714.898438 C 2782.601562 2698.148438 2778.65625 2679.117188 2767.691406 2658.949219 C 2739.980469 2608.171875 2740.417969 2571.949219 2761.378906 2542.21875 C 2744.628906 2570.109375 2739.980469 2608.257812 2767.691406 2658.949219 C 2778.65625 2679.117188 2782.601562 2698.148438 2782.601562 2714.898438 M 2848.113281 2478.726562 C 2880.035156 2462.765625 2917.917969 2446.804688 2959.839844 2428.652344 C 2916.691406 2449.347656 2880.734375 2466.449219 2853.726562 2476.886719 C 2853.726562 2476.886719 2851.621094 2477.5 2848.113281 2478.726562 M 3101.382812 2362.351562 C 3103.226562 2361.296875 3105.15625 2360.332031 3106.996094 2359.367188 C 3361.9375 2232.203125 3577.671875 2180.285156 3753.945312 2180.285156 C 3906.453125 2180.285156 4029.40625 2219.136719 4122.804688 2281.667969 C 4055.015625 2239.835938 3971.613281 2210.28125 3872.164062 2198.527344 C 3835.769531 2194.144531 3799.285156 2192.214844 3762.980469 2192.214844 C 3519.53125 2192.214844 3280.726562 2281.667969 3101.382812 2362.351562 " fill-opacity="1" fill-rule="nonzero"/></g><g clip-path="url(#4973c38d8d)"><path fill="#afda33" d="M 3746.316406 3208.734375 C 3602.054688 3208.734375 3431.480469 3174.96875 3234.511719 3095.25 C 3379.824219 3141.730469 3510.144531 3161.8125 3625.03125 3161.8125 C 4209.011719 3161.726562 4392.566406 2642.460938 4097.8125 2431.019531 C 4008.273438 2366.824219 3888.039062 2344.636719 3764.03125 2344.636719 C 3506.8125 2344.636719 3233.019531 2439.789062 3181.363281 2452.066406 C 2694.289062 2567.828125 2879.246094 2638.515625 2872.140625 2765.765625 C 2867.84375 2841.097656 2825.484375 2884.070312 2926.863281 2965.105469 C 2942.386719 2977.382812 2950.105469 2982.558594 2950.015625 2983.347656 C 2942.738281 2980.890625 2935.371094 2978.433594 2928.09375 2976.066406 C 2927.828125 2976.066406 2927.652344 2975.890625 2927.390625 2975.890625 C 2775.496094 2927.394531 2753.925781 2851.183594 2753.925781 2811.808594 C 2753.925781 2796.195312 2757.34375 2786.375 2757.34375 2786.375 C 2757.34375 2786.375 2782.601562 2757.523438 2782.601562 2714.898438 C 2782.601562 2698.148438 2778.65625 2679.117188 2767.691406 2658.949219 C 2739.980469 2608.257812 2744.628906 2570.109375 2761.378906 2542.21875 C 2778.304688 2518.277344 2808.558594 2498.457031 2848.113281 2478.726562 C 2851.621094 2477.5 2853.726562 2476.886719 2853.726562 2476.886719 C 2880.734375 2466.449219 2916.691406 2449.347656 2959.839844 2428.652344 C 3003.511719 2409.796875 3051.484375 2388.484375 3101.382812 2362.351562 C 3280.726562 2281.667969 3519.53125 2192.214844 3762.980469 2192.214844 C 3799.285156 2192.214844 3835.769531 2194.144531 3872.164062 2198.527344 C 3971.613281 2210.28125 4055.015625 2239.835938 4122.804688 2281.667969 C 4269.789062 2380.066406 4343.453125 2537.308594 4343.191406 2694.554688 C 4343.101562 2727.089844 4339.859375 2759.714844 4333.457031 2791.722656 C 4296.535156 2955.632812 4176.652344 3106.828125 3977.488281 3174.96875 C 3909.875 3196.628906 3832.789062 3208.734375 3746.316406 3208.734375 " fill-opacity="1" fill-rule="nonzero"/></g><g clip-path="url(#d7ed4e7f21)"><path fill="#ae3d1f" d="M 3681.859375 2478.902344 C 4090.707031 2465.308594 4106.582031 2936.691406 3697.558594 2950.371094 C 3288.796875 2964.050781 3272.835938 2492.671875 3681.859375 2478.902344 " fill-opacity="1" fill-rule="nonzero"/></g><g clip-path="url(#952f9c6138)"><path fill="#aebe45" d="M 3970.296875 2811.71875 C 3971.789062 2809.175781 3973.105469 2806.632812 3974.421875 2804.089844 C 3990.90625 2774.359375 3999.851562 2740.945312 3998.710938 2704.8125 C 3999.941406 2744.277344 3989.503906 2780.234375 3970.296875 2811.71875 M 3381.230469 2740.15625 C 3380.789062 2740.15625 3381.054688 2735.683594 3380.703125 2724.984375 C 3378.246094 2651.316406 3410.871094 2593.875 3462.261719 2553.183594 C 3404.558594 2602.117188 3378.511719 2668.859375 3383.507812 2733.667969 C 3382.105469 2737.875 3381.492188 2740.15625 3381.230469 2740.15625 M 3998.710938 2703.9375 C 3997.132812 2659.386719 3981.523438 2620.800781 3956.265625 2588.875 C 3942.761719 2570.371094 3926.011719 2553.359375 3905.929688 2538.449219 C 3959.773438 2575.457031 3996.082031 2630.445312 3998.710938 2703.9375 " fill-opacity="1" fill-rule="nonzero"/></g><g clip-path="url(#7c42d57ccb)"><path fill="#913218" d="M 3650.113281 2949.40625 C 3580.214844 2943.96875 3511.722656 2919.941406 3457.351562 2873.460938 C 3458.492188 2873.460938 3459.71875 2873.460938 3460.945312 2873.460938 C 3476.382812 2873.460938 3495.851562 2874.597656 3517.6875 2875.738281 C 3539.523438 2876.878906 3563.640625 2878.019531 3588.371094 2878.019531 C 3697.207031 2878.019531 3818.40625 2856.007812 3809.8125 2715.777344 C 3804.898438 2636.234375 3712.378906 2597.996094 3616.523438 2597.996094 C 3551.363281 2597.996094 3484.714844 2615.625 3443.144531 2650.089844 C 3402.101562 2684.117188 3388.246094 2719.460938 3383.507812 2733.667969 C 3378.511719 2668.859375 3404.558594 2602.117188 3462.261719 2553.183594 C 3479.625 2539.5 3499.183594 2527.664062 3520.144531 2517.839844 C 3469.71875 2543.273438 3427.359375 2581.683594 3401.136719 2634.214844 C 3446.214844 2592.210938 3500.324219 2558.882812 3630.027344 2550.375 C 3637.21875 2549.851562 3644.238281 2549.675781 3651.164062 2549.675781 C 3787.710938 2549.675781 3871.113281 2639.566406 3874.355469 2729.546875 C 3877.601562 2819.523438 3800.691406 2909.503906 3616.613281 2909.503906 C 3578.988281 2909.589844 3536.894531 2905.734375 3490.0625 2897.488281 C 3538.824219 2928.359375 3594.25 2944.933594 3650.113281 2949.40625 M 3805.953125 2931.164062 C 3879.441406 2907.3125 3941.796875 2862.671875 3974.421875 2804.089844 C 3973.105469 2806.632812 3971.789062 2809.175781 3970.296875 2811.71875 C 3936.710938 2867.058594 3876.375 2908.539062 3805.953125 2931.164062 M 3956.265625 2588.875 C 3911.628906 2532.484375 3836.734375 2496.617188 3755.351562 2484.25 C 3811.039062 2491.53125 3863.832031 2509.507812 3905.929688 2538.449219 C 3926.011719 2553.359375 3942.761719 2570.371094 3956.265625 2588.875 " fill-opacity="1" fill-rule="nonzero"/></g><g clip-path="url(#f30679e0f9)"><path fill="#913218" d="M 3680.28125 2950.632812 C 3678.613281 2950.632812 3677.035156 2950.632812 3675.367188 2950.632812 C 3666.949219 2950.546875 3658.53125 2950.109375 3650.113281 2949.40625 C 3660.371094 2950.195312 3670.722656 2950.632812 3680.980469 2950.632812 C 3723.867188 2950.632812 3766.488281 2943.882812 3805.953125 2931.164062 C 3772.011719 2942.128906 3735.617188 2948.792969 3698.695312 2950.371094 C 3698.347656 2950.371094 3697.996094 2950.371094 3697.558594 2950.371094 C 3691.769531 2950.546875 3685.980469 2950.632812 3680.28125 2950.632812 M 3520.144531 2517.839844 C 3571.710938 2491.792969 3631.519531 2479.429688 3691.15625 2479.429688 C 3712.730469 2479.429688 3734.214844 2481.007812 3755.351562 2484.25 C 3736.230469 2481.707031 3716.761719 2480.480469 3697.207031 2480.480469 C 3635.292969 2480.480469 3572.9375 2493.023438 3520.144531 2517.839844 " fill-opacity="1" fill-rule="nonzero"/></g><g clip-path="url(#14258c05cb)"><path fill="#909d39" d="M 3974.421875 2804.089844 C 4009.234375 2734.542969 4002.835938 2652.984375 3956.265625 2588.875 C 3981.523438 2620.800781 3997.132812 2659.386719 3998.710938 2703.9375 C 3998.710938 2704.023438 3998.710938 2704.199219 3998.710938 2704.375 C 3998.710938 2704.464844 3998.710938 2704.640625 3998.710938 2704.8125 C 3999.851562 2740.945312 3990.90625 2774.359375 3974.421875 2804.089844 " fill-opacity="1" fill-rule="nonzero"/></g><g clip-path="url(#880dae6383)"><path fill="#7a2914" d="M 3680.980469 2950.632812 C 3670.722656 2950.632812 3660.371094 2950.195312 3650.113281 2949.40625 C 3594.25 2944.933594 3538.824219 2928.359375 3490.0625 2897.488281 C 3536.894531 2905.734375 3578.988281 2909.589844 3616.613281 2909.503906 C 3800.691406 2909.503906 3877.601562 2819.523438 3874.355469 2729.546875 C 3871.113281 2639.566406 3787.710938 2549.675781 3651.164062 2549.675781 C 3644.238281 2549.675781 3637.21875 2549.851562 3630.027344 2550.375 C 3500.324219 2558.882812 3446.214844 2592.210938 3401.136719 2634.214844 C 3427.359375 2581.683594 3469.71875 2543.273438 3520.144531 2517.839844 C 3572.9375 2493.023438 3635.292969 2480.480469 3697.207031 2480.480469 C 3716.761719 2480.480469 3736.230469 2481.707031 3755.351562 2484.25 C 3836.734375 2496.617188 3911.628906 2532.484375 3956.265625 2588.875 C 4002.835938 2652.984375 4009.234375 2734.542969 3974.421875 2804.089844 C 3941.796875 2862.671875 3879.441406 2907.3125 3805.953125 2931.164062 C 3766.488281 2943.882812 3723.867188 2950.632812 3680.980469 2950.632812 " fill-opacity="1" fill-rule="nonzero"/></g><g clip-path="url(#e9b8b34497)"><path fill="#4d8831" d="M 15.109375 2668.417969 C 735.550781 2538.800781 871.042969 1765.121094 426.5 1219.632812 C 426.5 1219.632812 248.472656 959.078125 105.875 643.800781 C -29.617188 344.484375 -565.191406 363.164062 -665.515625 706.507812 L 15.109375 2668.417969 " fill-opacity="1" fill-rule="nonzero"/></g><g clip-path="url(#c1e897c466)"><path fill="#d3d2d2" d="M 578.921875 2297.191406 C 688.980469 2106.445312 710.644531 1867.640625 644.167969 1632.167969 C 710.203125 1859.921875 699.066406 2100.304688 578.921875 2297.191406 M 427.554688 1220.949219 C 427.554688 1220.949219 427.464844 1220.859375 427.464844 1220.859375 C 427.464844 1220.859375 427.554688 1220.949219 427.554688 1220.949219 M 427.027344 1220.335938 C 426.851562 1220.160156 426.675781 1219.894531 426.5 1219.632812 C 426.675781 1219.894531 426.851562 1220.160156 427.027344 1220.335938 M 105.875 643.800781 C 77.199219 580.570312 30.71875 531.546875 -25.671875 496.730469 C 30.28125 530.933594 76.761719 579.605469 105.875 643.800781 M -567.558594 543.472656 C -528.179688 506.726562 -478.367188 478.753906 -423.46875 460.335938 C -474.421875 478.3125 -521.691406 505.238281 -561.59375 541.019531 C -563.523438 541.808594 -565.539062 542.683594 -567.558594 543.472656 " fill-opacity="1" fill-rule="nonzero"/></g><g clip-path="url(#0cce9d780d)"><path fill="#3f7027" d="M 190.59375 2613.34375 C 292.148438 2520.558594 693.894531 2333.410156 559.363281 1737.933594 C 459.828125 1297.160156 296.882812 1198.9375 170.160156 942.679688 C 33.964844 667.304688 -52.332031 472.085938 -280.347656 472.085938 C -356.117188 472.085938 -447.5 493.660156 -561.59375 541.019531 C -521.691406 505.238281 -474.421875 478.3125 -423.46875 460.335938 C -372.515625 443.320312 -317.265625 434.550781 -261.929688 434.550781 C -178.441406 434.550781 -94.777344 454.546875 -25.671875 496.730469 C 30.71875 531.546875 77.199219 580.570312 105.875 643.800781 C 248.472656 959.078125 426.5 1219.632812 426.5 1219.632812 C 426.675781 1219.894531 426.851562 1220.160156 427.027344 1220.335938 C 427.203125 1220.511719 427.378906 1220.683594 427.464844 1220.859375 C 427.464844 1220.859375 427.554688 1220.949219 427.554688 1220.949219 C 526.300781 1342.5 601.371094 1484.660156 644.167969 1632.167969 C 710.644531 1867.640625 688.980469 2106.445312 578.921875 2297.191406 C 499.816406 2426.808594 373.445312 2537.574219 190.59375 2613.34375 " fill-opacity="1" fill-rule="nonzero"/></g><g clip-path="url(#44f1f03809)"><path fill="#53b132" d="M -320.601562 597.320312 C -149.5 476.824219 -64.433594 682.914062 -64.433594 682.914062 C 38.085938 875.765625 466.492188 1416.078125 464.914062 1990.15625 C 462.28125 2983.785156 -973.511719 2958.527344 -916.683594 1745.652344 C -902.476562 1442.914062 -775.839844 1148.507812 -718.660156 858.75 C -661.042969 566.800781 -492.226562 603.636719 -492.226562 603.636719 C -492.226562 603.636719 -409.699219 660.113281 -320.601562 597.320312 " fill-opacity="1" fill-rule="nonzero"/></g><g clip-path="url(#6a94dae82c)"><path fill="#d3e854" d="M -318.671875 645.203125 C -156.339844 530.320312 -75.570312 727.027344 -75.570312 727.027344 C 22.300781 911.898438 428.78125 1426.777344 427.816406 1974.722656 C 426.152344 2920.640625 -936.152344 2900.03125 -883.183594 1740.390625 C -869.941406 1451.507812 -749.96875 1170.695312 -696.035156 894.269531 C -641.664062 615.738281 -481.4375 650.992188 -481.4375 650.992188 C -481.4375 650.992188 -403.125 705.015625 -318.671875 645.203125 " fill-opacity="1" fill-rule="nonzero"/></g><g clip-path="url(#e9764cf144)"><path fill="#46ad36" d="M -256.230469 2646.320312 C -416.367188 2632.902344 -573.609375 2558.445312 -689.722656 2418.214844 L -689.722656 2412.863281 C -572.46875 2552.042969 -415.402344 2629.128906 -256.230469 2646.320312 M 359.0625 2305.609375 C 402.296875 2213.351562 427.554688 2102.9375 427.816406 1974.722656 C 428.429688 1615.417969 253.910156 1270.324219 106.050781 1023.1875 C 107.628906 1025.554688 109.210938 1027.921875 110.875 1030.203125 C 481.925781 1597.617188 500.695312 2030.847656 359.0625 2305.609375 M -689.722656 865.328125 C -643.242188 671.867188 -541.773438 649.941406 -500.03125 649.589844 C -541.773438 649.941406 -643.242188 671.867188 -689.722656 865.328125 M 0.640625 853.3125 C -31.632812 802.1875 -58.382812 759.476562 -75.570312 727.027344 C -75.570312 727.027344 -76.449219 724.746094 -78.289062 720.890625 C -53.734375 758.511719 -28.214844 803.589844 0.640625 853.3125 M -403.386719 673.355469 C -403.386719 673.355469 -403.386719 673.355469 -403.472656 673.355469 C -403.386719 673.355469 -403.386719 673.355469 -403.386719 673.355469 M -403.300781 673.355469 C -378.128906 673.355469 -349.101562 666.515625 -319.195312 645.554688 C -349.101562 666.515625 -378.128906 673.355469 -403.300781 673.355469 M -318.671875 645.203125 C -281.484375 618.808594 -249.738281 606.96875 -221.324219 606.96875 C -203.875 606.96875 -187.648438 611.441406 -172.214844 619.773438 C -186.859375 613.195312 -203.171875 609.160156 -221.148438 609.160156 C -249.476562 609.160156 -282.011719 619.246094 -318.671875 645.203125 " fill-opacity="1" fill-rule="nonzero"/></g><g clip-path="url(#fb8c26089f)"><path fill="#afda33" d="M -203.257812 2648.511719 C -220.972656 2648.511719 -238.601562 2647.808594 -256.230469 2646.320312 C -415.402344 2629.128906 -572.46875 2552.042969 -689.722656 2412.863281 L -689.722656 2222.910156 C -571.066406 2424.792969 -393.390625 2506.964844 -227.375 2506.964844 C -59.871094 2506.964844 95.703125 2423.386719 166.914062 2294.734375 C 376.074219 1917.191406 38.789062 1232.261719 4.410156 1138.074219 C -114.597656 811.65625 -187.472656 735.621094 -255.175781 735.621094 C -311.742188 735.621094 -364.800781 788.679688 -438.289062 793.242188 C -444.429688 793.589844 -450.394531 793.765625 -456.179688 793.765625 C -470.5625 793.765625 -484.15625 792.800781 -497.222656 791.835938 C -510.378906 790.960938 -522.832031 789.996094 -535.109375 789.996094 C -583.871094 789.996094 -627.980469 804.640625 -682.441406 892.078125 C -685.25 896.550781 -687.617188 900.496094 -689.722656 904.003906 L -689.722656 865.328125 C -643.242188 671.867188 -541.773438 649.941406 -500.03125 649.589844 C -499.589844 649.589844 -499.242188 649.589844 -498.800781 649.589844 C -487.929688 649.589844 -481.4375 650.992188 -481.4375 650.992188 C -481.4375 650.992188 -449.078125 673.355469 -403.472656 673.355469 C -403.386719 673.355469 -403.386719 673.355469 -403.386719 673.355469 C -403.386719 673.355469 -403.300781 673.355469 -403.300781 673.355469 C -378.128906 673.355469 -349.101562 666.515625 -319.195312 645.554688 C -319.019531 645.378906 -318.847656 645.292969 -318.671875 645.203125 C -282.011719 619.246094 -249.476562 609.160156 -221.148438 609.160156 C -203.171875 609.160156 -186.859375 613.195312 -172.214844 619.773438 C -139.152344 637.664062 -109.511719 673.269531 -78.289062 720.890625 C -76.449219 724.746094 -75.570312 727.027344 -75.570312 727.027344 C -58.382812 759.476562 -31.632812 802.1875 0.640625 853.3125 C 31.070312 905.847656 65.273438 963.550781 106.050781 1023.1875 C 253.910156 1270.324219 428.429688 1615.417969 427.816406 1974.722656 C 427.554688 2102.9375 402.296875 2213.351562 359.0625 2305.609375 C 243.476562 2529.855469 21.335938 2648.597656 -203.257812 2648.511719 " fill-opacity="1" fill-rule="nonzero"/></g><g clip-path="url(#c597e91ad3)"><path fill="#ae3d1f" d="M 44.664062 1775.382812 C 122.539062 2290.875 -471.703125 2380.679688 -549.578125 1865.273438 C -627.542969 1349.867188 -33.300781 1259.886719 44.664062 1775.382812 " fill-opacity="1" fill-rule="nonzero"/></g><g clip-path="url(#65a27f6023)"><path fill="#aebe45" d="M -230.882812 2212.648438 C -267.277344 2212.648438 -301.832031 2204.492188 -333.929688 2189.757812 C -330.597656 2191.160156 -327.175781 2192.476562 -323.757812 2193.703125 C -294.289062 2205.894531 -262.894531 2212.558594 -230.183594 2212.648438 C -218.167969 2212.648438 -205.976562 2211.683594 -193.613281 2209.839844 C -206.242188 2211.769531 -218.695312 2212.648438 -230.882812 2212.648438 M -193.175781 2209.753906 C -136.695312 2201.160156 -90.042969 2175.550781 -53.296875 2138.453125 C -31.984375 2118.722656 -12.953125 2095.042969 2.832031 2067.417969 C -36.105469 2141.261719 -100.390625 2195.546875 -193.175781 2209.753906 M -82.148438 1508.25 C -138.363281 1455.980469 -205.804688 1430.8125 -272.015625 1430.8125 C -288.765625 1430.8125 -305.515625 1432.390625 -321.914062 1435.636719 C -335.070312 1432.917969 -334.457031 1434.230469 -311.390625 1430.8125 C -296.921875 1428.621094 -282.890625 1427.566406 -269.207031 1427.566406 C -195.015625 1427.566406 -132.046875 1458.523438 -82.148438 1508.25 " fill-opacity="1" fill-rule="nonzero"/></g><g clip-path="url(#33cbf5fefe)"><path fill="#913218" d="M -323.757812 2193.703125 C -327.175781 2192.476562 -330.597656 2191.160156 -333.929688 2189.757812 C -407.773438 2155.820312 -468.457031 2087.0625 -507.574219 2002.960938 C -466.441406 2090.746094 -401.632812 2161.433594 -323.757812 2193.703125 M -53.296875 2138.453125 C 10.988281 2073.820312 45.101562 1974.28125 48.871094 1869.921875 C 47.734375 1941.132812 32.910156 2010.152344 2.832031 2067.417969 C -12.953125 2095.042969 -31.984375 2118.722656 -53.296875 2138.453125 M -272.804688 2058.472656 C -401.195312 2058.472656 -532.828125 1926.136719 -513.449219 1594.722656 C -544.933594 1660.320312 -557.734375 1731.96875 -555.542969 1802.566406 C -558.613281 1714.167969 -538.179688 1624.800781 -487.929688 1549.820312 C -473.195312 1663.566406 -493.015625 1976.738281 -281.222656 1976.738281 C -267.277344 1976.738281 -252.28125 1975.421875 -236.144531 1972.527344 C -68.203125 1942.359375 -84.429688 1616.121094 -207.292969 1498.691406 C -256.40625 1451.859375 -303.148438 1439.582031 -321.914062 1435.636719 C -305.515625 1432.390625 -288.765625 1430.8125 -272.015625 1430.8125 C -205.804688 1430.8125 -138.363281 1455.980469 -82.148438 1508.25 C -62.242188 1528.15625 -44.4375 1550.960938 -28.828125 1576.042969 C -68.554688 1516.230469 -123.367188 1468.433594 -193.4375 1443.175781 C -133.628906 1494.042969 -83.375 1557.625 -53.382812 1720.480469 C -16.113281 1922.628906 -142.835938 2058.472656 -272.804688 2058.472656 " fill-opacity="1" fill-rule="nonzero"/></g><g clip-path="url(#febf6f59d7)"><path fill="#913218" d="M -507.574219 2002.960938 C -527.304688 1960.953125 -541.597656 1914.910156 -549.316406 1867.289062 C -549.40625 1866.675781 -549.492188 1865.972656 -549.578125 1865.273438 C -551.070312 1855.449219 -552.296875 1845.804688 -553.351562 1836.332031 C -554.402344 1825.105469 -555.191406 1813.882812 -555.542969 1802.566406 C -553.175781 1872.464844 -536.074219 1941.746094 -507.574219 2002.960938 M 48.871094 1869.921875 C 50.363281 1766.960938 23 1659.355469 -28.828125 1576.042969 C 26.683594 1659.792969 52.46875 1767.226562 48.871094 1869.921875 " fill-opacity="1" fill-rule="nonzero"/></g><g clip-path="url(#7675b313ee)"><path fill="#7a2914" d="M -232.988281 2209.839844 C -263.332031 2209.839844 -294.027344 2204.492188 -323.757812 2193.703125 C -401.632812 2161.433594 -466.441406 2090.746094 -507.574219 2002.960938 C -536.074219 1941.746094 -553.175781 1872.464844 -555.542969 1802.566406 C -557.734375 1731.96875 -544.933594 1660.320312 -513.449219 1594.722656 C -532.828125 1926.136719 -401.195312 2058.472656 -272.804688 2058.472656 C -142.835938 2058.472656 -16.113281 1922.628906 -53.382812 1720.480469 C -83.375 1557.625 -133.628906 1494.042969 -193.4375 1443.175781 C -123.367188 1468.433594 -68.554688 1516.230469 -28.828125 1576.042969 C 23 1659.355469 50.363281 1766.960938 48.871094 1869.921875 C 45.101562 1974.28125 10.988281 2073.820312 -53.296875 2138.453125 C -103.984375 2185.460938 -167.828125 2209.839844 -232.988281 2209.839844 " fill-opacity="1" fill-rule="nonzero"/></g><path fill="#4d8831" d="M 5719.175781 -300.015625 C 4881.308594 -382.800781 4488.507812 430.78125 4809.132812 1173.941406 C 4809.132812 1173.941406 4924.367188 1518.246094 4983.210938 1911.839844 C 5039.078125 2285.527344 5637.617188 2433.035156 5856.335938 2084.609375 L 5719.175781 -300.015625 " fill-opacity="1" fill-rule="nonzero"/><path fill="#d3d2d2" d="M 5511.332031 2280.964844 C 5573.332031 2277.105469 5634.109375 2262.199219 5689.445312 2235.097656 C 5691.902344 2234.835938 5694.355469 2234.484375 5696.902344 2234.222656 C 5641.738281 2262.546875 5577.894531 2277.894531 5511.332031 2280.964844 M 5081.171875 2114.335938 C 5031.09375 2059.699219 4995.664062 1992.4375 4983.476562 1913.859375 C 4995.492188 1991.296875 5030.832031 2058.910156 5081.171875 2114.335938 M 4983.386719 1913.417969 C 4983.386719 1913.332031 4983.386719 1913.332031 4983.386719 1913.15625 C 4983.386719 1913.242188 4983.386719 1913.332031 4983.386719 1913.417969 M 4983.210938 1911.839844 C 4924.367188 1518.246094 4809.132812 1173.941406 4809.132812 1173.941406 C 4809.042969 1173.679688 4808.867188 1173.414062 4808.78125 1173.066406 C 4808.867188 1173.414062 4809.042969 1173.679688 4809.132812 1173.941406 C 4809.132812 1173.941406 4924.367188 1518.246094 4983.210938 1911.839844 M 4697.84375 646.082031 C 4696.878906 374.742188 4784.574219 113.75 4978.214844 -65.683594 C 4797.46875 110.152344 4698.808594 366.148438 4697.84375 646.082031 " fill-opacity="1" fill-rule="nonzero"/><path fill="#3f7027" d="M 5485.636719 2281.578125 C 5337.601562 2281.578125 5180.535156 2222.734375 5081.171875 2114.335938 C 5030.832031 2058.910156 4995.492188 1991.296875 4983.476562 1913.859375 C 4983.476562 1913.683594 4983.476562 1913.59375 4983.386719 1913.417969 C 4983.386719 1913.332031 4983.386719 1913.242188 4983.386719 1913.15625 C 4983.300781 1912.71875 4983.300781 1912.277344 4983.210938 1911.839844 C 4924.367188 1518.246094 4809.132812 1173.941406 4809.132812 1173.941406 C 4809.042969 1173.679688 4808.867188 1173.414062 4808.78125 1173.066406 C 4737.042969 1006.4375 4698.367188 824.023438 4697.84375 646.082031 C 4698.808594 366.148438 4797.46875 110.152344 4978.214844 -65.683594 C 5106.515625 -184.601562 5281.296875 -267.652344 5507.734375 -294.136719 C 5366.191406 -223.367188 4862.976562 -142.417969 4824.828125 558.734375 C 4796.679688 1077.824219 4946.027344 1237.609375 5005.839844 1560.957031 C 5084.152344 1984.28125 5120.988281 2245.007812 5535.710938 2245.007812 C 5582.015625 2245.007812 5633.144531 2241.765625 5689.445312 2235.097656 C 5634.109375 2262.199219 5573.332031 2277.105469 5511.332031 2280.964844 C 5502.824219 2281.402344 5494.230469 2281.578125 5485.636719 2281.578125 " fill-opacity="1" fill-rule="nonzero"/><path fill="#53b132" d="M 5440.558594 2097.148438 C 5213.246094 2176.777344 5183.953125 1922.015625 5183.953125 1922.015625 C 5130.984375 1676.457031 4826.671875 943.996094 5008.558594 309.316406 C 5323.394531 -789.375 6904.152344 -310.625 6460.578125 1013.539062 C 6349.8125 1344.164062 6117.238281 1630.152344 5962.976562 1932.800781 C 5807.664062 2237.730469 5632.355469 2144.066406 5632.355469 2144.066406 C 5632.355469 2144.066406 5558.777344 2055.667969 5440.558594 2097.148438 " fill-opacity="1" fill-rule="nonzero"/><path fill="#d3e854" d="M 5453.363281 2043.566406 C 5237.710938 2119.773438 5210 1876.671875 5210 1876.671875 C 5159.835938 1641.378906 4871.75 944.082031 5044.777344 337.996094 C 5343.476562 -708.164062 6844.519531 -257.566406 6421.8125 1008.980469 C 6316.488281 1324.433594 6095.664062 1597.441406 5949.121094 1886.40625 C 5801.523438 2177.570312 5635.25 2088.203125 5635.25 2088.203125 C 5635.25 2088.203125 5565.617188 2003.925781 5453.363281 2043.566406 " fill-opacity="1" fill-rule="nonzero"/><path fill="#e0ee85" d="M 5811.785156 1785.117188 C 5774.511719 1785.117188 5734.347656 1768.101562 5700.410156 1762.226562 C 5683.132812 1759.15625 5665.855469 1758.28125 5648.402344 1758.28125 C 5634.546875 1758.28125 5620.601562 1758.804688 5606.746094 1759.421875 C 5592.800781 1760.035156 5578.859375 1760.648438 5564.914062 1760.648438 C 5547.375 1760.648438 5529.921875 1759.683594 5512.472656 1756.613281 C 5423.546875 1741.003906 5297.523438 1533.59375 5372.417969 1421.601562 C 5399.339844 1381.4375 5442.136719 1370.652344 5494.582031 1370.652344 C 5525.1875 1370.652344 5559.214844 1374.332031 5595.171875 1378.015625 C 5631.214844 1381.699219 5669.277344 1385.472656 5708.039062 1385.472656 C 5873.789062 1385.472656 6053.832031 1318.03125 6150.828125 895.410156 C 6159.859375 856.296875 6178.453125 754.476562 6221.773438 754.476562 C 6222.039062 754.476562 6222.300781 754.476562 6222.652344 754.476562 C 6310.085938 757.109375 6293.773438 882.34375 6288.953125 921.984375 C 6267.289062 1101.765625 6255.714844 1181.570312 6126.535156 1402.222656 C 6048.308594 1535.613281 5979.640625 1713.378906 5851.601562 1776.609375 C 5839.058594 1782.746094 5825.640625 1785.117188 5811.785156 1785.117188 " fill-opacity="1" fill-rule="nonzero"/><path fill="#46ad36" d="M 5697.25 2101.09375 C 5697.25 2101.09375 5697.164062 2101.09375 5697.164062 2101.09375 C 5697.164062 2101.09375 5697.25 2101.09375 5697.25 2101.09375 M 5698.304688 2101.09375 C 5759.605469 2100.742188 5856.25 2066.453125 5946.402344 1891.757812 C 5856.25 2066.453125 5759.605469 2100.742188 5698.304688 2101.09375 M 5370.3125 2060.140625 C 5334.445312 2060.140625 5306.46875 2048.125 5283.667969 2026.023438 C 5306.644531 2045.230469 5336.636719 2058.386719 5375.660156 2058.386719 C 5398.375 2058.386719 5424.160156 2053.914062 5453.363281 2043.566406 C 5474.671875 2036.023438 5494.492188 2032.953125 5512.648438 2032.953125 C 5494.492188 2032.953125 5474.671875 2036.023438 5453.363281 2043.566406 C 5421.617188 2054.789062 5394.167969 2060.140625 5370.3125 2060.140625 M 5512.734375 2032.953125 C 5512.734375 2032.953125 5512.648438 2032.953125 5512.648438 2032.953125 C 5512.648438 2032.953125 5512.734375 2032.953125 5512.734375 2032.953125 M 5946.488281 1891.582031 C 5946.664062 1891.230469 5946.929688 1890.792969 5947.101562 1890.441406 C 5946.929688 1890.792969 5946.664062 1891.230469 5946.488281 1891.582031 M 5947.277344 1890.089844 C 5947.894531 1888.863281 5948.507812 1887.636719 5949.121094 1886.40625 C 5948.507812 1887.636719 5947.894531 1888.863281 5947.277344 1890.089844 M 5949.382812 1885.96875 C 5954.558594 1875.707031 5959.820312 1865.535156 5965.167969 1855.363281 C 5966.308594 1855.539062 5959.730469 1865.535156 5949.382812 1885.96875 M 5211.226562 1884.480469 C 5195.792969 1835.015625 5181.671875 1776.960938 5165.273438 1712.675781 C 5185.007812 1779.679688 5201.230469 1835.28125 5210 1876.671875 C 5210 1876.671875 5210.351562 1879.480469 5211.226562 1884.480469 M 5102.042969 1491.761719 C 5101.078125 1488.78125 5100.027344 1485.710938 5098.972656 1482.640625 C 4866.835938 739.570312 4981.457031 254.59375 5223.59375 -5.257812 C 5147.207031 83.054688 5085.117188 196.886719 5044.777344 337.996094 C 4931.296875 735.359375 5016.097656 1171.925781 5102.042969 1491.761719 M 6481.1875 407.453125 C 6427.953125 109.011719 6240.628906 -96.816406 6015.945312 -188.898438 C 6244.402344 -101.550781 6433.214844 102.347656 6481.1875 407.453125 " fill-opacity="1" fill-rule="nonzero"/><path fill="#afda33" d="M 5697.25 2101.09375 C 5697.25 2101.09375 5697.164062 2101.09375 5697.164062 2101.09375 C 5659.628906 2101.09375 5635.597656 2088.464844 5635.25 2088.203125 C 5634.019531 2086.710938 5588.59375 2033.039062 5512.734375 2032.953125 C 5512.734375 2032.953125 5512.648438 2032.953125 5512.648438 2032.953125 C 5494.492188 2032.953125 5474.671875 2036.023438 5453.363281 2043.566406 C 5424.160156 2053.914062 5398.375 2058.386719 5375.660156 2058.386719 C 5336.636719 2058.386719 5306.644531 2045.230469 5283.667969 2026.023438 C 5252.535156 1995.855469 5230.785156 1947.09375 5211.226562 1884.480469 C 5210.351562 1879.480469 5210 1876.671875 5210 1876.671875 C 5201.230469 1835.28125 5185.007812 1779.679688 5165.273438 1712.675781 C 5148.085938 1645.058594 5128.351562 1570.429688 5102.042969 1491.761719 C 5016.097656 1171.925781 4931.296875 735.359375 5044.777344 337.996094 C 5085.117188 196.886719 5147.207031 83.054688 5223.59375 -5.257812 C 5370.050781 -162.414062 5562.984375 -237.222656 5754.167969 -237.222656 C 5843.53125 -237.222656 5932.371094 -220.910156 6015.945312 -188.898438 C 6240.628906 -96.816406 6427.953125 109.011719 6481.1875 407.453125 C 6524.507812 682.828125 6453.386719 1040.726562 6193.535156 1469.839844 C 6323.417969 1213.84375 6361.039062 1066.863281 6385.070312 790.257812 C 6436.898438 187.328125 6090.050781 -67.171875 5779.335938 -67.171875 C 5646.125 -67.171875 5519.488281 -20.429688 5433.894531 65.777344 C 5083.976562 417.976562 5242.097656 1281.722656 5250.515625 1396.785156 C 5259.375 1517.195312 5261.828125 1639.710938 5294.101562 1756.875 C 5333.214844 1899.300781 5397.234375 1928.414062 5464.414062 1928.414062 C 5487.742188 1928.414062 5511.507812 1924.90625 5534.660156 1921.398438 C 5557.898438 1917.890625 5580.613281 1914.382812 5601.921875 1914.382812 C 5612.359375 1914.382812 5622.53125 1915.261719 5632.179688 1917.367188 C 5692.515625 1930.609375 5735.398438 1958.671875 5786.089844 1958.671875 C 5826.167969 1958.671875 5871.15625 1941.042969 5933.421875 1884.566406 C 5954.644531 1865.359375 5963.855469 1855.363281 5965.167969 1855.363281 C 5959.820312 1865.535156 5954.558594 1875.707031 5949.382812 1885.96875 C 5949.296875 1886.144531 5949.207031 1886.320312 5949.121094 1886.40625 C 5948.507812 1887.636719 5947.894531 1888.863281 5947.277344 1890.089844 C 5947.191406 1890.179688 5947.101562 1890.355469 5947.101562 1890.441406 C 5946.929688 1890.792969 5946.664062 1891.230469 5946.488281 1891.582031 C 5946.488281 1891.667969 5946.402344 1891.667969 5946.402344 1891.757812 C 5856.25 2066.453125 5759.605469 2100.742188 5698.304688 2101.09375 C 5697.953125 2101.09375 5697.601562 2101.09375 5697.25 2101.09375 " fill-opacity="1" fill-rule="nonzero"/><path fill="#ae3d1f" d="M 5406.179688 678.882812 C 5481.777344 84.105469 6167.578125 171.105469 6091.980469 766.054688 C 6016.296875 1361.003906 5330.585938 1273.65625 5406.179688 678.882812 " fill-opacity="1" fill-rule="nonzero"/><path fill="#b54b29" d="M 5797.226562 1068.175781 C 5773.023438 1068.175781 5747.0625 1053.707031 5720.402344 1018.800781 C 5656.824219 935.402344 5675.765625 732.902344 5776.882812 700.542969 C 5785.828125 697.648438 5795.296875 696.246094 5805.03125 696.246094 C 5860.808594 696.246094 5924.390625 742.023438 5928.597656 819.988281 C 5933.949219 917.335938 5875.367188 1068.175781 5797.226562 1068.175781 " fill-opacity="1" fill-rule="nonzero"/><path fill="#aebe45" d="M 5713.5625 1174.90625 C 5711.722656 1174.90625 5705.054688 1173.679688 5691.988281 1172.011719 C 5584.382812 1158.332031 5508.789062 1097.378906 5461.957031 1013.101562 C 5519.3125 1108.429688 5609.992188 1162.015625 5705.144531 1169.90625 C 5712.070312 1173.589844 5715.40625 1174.90625 5713.5625 1174.90625 M 5543.867188 369.214844 C 5601.484375 308.527344 5675.851562 270.292969 5764.953125 270.292969 C 5778.195312 270.292969 5791.789062 271.167969 5805.644531 272.921875 C 5793.191406 271.34375 5780.828125 270.554688 5768.8125 270.554688 C 5717.859375 270.554688 5670.765625 284.0625 5628.496094 307.828125 C 5598.589844 323.085938 5570 343.519531 5543.867188 369.214844 M 5954.996094 339.136719 C 5951.664062 336.503906 5948.417969 334.050781 5945 331.59375 C 5905.886719 300.636719 5859.667969 279.9375 5807.136719 273.097656 C 5864.492188 280.554688 5913.953125 304.054688 5954.996094 339.136719 M 5807.050781 273.097656 C 5806.785156 273.011719 5806.523438 273.011719 5806.261719 272.921875 C 5806.523438 273.011719 5806.785156 273.011719 5807.050781 273.097656 " fill-opacity="1" fill-rule="nonzero"/><path fill="#913218" d="M 5705.144531 1169.90625 C 5609.992188 1162.015625 5519.3125 1108.429688 5461.957031 1013.101562 C 5446.257812 984.863281 5433.894531 954.082031 5424.597656 921.542969 C 5449.589844 1000.5625 5495.371094 1070.984375 5565.265625 1121.324219 C 5515.101562 1046.253906 5479.496094 960.132812 5497.386719 770.4375 C 5516.59375 567.242188 5655.59375 457.003906 5785.738281 457.003906 C 5955.171875 457.003906 6109.871094 643.449219 5967.011719 1054.058594 C 6022.523438 991.175781 6059.269531 915.667969 6078.914062 836.738281 C 6054.621094 935.664062 6004.019531 1028.363281 5924.652344 1095.714844 C 5945.261719 956.625 6080.667969 578.90625 5778.722656 548.910156 C 5773.722656 548.386719 5768.8125 548.210938 5763.988281 548.210938 C 5579.210938 548.210938 5501.507812 899.96875 5598.152344 1064.144531 C 5637.703125 1131.496094 5685.675781 1159.734375 5705.144531 1169.90625 M 6088.5625 599.6875 C 6070.496094 489.800781 6020.945312 391.578125 5945 331.59375 C 5948.417969 334.050781 5951.664062 336.503906 5954.996094 339.136719 C 6026.03125 399.648438 6071.546875 494.539062 6088.5625 599.6875 M 5430.824219 574.082031 C 5454.328125 495.328125 5492.386719 423.328125 5543.867188 369.214844 C 5570 343.519531 5598.589844 323.085938 5628.496094 307.828125 C 5536.761719 359.394531 5467.570312 459.28125 5430.824219 574.082031 " fill-opacity="1" fill-rule="nonzero"/><path fill="#aebe45" d="M 6087.15625 797.976562 C 6089 787.539062 6090.578125 776.929688 6091.980469 766.054688 C 6091.980469 765.617188 6092.070312 765.265625 6092.070312 764.914062 C 6090.753906 775.964844 6089.175781 786.925781 6087.15625 797.976562 M 5807.136719 273.097656 C 5807.136719 273.097656 5807.136719 273.097656 5807.050781 273.097656 L 5807.136719 273.097656 M 5806.261719 272.921875 C 5806.085938 272.921875 5805.820312 272.921875 5805.644531 272.921875 C 5805.820312 272.921875 5805.996094 272.921875 5806.261719 272.921875 " fill-opacity="1" fill-rule="nonzero"/><path fill="#913218" d="M 5424.597656 921.542969 C 5389.867188 812.007812 5394.957031 685.984375 5430.824219 574.082031 C 5397.234375 686.949219 5393.726562 813.675781 5424.597656 921.542969 M 6078.914062 836.738281 C 6098.207031 758.511719 6101.015625 676.339844 6088.5625 599.6875 C 6097.332031 653.011719 6098.734375 709.136719 6092.070312 764.914062 C 6092.070312 765.265625 6091.980469 765.617188 6091.980469 766.054688 C 6090.578125 776.929688 6089 787.539062 6087.15625 797.976562 C 6084.878906 810.957031 6082.160156 823.847656 6078.914062 836.738281 " fill-opacity="1" fill-rule="nonzero"/><path fill="#909d39" d="M 5945 331.59375 C 5892.203125 293.53125 5830.550781 273.976562 5768.113281 273.976562 C 5720.84375 273.976562 5673.222656 285.113281 5628.496094 307.828125 C 5670.765625 284.0625 5717.859375 270.554688 5768.8125 270.554688 C 5780.828125 270.554688 5793.191406 271.34375 5805.644531 272.921875 C 5805.820312 272.921875 5806.085938 272.921875 5806.261719 272.921875 C 5806.523438 273.011719 5806.785156 273.011719 5807.050781 273.097656 C 5807.136719 273.097656 5807.136719 273.097656 5807.136719 273.097656 C 5859.667969 279.9375 5905.886719 300.636719 5945 331.59375 " fill-opacity="1" fill-rule="nonzero"/><path fill="#7a2914" d="M 5565.265625 1121.324219 C 5495.371094 1070.984375 5449.589844 1000.5625 5424.597656 921.542969 C 5393.726562 813.675781 5397.234375 686.949219 5430.824219 574.082031 C 5467.570312 459.28125 5536.761719 359.394531 5628.496094 307.828125 C 5673.222656 285.113281 5720.84375 273.976562 5768.113281 273.976562 C 5830.550781 273.976562 5892.203125 293.53125 5945 331.59375 C 6020.945312 391.578125 6070.496094 489.800781 6088.5625 599.6875 C 6101.015625 676.339844 6098.207031 758.511719 6078.914062 836.738281 C 6059.269531 915.667969 6022.523438 991.175781 5967.011719 1054.058594 C 6109.871094 643.449219 5955.171875 457.003906 5785.738281 457.003906 C 5655.59375 457.003906 5516.59375 567.242188 5497.386719 770.4375 C 5479.496094 960.132812 5515.101562 1046.253906 5565.265625 1121.324219 " fill-opacity="1" fill-rule="nonzero"/><path fill="#ffffff" d="M 5612.972656 1031.34375 C 5623.671875 947.503906 5718.914062 959.605469 5708.214844 1043.445312 C 5697.601562 1127.199219 5602.363281 1115.183594 5612.972656 1031.34375 " fill-opacity="1" fill-rule="nonzero"/><path fill="#ffffff" d="M 5606.835938 889.535156 C 5612.097656 847.613281 5659.714844 853.664062 5654.453125 895.585938 C 5649.105469 937.503906 5601.484375 931.453125 5606.835938 889.535156 " fill-opacity="1" fill-rule="nonzero"/><path fill="#4d8831" d="M 1400.039062 1112.378906 C 1586.75 1805.726562 2354.285156 1874.042969 2850.65625 1393.804688 C 2850.65625 1393.804688 3090.597656 1197.972656 3386.929688 1032.308594 C 3668.265625 874.976562 3605.296875 352.816406 3261.257812 283.445312 L 1400.039062 1112.378906 " fill-opacity="1" fill-rule="nonzero"/><path fill="#d3d2d2" d="M 2131.441406 1706.011719 C 2020.242188 1706.011719 1910.96875 1683.035156 1809.941406 1632.605469 C 1910.441406 1679.789062 2021.382812 1703.03125 2136.003906 1703.03125 C 2243.785156 1703.03125 2354.808594 1682.421875 2463.292969 1641.816406 C 2355.160156 1683.121094 2242.378906 1706.011719 2131.441406 1706.011719 M 2848.8125 1395.558594 C 2848.902344 1395.46875 2848.988281 1395.382812 2849.078125 1395.292969 C 2848.988281 1395.382812 2848.902344 1395.46875 2848.8125 1395.558594 M 2849.601562 1394.769531 C 2849.953125 1394.503906 2850.304688 1394.152344 2850.65625 1393.804688 C 2850.65625 1393.804688 3090.597656 1197.972656 3386.929688 1032.308594 C 3387.191406 1032.132812 3387.367188 1031.957031 3387.632812 1031.871094 C 3387.367188 1031.957031 3387.191406 1032.132812 3386.929688 1032.308594 C 3090.597656 1197.972656 2850.65625 1393.804688 2850.65625 1393.804688 C 2850.304688 1394.152344 2849.953125 1394.503906 2849.601562 1394.769531 M 3387.894531 1031.695312 C 3388.070312 1031.605469 3388.246094 1031.519531 3388.421875 1031.429688 C 3388.246094 1031.519531 3388.070312 1031.605469 3387.894531 1031.695312 M 3388.683594 1031.34375 C 3388.859375 1031.167969 3389.121094 1030.992188 3389.296875 1030.90625 C 3389.121094 1030.992188 3388.859375 1031.167969 3388.683594 1031.34375 M 3389.386719 1030.90625 C 3447.003906 998.019531 3489.976562 949.609375 3518.914062 893.042969 C 3490.5 949.167969 3447.878906 997.492188 3389.386719 1030.90625 M 3521.898438 499.097656 C 3500.148438 450.953125 3469.890625 407.015625 3431.742188 371.234375 C 3430.777344 369.304688 3429.726562 367.460938 3428.761719 365.53125 C 3467.960938 400.875 3499.359375 447.09375 3521.898438 499.097656 " fill-opacity="1" fill-rule="nonzero"/><path fill="#3f7027" d="M 2136.003906 1703.03125 C 2021.382812 1703.03125 1910.441406 1679.789062 1809.941406 1632.605469 C 1676.640625 1566.132812 1557.808594 1451.773438 1468.53125 1279.355469 C 1548.949219 1353.550781 1706.367188 1615.507812 2067.335938 1615.507812 C 2151.613281 1615.507812 2247.027344 1601.210938 2355.074219 1566.921875 C 2777.691406 1432.828125 2860.125 1265.410156 3100.070312 1120.09375 C 3443.582031 911.984375 3655.550781 802.535156 3431.742188 371.234375 C 3469.890625 407.015625 3500.148438 450.953125 3521.898438 499.097656 C 3574.691406 620.914062 3578.726562 774.472656 3518.914062 893.042969 C 3489.976562 949.609375 3447.003906 998.019531 3389.386719 1030.90625 C 3389.386719 1030.90625 3389.386719 1030.90625 3389.296875 1030.90625 C 3389.121094 1030.992188 3388.859375 1031.167969 3388.683594 1031.34375 C 3388.597656 1031.34375 3388.507812 1031.34375 3388.421875 1031.429688 C 3388.246094 1031.519531 3388.070312 1031.605469 3387.894531 1031.695312 C 3387.808594 1031.78125 3387.71875 1031.78125 3387.632812 1031.871094 C 3387.367188 1031.957031 3387.191406 1032.132812 3386.929688 1032.308594 C 3090.597656 1197.972656 2850.65625 1393.804688 2850.65625 1393.804688 C 2850.304688 1394.152344 2849.953125 1394.503906 2849.601562 1394.769531 C 2849.425781 1394.941406 2849.253906 1395.207031 2849.078125 1395.292969 C 2848.988281 1395.382812 2848.902344 1395.46875 2848.8125 1395.558594 C 2737.789062 1502.460938 2604.484375 1587.878906 2463.292969 1641.816406 C 2354.808594 1682.421875 2243.785156 1703.03125 2136.003906 1703.03125 " fill-opacity="1" fill-rule="nonzero"/><path fill="#53b132" d="M 3396.753906 611.527344 C 3528.824219 768.773438 3334.484375 869.011719 3334.484375 869.011719 C 3154.441406 985.390625 2661.929688 1449.230469 2100.660156 1495.621094 C 1128.964844 1575.867188 1033.988281 170.050781 2224.402344 124.535156 C 2521.613281 113.136719 2819.960938 212.410156 3107.960938 244.15625 C 3398.15625 276.082031 3376.316406 444.285156 3376.316406 444.285156 C 3376.316406 444.285156 3327.996094 529.617188 3396.753906 611.527344 " fill-opacity="1" fill-rule="nonzero"/><path fill="#d3e854" d="M 3350.183594 617.40625 C 3476.03125 766.492188 3290.375 861.910156 3290.375 861.910156 C 3117.785156 972.9375 2648.335938 1413.183594 2112.585938 1458 C 1187.722656 1535.261719 1094.324219 201.710938 2232.382812 156.808594 C 2515.910156 145.671875 2800.402344 239.507812 3075.164062 269.152344 C 3351.9375 299.144531 3330.890625 458.757812 3330.890625 458.757812 C 3330.890625 458.757812 3284.671875 539.789062 3350.183594 617.40625 " fill-opacity="1" fill-rule="nonzero"/><path fill="#e0ee85" d="M 2902.835938 872.34375 C 2894.59375 872.34375 2886.4375 871.46875 2878.28125 869.625 C 2706.566406 829.722656 2875.121094 395.875 2376.996094 395.875 C 2331.65625 395.875 2280.792969 399.472656 2223.613281 407.277344 C 2206.25 409.644531 2175.027344 414.996094 2146.964844 414.996094 C 2119.777344 414.996094 2095.484375 409.996094 2089.523438 392.542969 C 2065.140625 321.945312 2170.03125 297.214844 2203.089844 289.058594 C 2292.980469 266.960938 2353.054688 252.753906 2433.035156 252.753906 C 2486.53125 252.753906 2549.0625 259.066406 2635.269531 273.800781 C 2765.324219 295.898438 2927.917969 297.128906 3016.929688 380.179688 C 3049.027344 410.171875 3043.589844 465.597656 3051.132812 505.148438 C 3061.132812 557.945312 3093.230469 603.636719 3103.3125 656.78125 C 3116.730469 726.941406 3007.984375 872.34375 2902.835938 872.34375 " fill-opacity="1" fill-rule="nonzero"/><path fill="#46ad36" d="M 2065.316406 1471.417969 C 1960.695312 1471.417969 1866.945312 1452.472656 1785.210938 1419.058594 C 1859.050781 1446.070312 1942.980469 1461.242188 2036.464844 1461.242188 C 2061.109375 1461.242188 2086.539062 1460.191406 2112.585938 1458 C 2463.992188 1428.621094 2786.8125 1229.191406 3016.054688 1064.054688 C 3013.863281 1065.808594 3011.667969 1067.5625 3009.5625 1069.40625 C 2639.300781 1359.335938 2319.90625 1471.417969 2065.316406 1471.417969 M 3170.839844 948.730469 C 3219.25 912.074219 3259.59375 881.730469 3290.375 861.910156 C 3290.375 861.910156 3293.09375 860.507812 3297.566406 857.785156 C 3261.960938 885.761719 3218.636719 915.316406 3170.839844 948.730469 M 1398.988281 843.84375 C 1398.988281 834.984375 1399.25 826.039062 1399.601562 817.09375 C 1408.457031 615.476562 1515.800781 413.855469 1738.203125 288.796875 C 1512.996094 421.484375 1404.160156 635.121094 1398.988281 843.84375 M 3386.578125 760.265625 C 3400.785156 721.589844 3397.367188 673.269531 3350.183594 617.40625 C 3397.367188 673.269531 3405.523438 718.171875 3386.578125 760.265625 M 3074.023438 269.0625 C 3064.550781 268.011719 3055.078125 266.960938 3045.519531 265.730469 C 3045.519531 265.644531 3045.785156 265.554688 3046.308594 265.554688 C 3048.851562 265.554688 3058.238281 267.308594 3074.023438 269.0625 " fill-opacity="1" fill-rule="nonzero"/><path fill="#afda33" d="M 2036.464844 1461.242188 C 1942.980469 1461.242188 1859.050781 1446.070312 1785.210938 1419.058594 C 1536.761719 1317.679688 1398.898438 1083.171875 1398.988281 843.84375 C 1404.160156 635.121094 1512.996094 421.484375 1738.203125 288.796875 C 1876.765625 210.917969 2059.792969 162.773438 2291.578125 162.773438 C 2405.410156 162.773438 2531.171875 174.4375 2669.03125 199.871094 C 2592.824219 191.625 2527.839844 187.417969 2467.589844 187.417969 C 2335.339844 187.417969 2225.628906 207.9375 2069 252.226562 C 1359.433594 452.882812 1462.65625 1088.609375 1777.929688 1229.628906 C 1847.914062 1260.9375 1926.226562 1273.917969 2008.136719 1273.917969 C 2378.664062 1273.917969 2822.152344 1008.277344 2895.207031 974.425781 C 3462.699219 710.628906 3218.550781 669.671875 3195.484375 512.78125 C 3181.804688 419.46875 3222.933594 356.148438 3078.496094 282.308594 C 3056.308594 270.992188 3045.609375 266.695312 3045.519531 265.730469 C 3055.078125 266.960938 3064.550781 268.011719 3074.023438 269.0625 C 3074.375 269.152344 3074.8125 269.152344 3075.164062 269.152344 C 3315.191406 295.109375 3331.242188 418.679688 3331.242188 450.953125 C 3331.242188 455.949219 3330.890625 458.757812 3330.890625 458.757812 C 3330.890625 458.757812 3315.015625 486.558594 3315.015625 525.234375 C 3315.105469 552.507812 3322.996094 585.21875 3350.183594 617.40625 C 3397.367188 673.269531 3400.785156 721.589844 3386.578125 760.265625 C 3371.671875 793.152344 3340.1875 824.375 3297.566406 857.785156 C 3293.09375 860.507812 3290.375 861.910156 3290.375 861.910156 C 3259.59375 881.730469 3219.25 912.074219 3170.839844 948.730469 C 3122.695312 982.40625 3069.988281 1020.117188 3016.054688 1064.054688 C 2786.8125 1229.191406 2463.992188 1428.621094 2112.585938 1458 C 2086.539062 1460.191406 2061.109375 1461.242188 2036.464844 1461.242188 " fill-opacity="1" fill-rule="nonzero"/><path fill="#ae3d1f" d="M 2275.53125 1066.773438 C 1778.195312 1185.867188 1640.683594 612.492188 2138.105469 493.308594 C 2635.53125 374.214844 2772.953125 947.589844 2275.53125 1066.773438 " fill-opacity="1" fill-rule="nonzero"/><path fill="#b54b29" d="M 2270.53125 799.730469 C 2233.699219 799.730469 2200.546875 789.207031 2180.902344 764.476562 C 2092.765625 653.625 2234.398438 585.570312 2349.109375 585.570312 C 2435.929688 585.570312 2507.40625 624.59375 2451.980469 713.523438 C 2421.109375 762.984375 2339.375 799.730469 2270.53125 799.730469 " fill-opacity="1" fill-rule="nonzero"/><path fill="#aebe45" d="M 1986.125 1050.023438 C 1910.707031 1018.101562 1852.386719 959.695312 1830.902344 870.066406 C 1843.96875 924.613281 1872.90625 968.199219 1912.109375 1001.085938 C 1933.15625 1020.292969 1957.886719 1036.867188 1986.125 1050.023438 M 2525.644531 921.105469 C 2584.226562 846.648438 2599.488281 758.335938 2577.125 680.109375 C 2577.824219 674.585938 2577.914062 671.515625 2578.265625 671.515625 C 2578.789062 671.515625 2579.667969 677.214844 2582.738281 690.019531 C 2604.222656 779.824219 2578.527344 858.402344 2525.644531 921.105469 M 1830.8125 869.449219 C 1819.410156 821.390625 1823.183594 774.824219 1838.707031 731.589844 C 1837.652344 735.007812 1836.6875 738.429688 1835.722656 741.761719 C 1822.917969 782.367188 1820.375 825.515625 1830.8125 869.449219 " fill-opacity="1" fill-rule="nonzero"/><path fill="#913218" d="M 2146.703125 1080.105469 C 2089.609375 1080.105469 2034.359375 1070.457031 1986.125 1050.023438 C 1957.886719 1036.867188 1933.15625 1020.292969 1912.109375 1001.085938 C 1974.988281 1053.882812 2064.351562 1079.402344 2157.75 1079.402344 C 2166.171875 1079.402344 2174.589844 1079.226562 2183.097656 1078.789062 C 2170.90625 1079.664062 2158.804688 1080.105469 2146.703125 1080.105469 M 2224.316406 979.953125 C 1908.601562 979.953125 1807.660156 522.074219 2405.675781 506.113281 C 2356.5625 487.523438 2305.171875 479.015625 2254.042969 479.015625 C 2235.628906 479.015625 2217.210938 480.15625 2198.96875 482.261719 C 2217.738281 479.980469 2236.769531 478.839844 2255.710938 478.839844 C 2323.5 478.839844 2391.117188 493.835938 2451.628906 527.335938 C 2334.375 552.859375 1992.265625 558.820312 2059.441406 808.761719 C 2079.175781 882.167969 2155.472656 913.386719 2242.644531 913.386719 C 2347.441406 913.386719 2467.941406 868.3125 2525.03125 797.363281 C 2566.777344 745.445312 2574.84375 698.789062 2577.125 680.109375 C 2599.488281 758.335938 2584.226562 846.648438 2525.644531 921.105469 C 2507.84375 942.152344 2486.972656 961.449219 2463.820312 978.636719 C 2519.242188 934.875 2561.515625 877.167969 2580.457031 806.308594 C 2535.730469 869.011719 2477.761719 923.472656 2321.046875 966.359375 C 2287.105469 975.65625 2254.746094 979.953125 2224.316406 979.953125 M 1835.722656 741.761719 C 1836.6875 738.429688 1837.652344 735.007812 1838.707031 731.589844 C 1865.628906 656.605469 1927.542969 591.621094 2006.296875 546.28125 C 1924.125 593.902344 1860.628906 663.09375 1835.722656 741.761719 " fill-opacity="1" fill-rule="nonzero"/><path fill="#aebe45" d="M 1830.902344 870.066406 C 1830.902344 869.890625 1830.8125 869.714844 1830.8125 869.449219 C 1830.8125 869.714844 1830.902344 869.890625 1830.902344 870.066406 M 2134.425781 494.273438 C 2145.472656 491.46875 2156.613281 489.011719 2167.925781 486.910156 C 2158.101562 488.75 2148.191406 490.941406 2138.105469 493.308594 C 2136.878906 493.660156 2135.652344 493.925781 2134.425781 494.273438 " fill-opacity="1" fill-rule="nonzero"/><path fill="#913218" d="M 2183.097656 1078.789062 C 2283.773438 1071.773438 2386.730469 1036.253906 2463.820312 978.636719 C 2386.554688 1039.851562 2283.6875 1073.878906 2183.097656 1078.789062 M 2006.296875 546.28125 C 2045.496094 523.566406 2088.910156 505.765625 2134.425781 494.273438 C 2135.652344 493.925781 2136.878906 493.660156 2138.105469 493.308594 C 2148.191406 490.941406 2158.101562 488.75 2167.925781 486.910156 C 2178.183594 485.066406 2188.535156 483.488281 2198.96875 482.261719 C 2130.476562 490.503906 2063.914062 513.128906 2006.296875 546.28125 " fill-opacity="1" fill-rule="nonzero"/><path fill="#909d39" d="M 1912.109375 1001.085938 C 1872.90625 968.199219 1843.96875 924.613281 1830.902344 870.066406 C 1830.902344 869.890625 1830.8125 869.714844 1830.8125 869.449219 C 1820.375 825.515625 1822.917969 782.367188 1835.722656 741.761719 C 1810.464844 835.773438 1838.882812 934.261719 1912.109375 1001.085938 " fill-opacity="1" fill-rule="nonzero"/><path fill="#7a2914" d="M 2157.75 1079.402344 C 2064.351562 1079.402344 1974.988281 1053.882812 1912.109375 1001.085938 C 1838.882812 934.261719 1810.464844 835.773438 1835.722656 741.761719 C 1860.628906 663.09375 1924.125 593.902344 2006.296875 546.28125 C 2063.914062 513.128906 2130.476562 490.503906 2198.96875 482.261719 C 2217.210938 480.15625 2235.628906 479.015625 2254.042969 479.015625 C 2305.171875 479.015625 2356.5625 487.523438 2405.675781 506.113281 C 1807.660156 522.074219 1908.601562 979.953125 2224.316406 979.953125 C 2254.746094 979.953125 2287.105469 975.65625 2321.046875 966.359375 C 2477.761719 923.472656 2535.730469 869.011719 2580.457031 806.308594 C 2561.515625 877.167969 2519.242188 934.875 2463.820312 978.636719 C 2386.730469 1036.253906 2283.773438 1071.773438 2183.097656 1078.789062 C 2174.589844 1079.226562 2166.171875 1079.402344 2157.75 1079.402344 " fill-opacity="1" fill-rule="nonzero"/><path fill="#ffffff" d="M 2494.335938 795.433594 C 2424.265625 812.183594 2405.148438 732.554688 2475.21875 715.800781 C 2545.289062 698.964844 2564.410156 778.683594 2494.335938 795.433594 " fill-opacity="1" fill-rule="nonzero"/><path fill="#ffffff" d="M 2383.046875 843.140625 C 2347.96875 851.558594 2338.496094 811.746094 2373.488281 803.324219 C 2408.570312 794.90625 2418.128906 834.808594 2383.046875 843.140625 " fill-opacity="1" fill-rule="nonzero"/><g clip-path="url(#86bfb530af)"><path fill="#4d8831" d="M 6878.28125 3191.015625 C 7223.550781 3920.320312 8085.976562 3841.832031 8538.496094 3211.625 C 8538.496094 3211.625 8764.582031 2947.125 9058.988281 2704.550781 C 9338.570312 2474.253906 9164.488281 1909.558594 8770.109375 1901.753906 L 6878.28125 3191.015625 " fill-opacity="1" fill-rule="nonzero"/></g><g clip-path="url(#0fe7597cc6)"><path fill="#53b132" d="M 8985.671875 2237.292969 C 9163.171875 2384.800781 8968.308594 2534.589844 8968.308594 2534.589844 C 8792.648438 2699.289062 8340.914062 3310.726562 7729.570312 3474.371094 C 6671.316406 3757.726562 6284.828125 2222.382812 7591.882812 1933.679688 C 7796.484375 1888.425781 8010.292969 1891.230469 8221.382812 1894.039062 C 8346.964844 1895.792969 8471.585938 1897.457031 8592.78125 1889.039062 C 8920.074219 1866.238281 8929.542969 2056.542969 8929.542969 2056.542969 C 8929.542969 2056.542969 8893.238281 2160.554688 8985.671875 2237.292969 " fill-opacity="1" fill-rule="nonzero"/></g><g clip-path="url(#2442f71c0f)"><path fill="#d3e854" d="M 8935.332031 2253.164062 C 9104.238281 2392.78125 8918.230469 2535.46875 8918.230469 2535.46875 C 8749.585938 2692.886719 8318.726562 3273.628906 7735.269531 3430.433594 C 6728.144531 3701.074219 6357.882812 2245.273438 7607.230469 1967.792969 C 7802.359375 1924.382812 8006.167969 1926.660156 8207.4375 1928.855469 C 8327.144531 1930.257812 8445.976562 1931.574219 8561.5625 1923.242188 C 8873.59375 1900.964844 8882.1875 2081.714844 8882.1875 2081.714844 C 8882.1875 2081.714844 8847.371094 2180.460938 8935.332031 2253.164062 " fill-opacity="1" fill-rule="nonzero"/></g><g clip-path="url(#c76ed3a63b)"><path fill="#e0ee85" d="M 8469.917969 2626.675781 C 8467.988281 2626.675781 8465.972656 2626.585938 8464.042969 2626.5 C 8283.734375 2617.640625 8350.472656 2190.285156 7946.535156 2190.285156 C 7866.992188 2190.285156 7769.121094 2206.859375 7647.660156 2246.414062 C 7622.753906 2254.566406 7571.886719 2273.335938 7535.144531 2273.335938 C 7517.515625 2273.335938 7503.132812 2268.949219 7496.378906 2257.023438 C 7455.425781 2183.882812 7566.363281 2135.472656 7601.355469 2119.863281 C 7759.824219 2049 7831.035156 2019.097656 8076.066406 2016.378906 C 8144.996094 2015.675781 8220.765625 2008.574219 8293.644531 2008.574219 C 8377.570312 2008.574219 8457.816406 2018.042969 8519.378906 2057.683594 C 8560.859375 2084.34375 8565.949219 2146.699219 8582.171875 2188.96875 C 8603.832031 2245.273438 8648.472656 2289.472656 8670.308594 2346.125 C 8700.914062 2425.757812 8596.289062 2626.675781 8469.917969 2626.675781 " fill-opacity="1" fill-rule="nonzero"/></g><g clip-path="url(#5b897a3028)"><path fill="#46ad36" d="M 7526.371094 3469.460938 C 7470.070312 3469.460938 7416.3125 3463.671875 7365.359375 3452.886719 C 7406.578125 3460.078125 7449.636719 3463.761719 7494.539062 3463.761719 C 7569.871094 3463.761719 7650.378906 3453.238281 7735.269531 3430.433594 C 8117.808594 3327.652344 8434.75 3042.628906 8655.136719 2814.085938 C 8653.207031 2816.457031 8651.191406 2818.734375 8649.171875 2821.101562 C 8229.097656 3293.097656 7838.402344 3469.460938 7526.371094 3469.460938 M 6823.382812 2894.332031 C 6811.808594 2830.398438 6809.089844 2764.539062 6816.105469 2698.675781 C 6834.433594 2524.945312 6919.851562 2351.300781 7086.917969 2212.910156 C 6864.777344 2404.707031 6787.253906 2662.542969 6823.382812 2894.332031 M 8803.871094 2655 C 8822.550781 2634.566406 8840.09375 2615.625 8856.226562 2598.4375 L 8856.226562 2602.292969 C 8839.566406 2619.132812 8822.027344 2636.671875 8803.871094 2655 M 8528.148438 1925.433594 C 8527.710938 1924.382812 8539.289062 1924.90625 8561.5625 1923.242188 C 8550.425781 1924.117188 8539.289062 1924.820312 8528.148438 1925.433594 M 8561.5625 1923.242188 C 8579.714844 1922.015625 8596.816406 1921.398438 8613.042969 1921.398438 C 8596.816406 1921.398438 8579.714844 1922.015625 8561.5625 1923.242188 " fill-opacity="1" fill-rule="nonzero"/></g><g clip-path="url(#bbef7e0b1f)"><path fill="#afda33" d="M 7494.539062 3463.761719 C 7449.636719 3463.761719 7406.578125 3460.078125 7365.359375 3452.886719 C 7070.519531 3390.445312 6871.089844 3158.832031 6823.382812 2894.332031 C 6787.253906 2662.542969 6864.777344 2404.707031 7086.917969 2212.910156 C 7290.640625 2044.179688 7615.472656 1927.976562 8087.816406 1927.976562 C 8091.414062 1927.976562 8095.097656 1927.976562 8098.605469 1927.976562 C 7824.109375 1947.535156 7684.84375 1989.101562 7445.601562 2105.917969 C 6701.21875 2469.957031 6942.742188 3152.167969 7319.582031 3244.953125 C 7362.203125 3255.476562 7406.3125 3260.300781 7451.304688 3260.300781 C 7893.652344 3260.300781 8421.773438 2796.722656 8503.855469 2739.015625 C 8598.394531 2672.277344 8697.933594 2609.835938 8778.265625 2525.46875 C 8828.253906 2473.113281 8850.617188 2430.054688 8856.226562 2392.957031 L 8856.226562 2598.4375 C 8840.09375 2615.625 8822.550781 2634.566406 8803.871094 2655 C 8757.128906 2702.097656 8706.089844 2754.539062 8655.136719 2814.085938 C 8434.75 3042.628906 8117.808594 3327.652344 7735.269531 3430.433594 C 7650.378906 3453.238281 7569.871094 3463.761719 7494.539062 3463.761719 M 8856.226562 2355.683594 C 8844.566406 2279.914062 8764.144531 2230.277344 8743.359375 2168.449219 C 8709.507812 2068.03125 8742.308594 1989.804688 8567.789062 1937.097656 C 8541.304688 1929.117188 8528.5 1926.488281 8528.148438 1925.433594 C 8539.289062 1924.820312 8550.425781 1924.117188 8561.5625 1923.242188 C 8579.714844 1922.015625 8596.816406 1921.398438 8613.042969 1921.398438 C 8758.53125 1921.398438 8825.445312 1971.039062 8856.226562 2015.0625 L 8856.226562 2355.683594 " fill-opacity="1" fill-rule="nonzero"/></g><g clip-path="url(#b53187121d)"><path fill="#ae3d1f" d="M 7837.085938 2965.28125 C 7311.074219 3196.542969 7044.207031 2590.015625 7570.398438 2358.753906 C 8096.5 2127.40625 8363.277344 2733.929688 7837.085938 2965.28125 " fill-opacity="1" fill-rule="nonzero"/></g><g clip-path="url(#d5e883c4ad)"><path fill="#b54b29" d="M 7744.652344 2674.121094 C 7716.679688 2674.121094 7691.15625 2666.753906 7671.953125 2649.914062 C 7626.613281 2610.097656 7622.488281 2515.472656 7695.28125 2466.273438 C 7740.445312 2435.753906 7811.304688 2414.09375 7870.148438 2414.09375 C 7943.289062 2414.09375 7997.925781 2447.59375 7961.445312 2539.328125 C 7933.644531 2609.308594 7828.054688 2674.121094 7744.652344 2674.121094 " fill-opacity="1" fill-rule="nonzero"/></g><g clip-path="url(#15f9ca5add)"><path fill="#aebe45" d="M 7514.621094 3004.921875 C 7424.554688 2984.835938 7347.996094 2931.867188 7306.164062 2836.800781 C 7331.59375 2894.59375 7372.375 2936.953125 7422.449219 2965.542969 C 7449.722656 2982.644531 7480.59375 2996.0625 7514.621094 3004.921875 M 7306.164062 2836.800781 C 7283.710938 2785.761719 7278.539062 2733.316406 7287.042969 2682.1875 C 7286.519531 2686.132812 7286.167969 2690.167969 7285.816406 2694.113281 C 7279.765625 2741.734375 7285.640625 2790.058594 7306.164062 2836.800781 M 8084.835938 2753.488281 C 8134.382812 2659.5625 8133.421875 2559.058594 8093.167969 2477.234375 C 8092.726562 2471.007812 8092.289062 2467.589844 8092.726562 2467.589844 C 8093.339844 2467.589844 8095.445312 2473.726562 8101.324219 2487.144531 C 8142.980469 2581.859375 8130.4375 2673.679688 8084.835938 2753.488281 " fill-opacity="1" fill-rule="nonzero"/></g><g clip-path="url(#04b2783f4c)"><path fill="#913218" d="M 7604.601562 3014.390625 C 7573.730469 3014.390625 7543.472656 3011.324219 7514.621094 3004.921875 C 7480.59375 2996.0625 7449.722656 2982.644531 7422.449219 2965.542969 C 7477.523438 2996.941406 7543.824219 3011.671875 7613.546875 3011.671875 C 7654.585938 3011.671875 7696.769531 3006.5 7738.425781 2996.765625 C 7693.789062 3008.253906 7648.535156 3014.390625 7604.601562 3014.390625 M 7701.417969 2885.125 C 7392.546875 2885.210938 7250.5625 2448.296875 7868.660156 2319.289062 C 7840.683594 2314.117188 7812.445312 2311.660156 7784.46875 2311.660156 C 7732.902344 2311.660156 7681.949219 2319.992188 7633.363281 2334.988281 C 7682.386719 2319.640625 7733.605469 2311.132812 7784.90625 2311.132812 C 7831.738281 2311.132812 7878.570312 2318.238281 7923.820312 2333.585938 C 7799.289062 2385.238281 7422.1875 2460.308594 7546.457031 2723.230469 C 7574.871094 2783.21875 7635.820312 2808.210938 7706.855469 2808.210938 C 7837.085938 2808.210938 8000.996094 2724.019531 8058.964844 2617.464844 C 8094.832031 2551.605469 8094.394531 2498.285156 8093.167969 2477.234375 C 8133.421875 2559.058594 8134.382812 2659.5625 8084.835938 2753.488281 C 8069.3125 2780.5 8050.019531 2806.105469 8027.742188 2830.046875 C 8080.1875 2770.5 8115.355469 2698.324219 8122.105469 2616.238281 C 8085.1875 2694.554688 8032.039062 2766.292969 7867.34375 2845.132812 C 7809.289062 2872.933594 7752.984375 2885.125 7701.417969 2885.125 M 7285.816406 2694.113281 C 7286.167969 2690.167969 7286.519531 2686.132812 7287.042969 2682.1875 C 7301.777344 2593.613281 7357.554688 2508.984375 7435.867188 2443.121094 C 7354.132812 2512.316406 7297.566406 2601.769531 7285.816406 2694.113281 " fill-opacity="1" fill-rule="nonzero"/></g><path fill="#aebe45" d="M 7568.292969 2359.632812 C 7578.816406 2354.894531 7589.429688 2350.511719 7600.214844 2346.390625 C 7590.394531 2350.160156 7580.394531 2354.28125 7570.398438 2358.753906 C 7569.695312 2359.015625 7568.996094 2359.28125 7568.292969 2359.632812 " fill-opacity="1" fill-rule="nonzero"/><g clip-path="url(#bda618c741)"><path fill="#913218" d="M 7738.425781 2996.765625 C 7848.050781 2968.699219 7954.253906 2908.890625 8027.742188 2830.046875 C 7954.777344 2912.925781 7848.402344 2971.070312 7738.425781 2996.765625 M 7435.867188 2443.121094 C 7474.980469 2409.96875 7519.882812 2381.46875 7568.292969 2359.632812 C 7568.996094 2359.28125 7569.695312 2359.015625 7570.398438 2358.753906 C 7580.394531 2354.28125 7590.394531 2350.160156 7600.214844 2346.390625 C 7611.089844 2342.265625 7622.140625 2338.410156 7633.363281 2334.988281 C 7560.398438 2357.703125 7492.257812 2395.589844 7435.867188 2443.121094 " fill-opacity="1" fill-rule="nonzero"/></g><g clip-path="url(#f390e48158)"><path fill="#7a2914" d="M 7613.546875 3011.671875 C 7543.824219 3011.671875 7477.523438 2996.941406 7422.449219 2965.542969 C 7327.824219 2906.347656 7276.695312 2803.039062 7285.816406 2694.113281 C 7297.566406 2601.769531 7354.132812 2512.316406 7435.867188 2443.121094 C 7492.257812 2395.589844 7560.398438 2357.703125 7633.363281 2334.988281 C 7681.949219 2319.992188 7732.902344 2311.660156 7784.46875 2311.660156 C 7812.445312 2311.660156 7840.683594 2314.117188 7868.660156 2319.289062 C 7250.5625 2448.296875 7392.546875 2885.210938 7701.417969 2885.125 C 7752.984375 2885.125 7809.289062 2872.933594 7867.34375 2845.132812 C 8032.039062 2766.292969 8085.1875 2694.554688 8122.105469 2616.238281 C 8115.355469 2698.324219 8080.1875 2770.5 8027.742188 2830.046875 C 7954.253906 2908.890625 7848.050781 2968.699219 7738.425781 2996.765625 C 7696.769531 3006.5 7654.585938 3011.671875 7613.546875 3011.671875 " fill-opacity="1" fill-rule="nonzero"/></g><g clip-path="url(#fe48e56284)"><path fill="#ffffff" d="M 8024.675781 2621.414062 C 7950.570312 2654.035156 7913.558594 2569.757812 7987.664062 2537.132812 C 8061.769531 2504.597656 8098.867188 2588.875 8024.675781 2621.414062 " fill-opacity="1" fill-rule="nonzero"/></g><g clip-path="url(#f2768ff6c3)"><path fill="#4d8831" d="M 8759.671875 790.082031 C 8631.722656 363.339844 8154.644531 334.574219 7855.328125 640.996094 C 7855.328125 640.996094 7710.011719 766.582031 7529.179688 874.539062 C 7357.464844 977.058594 7405.613281 1299.703125 7620.210938 1336.625 L 8759.671875 790.082031 " fill-opacity="1" fill-rule="nonzero"/></g><path fill="#d3d2d2" d="M 7514.882812 1288.652344 C 7489.976562 1267.429688 7469.632812 1239.367188 7454.8125 1207.53125 C 7469.105469 1236.996094 7488.574219 1263.65625 7512.957031 1285.230469 C 7513.570312 1286.371094 7514.183594 1287.511719 7514.882812 1288.652344 M 7448.933594 964.957031 C 7465.597656 928.558594 7491.820312 896.988281 7528.566406 874.800781 C 7492.347656 896.636719 7465.949219 928.296875 7448.933594 964.957031 M 7528.652344 874.800781 C 7528.828125 874.714844 7529.003906 874.625 7529.179688 874.539062 C 7529.003906 874.625 7528.828125 874.714844 7528.652344 874.800781 M 8090.535156 480.59375 C 8161.570312 451.128906 8236.203125 434.550781 8309.78125 434.550781 C 8373.976562 434.550781 8437.207031 447.179688 8496.402344 474.628906 C 8437.644531 449.109375 8373.625 436.480469 8307.765625 436.480469 C 8236.113281 436.480469 8162.183594 451.390625 8090.535156 480.59375 " fill-opacity="1" fill-rule="nonzero"/><g clip-path="url(#ef88aa379f)"><path fill="#3f7027" d="M 7512.957031 1285.230469 C 7488.574219 1263.65625 7469.105469 1236.996094 7454.8125 1207.53125 C 7420.171875 1133.425781 7414.734375 1039.234375 7448.933594 964.957031 C 7465.949219 928.296875 7492.347656 896.636719 7528.566406 874.800781 C 7528.652344 874.800781 7528.652344 874.800781 7528.652344 874.800781 C 7528.828125 874.714844 7529.003906 874.625 7529.179688 874.539062 C 7710.011719 766.582031 7855.328125 640.996094 7855.328125 640.996094 C 7922.332031 572.328125 8003.625 516.8125 8090.535156 480.59375 C 8162.183594 451.390625 8236.113281 436.480469 8307.765625 436.480469 C 8373.625 436.480469 8437.644531 449.109375 8496.402344 474.628906 C 8580.242188 513.570312 8655.925781 582.414062 8714.332031 687.652344 C 8664.167969 643.976562 8564.894531 489.628906 8349.945312 489.628906 C 8294.609375 489.628906 8231.464844 499.886719 8159.554688 524.882812 C 7899.878906 615.476562 7851.644531 720.800781 7705.453125 815.078125 C 7489.890625 954.082031 7368.953125 1026.082031 7512.957031 1285.230469 " fill-opacity="1" fill-rule="nonzero"/></g><g clip-path="url(#ad793daed2)"><path fill="#53b132" d="M 7530.40625 1135.617188 C 7445.691406 1040.375 7564.523438 974.777344 7564.523438 974.777344 C 7674.058594 899.53125 7971.355469 603.285156 8318.636719 564.699219 C 8919.632812 497.871094 9003.121094 1367.84375 8265.84375 1417.042969 C 8081.765625 1429.234375 7895.054688 1372.929688 7715.890625 1358.285156 C 7535.40625 1343.640625 7546.015625 1238.925781 7546.015625 1238.925781 C 7546.015625 1238.925781 7574.519531 1185.167969 7530.40625 1135.617188 " fill-opacity="1" fill-rule="nonzero"/></g><g clip-path="url(#a17f6e31e0)"><path fill="#d3e854" d="M 7559.171875 1131.144531 C 7478.578125 1040.902344 7591.972656 978.460938 7591.972656 978.460938 C 7697.035156 906.546875 7980.386719 625.386719 8311.796875 588.199219 C 8883.941406 524.09375 8965.238281 1349.339844 8260.320312 1397.136719 C 8084.746094 1408.976562 7906.71875 1355.828125 7735.796875 1342.148438 C 7563.644531 1328.46875 7573.90625 1229.105469 7573.90625 1229.105469 C 7573.90625 1229.105469 7601.179688 1178.152344 7559.171875 1131.144531 " fill-opacity="1" fill-rule="nonzero"/></g><path fill="#e0ee85" d="M 8117.722656 1339.691406 C 8084.570312 1339.691406 8048.089844 1337.238281 8008.449219 1331.710938 C 7757.195312 1296.195312 7770.523438 1304.613281 7746.582031 1195.515625 C 7739.390625 1162.890625 7718.695312 1135.179688 7711.503906 1102.378906 C 7701.945312 1058.707031 7768.246094 965.128906 7834.105469 965.128906 C 7838.492188 965.128906 7842.964844 965.570312 7847.347656 966.445312 C 7952.847656 987.84375 7860.589844 1251.644531 8152.1875 1251.644531 C 8183.757812 1251.644531 8219.976562 1248.484375 8261.371094 1241.644531 C 8277.246094 1239.015625 8290.839844 1237.875 8302.328125 1237.875 C 8355.734375 1237.875 8363.363281 1263.308594 8330.742188 1288.738281 C 8298.117188 1314.171875 8225.238281 1339.691406 8117.722656 1339.691406 " fill-opacity="1" fill-rule="nonzero"/><g clip-path="url(#6c8a688953)"><path fill="#46ad36" d="M 7753.6875 1343.988281 C 7751.84375 1343.988281 7745.792969 1343.023438 7735.796875 1342.148438 C 7581.972656 1329.957031 7573.816406 1249.363281 7573.816406 1232.347656 C 7573.816406 1249.363281 7581.972656 1329.957031 7735.796875 1342.148438 C 7741.933594 1342.675781 7748.074219 1343.199219 7754.210938 1343.816406 C 7754.300781 1343.902344 7754.039062 1343.988281 7753.6875 1343.988281 M 8562.441406 1307.859375 C 8701.179688 1221.648438 8765.546875 1086.59375 8765.023438 956.359375 C 8765.285156 966.535156 8765.199219 976.707031 8764.671875 986.878906 C 8758.445312 1108.167969 8694.601562 1229.457031 8562.441406 1307.859375 M 7582.585938 1190.253906 C 7582.585938 1172.800781 7577.5 1151.578125 7559.171875 1131.144531 C 7529.003906 1097.378906 7523.128906 1069.753906 7534.089844 1043.359375 C 7526.023438 1067.476562 7529.003906 1097.378906 7559.171875 1131.144531 C 7577.5 1151.578125 7582.585938 1172.800781 7582.585938 1190.253906 M 7587.585938 981.09375 C 7609.160156 963.203125 7635.46875 944.082031 7664.410156 922.597656 C 7635.117188 946.1875 7610.738281 965.65625 7591.972656 978.460938 C 7591.972656 978.460938 7590.304688 979.425781 7587.585938 981.09375 M 7758.511719 848.316406 C 7759.824219 847.175781 7761.140625 846.035156 7762.457031 844.894531 C 7994.15625 652.746094 8195.511719 578.816406 8355.824219 578.816406 C 8414.753906 578.816406 8468.078125 588.8125 8515.34375 606.617188 C 8473.164062 592.496094 8425.894531 584.691406 8373.886719 584.691406 C 8353.894531 584.691406 8333.195312 585.832031 8311.796875 588.199219 C 8094.480469 612.582031 7897.773438 741.9375 7758.511719 848.316406 " fill-opacity="1" fill-rule="nonzero"/></g><g clip-path="url(#6e05c1594c)"><path fill="#afda33" d="M 8193.582031 1394.941406 C 8130.964844 1394.941406 8062.824219 1389.59375 7988.804688 1378.015625 C 8022.304688 1380.734375 8054.402344 1382.050781 8085.273438 1382.050781 C 8716.351562 1381.964844 8820.621094 847 8523.324219 723.957031 C 8483.25 707.296875 8439.046875 700.367188 8393.007812 700.367188 C 8160.605469 700.367188 7880.585938 879.097656 7834.984375 901.8125 C 7487.699219 1075.28125 7639.855469 1096.066406 7656.957031 1193.324219 C 7667.039062 1250.941406 7642.660156 1290.84375 7733.515625 1334.167969 C 7747.371094 1340.65625 7754.039062 1343.199219 7754.210938 1343.816406 C 7748.074219 1343.199219 7741.933594 1342.675781 7735.796875 1342.148438 C 7581.972656 1329.957031 7573.816406 1249.363281 7573.816406 1232.347656 C 7573.816406 1230.246094 7573.90625 1229.105469 7573.90625 1229.105469 C 7573.90625 1229.105469 7582.585938 1212.878906 7582.585938 1190.253906 C 7582.585938 1172.800781 7577.5 1151.578125 7559.171875 1131.144531 C 7529.003906 1097.378906 7526.023438 1067.476562 7534.089844 1043.359375 C 7542.683594 1022.660156 7561.714844 1002.664062 7587.585938 981.09375 C 7590.304688 979.425781 7591.972656 978.460938 7591.972656 978.460938 C 7610.738281 965.65625 7635.117188 946.1875 7664.410156 922.597656 C 7693.789062 900.847656 7725.796875 876.554688 7758.511719 848.316406 C 7897.773438 741.9375 8094.480469 612.582031 8311.796875 588.199219 C 8333.195312 585.832031 8353.894531 584.691406 8373.886719 584.691406 C 8425.894531 584.691406 8473.164062 592.496094 8515.34375 606.617188 C 8671.183594 665.023438 8760.8125 807.972656 8765.023438 956.359375 C 8765.546875 1086.59375 8701.179688 1221.648438 8562.441406 1307.859375 C 8472.285156 1361.355469 8350.472656 1394.941406 8193.582031 1394.941406 " fill-opacity="1" fill-rule="nonzero"/></g><path fill="#ae3d1f" d="M 8217.699219 833.667969 C 8523.941406 751.058594 8619.269531 1104.222656 8312.851562 1186.832031 C 8006.609375 1269.359375 7911.28125 916.28125 8217.699219 833.667969 " fill-opacity="1" fill-rule="nonzero"/><path fill="#b54b29" d="M 8175.515625 1133.335938 C 8123.859375 1133.335938 8082.644531 1110.097656 8114.476562 1055.8125 C 8133.15625 1023.800781 8185.425781 999.15625 8228.746094 999.15625 C 8250.320312 999.15625 8269.613281 1005.210938 8281.628906 1019.417969 C 8339.511719 1088.261719 8247.425781 1133.335938 8175.515625 1133.335938 " fill-opacity="1" fill-rule="nonzero"/><path fill="#aebe45" d="M 8036.863281 1084.050781 C 8036.511719 1084.050781 8035.898438 1080.542969 8033.792969 1072.648438 C 8018.796875 1017.3125 8033.445312 968.023438 8065.277344 928.210938 C 8030.109375 975.480469 8022.21875 1030.554688 8037.390625 1078.699219 C 8037.128906 1082.121094 8037.039062 1084.050781 8036.863281 1084.050781 M 8494.296875 1033.972656 C 8494.910156 1031.871094 8495.4375 1029.765625 8495.964844 1027.660156 C 8503.242188 1002.316406 8504.121094 975.566406 8497.015625 948.554688 C 8504.820312 978.109375 8503.15625 1006.964844 8494.296875 1033.972656 M 8496.664062 947.328125 C 8487.546875 913.828125 8468.867188 887.515625 8443.960938 867.871094 C 8430.804688 856.558594 8415.457031 846.824219 8398.003906 839.28125 C 8444.925781 857.699219 8481.757812 892.691406 8496.664062 947.328125 " fill-opacity="1" fill-rule="nonzero"/><path fill="#913218" d="M 8232.253906 1197.972656 C 8192.878906 1197.972656 8153.589844 1189.726562 8117.898438 1171.222656 C 8190.160156 1153.332031 8402.214844 1143.6875 8356.171875 989.863281 C 8343.195312 946.449219 8298.46875 928.121094 8246.988281 928.121094 C 8180.601562 928.121094 8102.902344 958.640625 8067.644531 1005.035156 C 8042.738281 1038.007812 8038.441406 1067.125 8037.390625 1078.699219 C 8022.21875 1030.554688 8030.109375 975.480469 8065.277344 928.210938 C 8075.976562 914.792969 8088.605469 902.425781 8102.8125 891.289062 C 8069.050781 919.441406 8043.703125 956.097656 8033.09375 1000.472656 C 8059.753906 960.832031 8094.746094 926.105469 8191.125 896.726562 C 8214.191406 889.710938 8236.113281 886.550781 8256.546875 886.550781 C 8447.992188 886.550781 8513.765625 1163.417969 8146.835938 1183.589844 C 8174.902344 1193.324219 8204.191406 1197.796875 8233.21875 1197.796875 C 8246.988281 1197.796875 8260.671875 1196.832031 8274.175781 1194.902344 C 8260.320312 1196.917969 8246.289062 1197.972656 8232.253906 1197.972656 M 8394.496094 1151.226562 C 8444.132812 1120.269531 8481.933594 1076.597656 8495.964844 1027.660156 C 8495.4375 1029.765625 8494.910156 1031.871094 8494.296875 1033.972656 C 8479.039062 1080.628906 8442.117188 1121.761719 8394.496094 1151.226562 M 8443.960938 867.871094 C 8406.160156 837.96875 8353.980469 823.585938 8299.34375 823.585938 C 8291.453125 823.585938 8283.472656 823.933594 8275.492188 824.550781 C 8285.75 823.585938 8295.925781 823.058594 8306.097656 823.058594 C 8338.632812 823.058594 8370.117188 828.234375 8398.003906 839.28125 C 8415.457031 846.824219 8430.804688 856.558594 8443.960938 867.871094 " fill-opacity="1" fill-rule="nonzero"/><path fill="#aebe45" d="M 8296.273438 1190.957031 C 8301.710938 1189.726562 8307.238281 1188.324219 8312.851562 1186.832031 C 8313.113281 1186.746094 8313.289062 1186.746094 8313.464844 1186.65625 C 8307.765625 1188.238281 8302.0625 1189.640625 8296.273438 1190.957031 M 8497.015625 948.554688 C 8496.929688 948.378906 8496.839844 948.117188 8496.753906 947.855469 C 8496.839844 948.117188 8496.929688 948.378906 8497.015625 948.554688 M 8496.753906 947.855469 C 8496.753906 947.679688 8496.664062 947.503906 8496.664062 947.328125 C 8496.664062 947.503906 8496.753906 947.679688 8496.753906 947.855469 " fill-opacity="1" fill-rule="nonzero"/><path fill="#913218" d="M 8274.175781 1194.902344 C 8317.234375 1188.675781 8358.890625 1173.238281 8394.496094 1151.226562 C 8369.941406 1166.488281 8342.40625 1178.589844 8313.464844 1186.65625 C 8313.289062 1186.746094 8313.113281 1186.746094 8312.851562 1186.832031 C 8307.238281 1188.324219 8301.710938 1189.726562 8296.273438 1190.957031 C 8288.996094 1192.535156 8281.628906 1193.847656 8274.175781 1194.902344 M 8102.8125 891.289062 C 8149.820312 852 8213.136719 829.199219 8275.492188 824.550781 C 8213.050781 830.511719 8149.730469 854.277344 8102.8125 891.289062 " fill-opacity="1" fill-rule="nonzero"/><path fill="#909d39" d="M 8495.964844 1027.660156 C 8510.082031 968.8125 8490.789062 908.125 8443.960938 867.871094 C 8468.867188 887.515625 8487.546875 913.828125 8496.664062 947.328125 C 8496.664062 947.503906 8496.753906 947.679688 8496.753906 947.855469 C 8496.839844 948.117188 8496.929688 948.378906 8497.015625 948.554688 C 8504.121094 975.566406 8503.242188 1002.316406 8495.964844 1027.660156 " fill-opacity="1" fill-rule="nonzero"/><path fill="#7a2914" d="M 8233.21875 1197.796875 C 8204.191406 1197.796875 8174.902344 1193.324219 8146.835938 1183.589844 C 8513.765625 1163.417969 8447.992188 886.550781 8256.546875 886.550781 C 8236.113281 886.550781 8214.191406 889.710938 8191.125 896.726562 C 8094.746094 926.105469 8059.753906 960.832031 8033.09375 1000.472656 C 8043.703125 956.097656 8069.050781 919.441406 8102.8125 891.289062 C 8149.730469 854.277344 8213.050781 830.511719 8275.492188 824.550781 C 8283.472656 823.933594 8291.453125 823.585938 8299.34375 823.585938 C 8353.980469 823.585938 8406.160156 837.96875 8443.960938 867.871094 C 8490.789062 908.125 8510.082031 968.8125 8495.964844 1027.660156 C 8481.933594 1076.597656 8444.132812 1120.269531 8394.496094 1151.226562 C 8358.890625 1173.238281 8317.234375 1188.675781 8274.175781 1194.902344 C 8260.671875 1196.832031 8246.988281 1197.796875 8233.21875 1197.796875 " fill-opacity="1" fill-rule="nonzero"/><path fill="#ffffff" d="M 8086.765625 1005.734375 C 8129.910156 994.070312 8143.15625 1043.183594 8100.007812 1054.757812 C 8056.859375 1066.421875 8043.527344 1017.398438 8086.765625 1005.734375 " fill-opacity="1" fill-rule="nonzero"/><path fill="#ffffff" d="M 8154.90625 974.164062 C 8176.480469 968.375 8183.144531 992.929688 8161.484375 998.71875 C 8139.910156 1004.507812 8133.332031 980.039062 8154.90625 974.164062 " fill-opacity="1" fill-rule="nonzero"/></svg>