<svg xmlns="http://www.w3.org/2000/svg" xmlns:xlink="http://www.w3.org/1999/xlink" width="11520" zoomAndPan="magnify" viewBox="0 0 8640 2592.000001" height="3456" preserveAspectRatio="xMidYMid meet" version="1.0"><defs><g/><clipPath id="26cd608a11"><path d="M 1424.769531 601.496094 L 7215.535156 601.496094 L 7215.535156 1989.757812 L 1424.769531 1989.757812 Z M 1424.769531 601.496094 " clip-rule="nonzero"/></clipPath><clipPath id="9e65bcd275"><path d="M 1558.078125 749.253906 L 2650.40625 749.253906 L 2650.40625 1841.582031 L 1558.078125 1841.582031 Z M 1558.078125 749.253906 " clip-rule="nonzero"/></clipPath><clipPath id="ac999b9c1b"><path d="M 1682 778 L 2718 778 L 2718 1813.402344 L 1682 1813.402344 Z M 1682 778 " clip-rule="nonzero"/></clipPath></defs><g clip-path="url(#26cd608a11)"><path fill="#7bc9a3" d="M 7215.535156 1295.625 C 7215.535156 1678.984375 6904.804688 1989.757812 6521.496094 1989.757812 L 2118.804688 1989.757812 C 1735.507812 1989.757812 1424.769531 1678.984375 1424.769531 1295.625 C 1424.769531 912.265625 1735.507812 601.496094 2118.804688 601.496094 L 6521.496094 601.496094 C 6904.804688 601.496094 7215.535156 912.265625 7215.535156 1295.625 Z M 7215.535156 1295.625 " fill-opacity="1" fill-rule="evenodd"/></g><path fill="#ffffff" d="M 2643.976562 1295.625 C 2643.976562 1005.546875 2408.847656 770.386719 2118.808594 770.386719 C 1828.765625 770.386719 1593.640625 1005.546875 1593.640625 1295.625 C 1593.640625 1585.707031 1828.765625 1820.863281 2118.808594 1820.863281 C 2408.847656 1820.863281 2643.976562 1585.707031 2643.976562 1295.625 Z M 2643.976562 1295.625 " fill-opacity="1" fill-rule="evenodd"/><path fill="#47ab7b" d="M 1933.421875 1220.414062 C 1940.9375 1220.617188 1948.359375 1222.964844 1954.855469 1227.632812 C 1972.203125 1240.058594 1976.195312 1264.214844 1963.761719 1281.566406 L 1939.730469 1315.207031 L 1935.925781 1320.523438 L 1915.605469 1348.761719 C 1872.460938 1409.007812 1886.378906 1492.8125 1946.597656 1535.953125 C 2006.90625 1579.097656 2090.691406 1565.234375 2133.839844 1504.996094 L 2157.960938 1471.441406 L 2158.148438 1471.628906 L 2182.273438 1437.988281 C 2194.707031 1420.625 2218.921875 1416.636719 2236.273438 1429.070312 C 2253.625 1441.496094 2257.613281 1465.652344 2245.179688 1483.003906 L 2217.25 1521.960938 L 2215.117188 1524.390625 L 2194.335938 1553.410156 C 2126.320312 1648.359375 1994.101562 1670.207031 1899.183594 1602.203125 C 1804.171875 1534.199219 1782.273438 1402.09375 1850.378906 1307.140625 L 1873.015625 1275.5 L 1876.820312 1270.191406 L 1900.945312 1236.550781 C 1908.648438 1225.703125 1921.082031 1220.070312 1933.421875 1220.414062 Z M 2203.242188 1138.046875 C 2211.222656 1138.257812 2219.199219 1140.78125 2226.160156 1145.765625 C 2244.71875 1159.0625 2248.984375 1184.898438 2235.714844 1203.46875 L 2069.167969 1435.945312 C 2055.898438 1454.515625 2030.011719 1458.785156 2011.453125 1445.484375 C 1992.894531 1432.1875 1988.628906 1406.351562 2001.894531 1387.785156 L 2168.445312 1155.304688 C 2176.796875 1143.707031 2189.972656 1137.683594 2203.242188 1138.046875 Z M 2221.242188 949.5625 C 2261.976562 950.6875 2302.800781 963.546875 2338.429688 989.046875 C 2433.441406 1057.050781 2455.339844 1189.160156 2387.234375 1284.109375 L 2367.195312 1312.136719 L 2365.617188 1314.945312 L 2337.6875 1353.894531 C 2325.253906 1371.257812 2301.039062 1375.246094 2283.6875 1362.820312 C 2266.335938 1350.386719 2262.347656 1326.242188 2274.777344 1308.878906 L 2293.335938 1282.96875 L 2293.058594 1282.78125 L 2322.007812 1242.488281 C 2365.152344 1182.246094 2351.234375 1098.4375 2291.015625 1055.296875 C 2230.707031 1012.15625 2146.921875 1026.019531 2103.773438 1086.253906 L 2084.199219 1113.507812 L 2074.824219 1126.546875 L 2056.269531 1152.457031 C 2043.835938 1169.820312 2019.710938 1173.808594 2002.359375 1161.375 C 1985.007812 1148.949219 1981.019531 1124.804688 1993.453125 1107.441406 L 2012.011719 1081.53125 L 2021.289062 1068.492188 L 2043.277344 1037.84375 C 2085.773438 978.496094 2153.324219 947.707031 2221.242188 949.5625 Z M 2221.242188 949.5625 " fill-opacity="1" fill-rule="evenodd"/><path stroke-linecap="butt" transform="matrix(0.749711, 0, 0, 0.749711, 3138.505156, 813.061385)" fill="none" stroke-linejoin="miter" d="M 197.835054 983.20362 C 173.283918 983.20362 151.056595 979.540748 131.147875 972.204586 C 111.239154 964.868423 94.321171 954.463368 80.399134 940.994631 C 66.628198 927.369585 55.926154 911.280046 48.293001 892.715594 C 40.654638 874.005252 36.840667 853.570287 36.840667 831.415909 L 36.840667 472.829688 C 36.840667 450.675309 40.654638 430.240344 48.293001 411.530003 C 55.926154 392.819661 66.628198 376.724912 80.399134 363.256176 C 94.321171 349.782229 111.239154 339.377174 131.147875 332.046221 C 151.056595 324.710059 173.283918 321.041977 197.835054 321.041977 C 222.23509 321.041977 244.389468 324.710059 264.298188 332.046221 C 284.358009 339.377174 301.270782 349.782229 315.041718 363.256176 C 328.812654 376.724912 339.519909 392.819661 347.153062 411.530003 C 354.786214 430.240344 358.605395 450.675309 358.605395 472.829688 L 358.605395 523.349173 C 358.605395 534.426362 356.734882 541.835469 352.988646 545.581706 C 349.398719 549.171632 342.135501 550.969201 331.209412 550.969201 L 275.974567 550.969201 C 264.897378 550.969201 257.48827 549.171632 253.742033 545.581706 C 250.152107 541.835469 248.354539 534.426362 248.354539 523.349173 L 248.354539 468.114327 C 248.354539 457.787428 244.837557 449.101786 237.803594 442.067823 C 230.764421 434.88276 222.011045 431.292834 211.533045 431.292834 C 201.055046 431.292834 192.296459 434.88276 185.262496 442.067823 C 178.223323 449.101786 174.706341 457.787428 174.706341 468.114327 L 174.706341 836.131269 C 174.706341 846.46338 178.223323 855.143811 185.262496 862.177774 C 192.296459 869.216947 201.055046 872.733929 211.533045 872.733929 C 222.011045 872.733929 230.764421 869.216947 237.803594 862.177774 C 244.837557 855.143811 248.354539 846.46338 248.354539 836.131269 L 248.354539 780.896424 C 248.354539 769.819235 250.152107 762.483072 253.742033 758.893146 C 257.48827 755.15212 264.897378 753.276396 275.974567 753.276396 L 331.209412 753.276396 C 342.135501 753.276396 349.398719 755.15212 352.988646 758.893146 C 356.734882 762.483072 358.605395 769.819235 358.605395 780.896424 L 358.605395 831.415909 C 358.605395 853.570287 354.786214 874.005252 347.153062 892.715594 C 339.519909 911.280046 328.812654 927.369585 315.041718 940.994631 C 301.270782 954.463368 284.358009 964.868423 264.298188 972.204586 C 244.389468 979.540748 222.23509 983.20362 197.835054 983.20362 Z M 450.734679 974.002154 C 439.65749 974.002154 432.248382 972.204586 428.507356 968.609449 C 424.91222 964.868423 423.119862 957.459315 423.119862 946.382126 L 423.119862 357.868681 C 423.119862 346.791492 424.91222 339.455329 428.507356 335.860192 C 432.248382 332.119166 439.65749 330.248653 450.734679 330.248653 L 533.365508 330.248653 C 544.442697 330.248653 551.77886 332.119166 555.368786 335.860192 C 559.115023 339.455329 560.985536 346.791492 560.985536 357.868681 L 560.985536 845.337945 C 560.985536 852.674108 562.183915 857.540569 564.575462 859.932116 C 567.12332 862.328874 572.062725 863.527253 579.398888 863.527253 L 671.455227 863.527253 C 682.386526 863.527253 689.717479 865.397766 693.463715 869.138792 C 697.204741 872.885029 699.075255 880.215981 699.075255 891.147281 L 699.075255 946.382126 C 699.075255 957.459315 697.204741 964.868423 693.463715 968.609449 C 689.717479 972.204586 682.386526 974.002154 671.455227 974.002154 Z M 754.221524 974.002154 C 743.144335 974.002154 735.735227 972.204586 731.994201 968.609449 C 728.399065 964.868423 726.601496 957.459315 726.601496 946.382126 L 726.601496 891.147281 C 726.601496 880.215981 728.399065 872.885029 731.994201 869.138792 C 735.735227 865.397766 743.144335 863.527253 754.221524 863.527253 L 781.841552 863.527253 C 789.172505 863.527253 794.038965 862.328874 796.435723 859.932116 C 798.97837 857.540569 800.249694 852.674108 800.249694 845.337945 L 800.249694 458.907651 C 800.249694 451.571488 798.97837 446.710238 796.435723 444.313481 C 794.038965 441.770833 789.172505 440.494299 781.841552 440.494299 L 754.221524 440.494299 C 743.144335 440.494299 735.735227 438.701941 731.994201 435.106805 C 728.399065 431.365778 726.601496 423.956671 726.601496 412.879482 L 726.601496 357.868681 C 726.601496 346.791492 728.399065 339.455329 731.994201 335.860192 C 735.735227 332.119166 743.144335 330.248653 754.221524 330.248653 L 984.148748 330.248653 C 995.225937 330.248653 1002.5621 332.119166 1006.152026 335.860192 C 1009.898262 339.455329 1011.768776 346.791492 1011.768776 357.868681 L 1011.768776 412.879482 C 1011.768776 423.956671 1009.898262 431.365778 1006.152026 435.106805 C 1002.5621 438.701941 995.225937 440.494299 984.148748 440.494299 L 956.52872 440.494299 C 949.197767 440.494299 944.258362 441.770833 941.710504 444.313481 C 939.313747 446.710238 938.120578 451.571488 938.120578 458.907651 L 938.120578 845.337945 C 938.120578 852.674108 939.313747 857.540569 941.710504 859.932116 C 944.258362 862.328874 949.197767 863.527253 956.52872 863.527253 L 984.148748 863.527253 C 995.225937 863.527253 1002.5621 865.397766 1006.152026 869.138792 C 1009.898262 872.885029 1011.768776 880.215981 1011.768776 891.147281 L 1011.768776 946.382126 C 1011.768776 957.459315 1009.898262 964.868423 1006.152026 968.609449 C 1002.5621 972.204586 995.225937 974.002154 984.148748 974.002154 Z M 1425.501267 1102.661152 C 1388.825663 1102.661152 1358.965187 1096.523368 1335.90942 1084.2478 C 1312.858863 1072.123332 1295.1958 1058.352396 1282.920232 1042.934991 C 1267.648717 1025.865908 1256.946673 1005.957187 1250.808889 983.20362 L 1237.116108 983.20362 C 1183.67362 983.20362 1141.907511 968.536504 1111.822991 939.197063 C 1081.88436 909.706522 1066.915045 870.712316 1066.915045 822.214444 L 1066.915045 482.036364 C 1066.915045 433.533281 1081.88436 394.61723 1111.822991 365.277789 C 1141.907511 335.787248 1183.67362 321.041977 1237.116108 321.041977 C 1290.402285 321.041977 1332.017294 335.787248 1361.955924 365.277789 C 1392.045655 394.61723 1407.087915 433.533281 1407.087915 482.036364 L 1407.087915 822.214444 C 1407.087915 845.56199 1404.170123 865.100776 1398.334539 880.815171 C 1392.644844 896.383675 1386.35596 909.034388 1379.473097 918.762098 C 1371.537745 929.839287 1362.404014 939.045963 1352.077114 946.382126 C 1355.672251 954.916668 1360.533501 962.622765 1366.671285 969.510838 C 1371.61069 975.497522 1378.196563 980.812072 1386.434115 985.449277 C 1394.666457 990.091693 1404.618212 992.410296 1416.294591 992.410296 L 1421.009951 992.410296 C 1432.08714 992.410296 1439.423303 994.207864 1443.013229 997.803 C 1446.759466 1001.544027 1448.629979 1008.953134 1448.629979 1020.030323 L 1448.629979 1075.265169 C 1448.629979 1086.196468 1446.759466 1093.454476 1443.013229 1097.049613 C 1439.423303 1100.790639 1432.08714 1102.661152 1421.009951 1102.661152 Z M 1237.116108 872.733929 C 1246.244628 872.733929 1253.877781 869.737981 1260.015565 863.751297 C 1266.153349 857.613513 1269.222241 849.907416 1269.222241 840.622585 L 1269.222241 463.623012 C 1269.222241 454.343391 1266.153349 446.632083 1260.015565 440.494299 C 1253.877781 434.356515 1246.244628 431.292834 1237.116108 431.292834 C 1227.831276 431.292834 1220.125179 434.356515 1213.987395 440.494299 C 1207.849611 446.632083 1204.780719 454.343391 1204.780719 463.623012 L 1204.780719 840.622585 C 1204.780719 849.907416 1207.849611 857.613513 1213.987395 863.751297 C 1220.125179 869.737981 1227.831276 872.733929 1237.116108 872.733929 Z M 1646.372914 983.20362 C 1621.826989 983.20362 1599.594455 979.540748 1579.685735 972.204586 C 1559.777015 964.868423 1542.864241 954.463368 1528.942205 940.994631 C 1515.171269 927.369585 1504.469224 911.280046 1496.830862 892.715594 C 1489.197709 874.005252 1485.378528 853.570287 1485.378528 831.415909 L 1485.378528 357.868681 C 1485.378528 346.791492 1487.176096 339.455329 1490.771233 335.860192 C 1494.512259 332.119166 1501.921367 330.248653 1512.998556 330.248653 L 1595.629384 330.248653 C 1606.706573 330.248653 1614.042736 332.119166 1617.632663 335.860192 C 1621.378899 339.455329 1623.249412 346.791492 1623.249412 357.868681 L 1623.249412 836.131269 C 1623.249412 846.46338 1626.766394 855.143811 1633.800357 862.177774 C 1640.83432 869.216947 1649.592906 872.733929 1660.070906 872.733929 C 1670.548905 872.733929 1679.307492 869.216947 1686.341455 862.177774 C 1693.380628 855.143811 1696.89761 846.46338 1696.89761 836.131269 L 1696.89761 357.868681 C 1696.89761 346.791492 1698.695178 339.455329 1702.285104 335.860192 C 1706.02613 332.119166 1713.435238 330.248653 1724.512427 330.248653 L 1779.752483 330.248653 C 1790.678572 330.248653 1797.93658 332.119166 1801.531716 335.860192 C 1805.272743 339.455329 1807.143256 346.791492 1807.143256 357.868681 L 1807.143256 831.415909 C 1807.143256 853.570287 1803.329285 874.005252 1795.690922 892.715594 C 1788.05777 911.280046 1777.355725 927.369585 1763.584789 940.994631 C 1749.813852 954.463368 1732.895869 964.868423 1712.836049 972.204586 C 1692.927328 979.540748 1670.77295 983.20362 1646.372914 983.20362 Z M 1908.474005 974.002154 C 1897.396816 974.002154 1889.987708 972.204586 1886.246682 968.609449 C 1882.651546 964.868423 1880.853977 957.459315 1880.853977 946.382126 L 1880.853977 357.868681 C 1880.853977 346.791492 1882.651546 339.455329 1886.246682 335.860192 C 1889.987708 332.119166 1897.396816 330.248653 1908.474005 330.248653 L 2147.607905 330.248653 C 2158.533994 330.248653 2165.870157 332.119166 2169.611183 335.860192 C 2173.352209 339.455329 2175.227933 346.791492 2175.227933 357.868681 L 2175.227933 412.879482 C 2175.227933 423.956671 2173.352209 431.365778 2169.611183 435.106805 C 2165.870157 438.701941 2158.533994 440.494299 2147.607905 440.494299 L 2037.133003 440.494299 C 2029.802051 440.494299 2024.857435 441.770833 2022.314788 444.313481 C 2019.91803 446.710238 2018.724862 451.571488 2018.724862 458.907651 L 2018.724862 569.382553 C 2018.724862 576.718715 2019.91803 581.65812 2022.314788 584.200768 C 2024.857435 586.597526 2029.802051 587.795904 2037.133003 587.795904 L 2101.574525 587.795904 C 2112.651714 587.795904 2119.987877 589.666418 2123.583013 593.407444 C 2127.32404 596.99737 2129.194553 604.333533 2129.194553 615.410722 L 2129.194553 670.421523 C 2129.194553 681.498712 2127.32404 688.91303 2123.583013 692.654056 C 2119.987877 696.243982 2112.651714 698.041551 2101.574525 698.041551 L 2037.133003 698.041551 C 2029.802051 698.041551 2024.857435 699.312874 2022.314788 701.860732 C 2019.91803 704.252279 2018.724862 709.11874 2018.724862 716.454903 L 2018.724862 845.337945 C 2018.724862 852.674108 2019.91803 857.540569 2022.314788 859.932116 C 2024.857435 862.328874 2029.802051 863.527253 2037.133003 863.527253 L 2147.607905 863.527253 C 2158.533994 863.527253 2165.870157 865.397766 2169.611183 869.138792 C 2173.352209 872.885029 2175.227933 880.215981 2175.227933 891.147281 L 2175.227933 946.382126 C 2175.227933 957.459315 2173.352209 964.868423 2169.611183 968.609449 C 2165.870157 972.204586 2158.533994 974.002154 2147.607905 974.002154 Z M 2423.511194 974.002154 C 2412.434005 974.002154 2405.024897 972.204586 2401.278661 968.609449 C 2397.688735 964.868423 2395.891166 957.459315 2395.891166 946.382126 L 2395.891166 357.868681 C 2395.891166 346.791492 2397.688735 339.455329 2401.278661 335.860192 C 2405.024897 332.119166 2412.434005 330.248653 2423.511194 330.248653 L 2526.347733 330.248653 C 2537.424922 330.248653 2545.584319 331.968066 2550.825924 335.412103 C 2556.062318 338.70504 2560.178489 345.514958 2563.174437 355.847068 L 2621.103029 629.108714 L 2630.309705 629.108714 L 2689.139687 355.847068 C 2692.281524 345.514958 2696.47585 338.70504 2701.712245 335.412103 C 2706.95385 331.968066 2715.035092 330.248653 2725.966391 330.248653 L 2828.130796 330.248653 C 2839.207985 330.248653 2846.538937 332.119166 2850.134074 335.860192 C 2853.8751 339.455329 2855.745613 346.791492 2855.745613 357.868681 L 2855.745613 946.382126 C 2855.745613 957.459315 2853.8751 964.868423 2850.134074 968.609449 C 2846.538937 972.204586 2839.207985 974.002154 2828.130796 974.002154 L 2745.275922 974.002154 C 2734.344623 974.002154 2727.01367 972.204586 2723.267434 968.609449 C 2719.526407 964.868423 2717.655894 957.459315 2717.655894 946.382126 L 2717.655894 675.136883 L 2708.449218 675.136883 L 2651.640849 948.179694 C 2648.499012 958.657694 2644.304686 965.618712 2639.068292 969.062749 C 2633.826687 972.355686 2625.745445 974.002154 2614.819356 974.002154 L 2609.202606 974.002154 C 2598.125417 974.002154 2589.96602 972.355686 2584.729625 969.062749 C 2579.63912 965.618712 2575.522949 958.657694 2572.381113 948.179694 L 2515.348699 675.136883 L 2506.142023 675.136883 L 2506.142023 946.382126 C 2506.142023 957.459315 2504.27151 964.868423 2500.525273 968.609449 C 2496.935347 972.204586 2489.599184 974.002154 2478.521995 974.002154 Z M 3099.521928 983.20362 C 3046.084651 983.20362 3004.318542 968.536504 2974.228811 939.197063 C 2944.290181 909.706522 2929.320866 870.712316 2929.320866 822.214444 L 2929.320866 482.036364 C 2929.320866 433.533281 2944.290181 394.61723 2974.228811 365.277789 C 3004.318542 335.787248 3046.084651 321.041977 3099.521928 321.041977 C 3152.813316 321.041977 3194.428325 335.787248 3224.366955 365.277789 C 3254.456686 394.61723 3269.498946 433.533281 3269.498946 482.036364 L 3269.498946 822.214444 C 3269.498946 870.712316 3254.456686 909.706522 3224.366955 939.197063 C 3194.428325 968.536504 3152.813316 983.20362 3099.521928 983.20362 Z M 3099.521928 872.733929 C 3108.655659 872.733929 3116.288812 869.737981 3122.426596 863.751297 C 3128.56438 857.613513 3131.633272 849.907416 3131.633272 840.622585 L 3131.633272 463.623012 C 3131.633272 454.343391 3128.56438 446.632083 3122.426596 440.494299 C 3116.288812 434.356515 3108.655659 431.292834 3099.521928 431.292834 C 3090.242307 431.292834 3082.531 434.356515 3076.398426 440.494299 C 3070.260642 446.632083 3067.19175 454.343391 3067.19175 463.623012 L 3067.19175 840.622585 C 3067.19175 849.907416 3070.260642 857.613513 3076.398426 863.751297 C 3082.531 869.737981 3090.242307 872.733929 3099.521928 872.733929 Z M 3352.400712 974.002154 C 3341.318313 974.002154 3333.909205 972.204586 3330.168179 968.609449 C 3326.578253 964.868423 3324.780684 957.459315 3324.780684 946.382126 L 3324.780684 891.147281 C 3324.780684 880.215981 3326.578253 872.885029 3330.168179 869.138792 C 3333.909205 865.397766 3341.318313 863.527253 3352.400712 863.527253 L 3380.01553 863.527253 C 3387.351693 863.527253 3392.218153 862.328874 3394.6097 859.932116 C 3397.157558 857.540569 3398.428882 852.674108 3398.428882 845.337945 L 3398.428882 458.907651 C 3398.428882 451.571488 3397.157558 446.710238 3394.6097 444.313481 C 3392.218153 441.770833 3387.351693 440.494299 3380.01553 440.494299 L 3352.400712 440.494299 C 3341.318313 440.494299 3333.909205 438.701941 3330.168179 435.106805 C 3326.578253 431.365778 3324.780684 423.956671 3324.780684 412.879482 L 3324.780684 357.868681 C 3324.780684 346.791492 3326.578253 339.455329 3330.168179 335.860192 C 3333.909205 332.119166 3341.318313 330.248653 3352.400712 330.248653 L 3582.327936 330.248653 C 3593.405125 330.248653 3600.736077 332.119166 3604.331214 335.860192 C 3608.07224 339.455329 3609.942753 346.791492 3609.942753 357.868681 L 3609.942753 412.879482 C 3609.942753 423.956671 3608.07224 431.365778 3604.331214 435.106805 C 3600.736077 438.701941 3593.405125 440.494299 3582.327936 440.494299 L 3554.707908 440.494299 C 3547.371745 440.494299 3542.43234 441.770833 3539.889692 444.313481 C 3537.492935 446.710238 3536.294556 451.571488 3536.294556 458.907651 L 3536.294556 845.337945 C 3536.294556 852.674108 3537.492935 857.540569 3539.889692 859.932116 C 3542.43234 862.328874 3547.371745 863.527253 3554.707908 863.527253 L 3582.327936 863.527253 C 3593.405125 863.527253 3600.736077 865.397766 3604.331214 869.138792 C 3608.07224 872.885029 3609.942753 880.215981 3609.942753 891.147281 L 3609.942753 946.382126 C 3609.942753 957.459315 3608.07224 964.868423 3604.331214 968.609449 C 3600.736077 972.204586 3593.405125 974.002154 3582.327936 974.002154 Z M 3913.268078 983.20362 C 3892.457968 983.20362 3875.01895 976.169657 3860.951024 962.101731 C 3846.877888 948.028594 3839.843925 930.516632 3839.843925 909.555422 C 3839.843925 888.750523 3846.877888 871.311505 3860.951024 857.238369 C 3875.01895 843.170443 3892.457968 836.131269 3913.268078 836.131269 C 3934.224077 836.131269 3951.736039 843.170443 3965.809176 857.238369 C 3979.882312 871.311505 3986.916275 888.750523 3986.916275 909.555422 C 3986.916275 930.516632 3979.882312 948.028594 3965.809176 962.101731 C 3951.736039 976.169657 3934.224077 983.20362 3913.268078 983.20362 Z M 3885.872094 780.896424 C 3874.794905 780.896424 3867.385798 779.098856 3863.644771 775.508929 C 3860.049635 771.767903 3857.955077 764.353585 3857.355887 753.276396 L 3840.740104 357.868681 C 3840.140914 346.791492 3841.641493 339.455329 3845.231419 335.860192 C 3848.972446 332.119166 3856.386764 330.248653 3867.463953 330.248653 L 3959.296247 330.248653 C 3970.373436 330.248653 3977.709599 332.119166 3981.304736 335.860192 C 3985.045762 339.455329 3986.619285 346.791492 3986.020096 357.868681 L 3969.404312 753.276396 C 3968.805123 764.353585 3966.63241 771.767903 3962.891384 775.508929 C 3959.296247 779.098856 3951.965294 780.896424 3940.888105 780.896424 Z M 3885.872094 780.896424 " stroke="#47ab7b" stroke-width="148.304688" stroke-opacity="1" stroke-miterlimit="4"/><g fill="#ffffff" fill-opacity="1"><g transform="translate(3138.516871, 1543.279635)"><g><path d="M 148.25 6.890625 C 129.863281 6.890625 113.195312 4.132812 98.25 -1.375 C 83.3125 -6.894531 70.671875 -14.707031 60.328125 -24.8125 C 49.984375 -34.925781 41.9375 -46.992188 36.1875 -61.015625 C 30.445312 -75.035156 27.578125 -90.320312 27.578125 -106.875 L 27.578125 -375.78125 C 27.578125 -392.332031 30.445312 -407.617188 36.1875 -421.640625 C 41.9375 -435.660156 49.984375 -447.722656 60.328125 -457.828125 C 70.671875 -467.941406 83.3125 -475.757812 98.25 -481.28125 C 113.195312 -486.800781 129.863281 -489.5625 148.25 -489.5625 C 166.632812 -489.5625 183.296875 -486.800781 198.234375 -481.28125 C 213.171875 -475.757812 225.8125 -467.941406 236.15625 -457.828125 C 246.5 -447.722656 254.539062 -435.660156 260.28125 -421.640625 C 266.03125 -407.617188 268.90625 -392.332031 268.90625 -375.78125 L 268.90625 -337.859375 C 268.90625 -329.585938 267.523438 -324.070312 264.765625 -321.3125 C 262.015625 -318.550781 256.5 -317.171875 248.21875 -317.171875 L 206.859375 -317.171875 C 198.578125 -317.171875 193.054688 -318.550781 190.296875 -321.3125 C 187.546875 -324.070312 186.171875 -329.585938 186.171875 -337.859375 L 186.171875 -379.234375 C 186.171875 -387.046875 183.523438 -393.59375 178.234375 -398.875 C 172.953125 -404.164062 166.40625 -406.8125 158.59375 -406.8125 C 150.769531 -406.8125 144.21875 -404.164062 138.9375 -398.875 C 133.65625 -393.59375 131.015625 -387.046875 131.015625 -379.234375 L 131.015625 -103.421875 C 131.015625 -95.609375 133.65625 -89.054688 138.9375 -83.765625 C 144.21875 -78.484375 150.769531 -75.84375 158.59375 -75.84375 C 166.40625 -75.84375 172.953125 -78.484375 178.234375 -83.765625 C 183.523438 -89.054688 186.171875 -95.609375 186.171875 -103.421875 L 186.171875 -144.796875 C 186.171875 -153.066406 187.546875 -158.582031 190.296875 -161.34375 C 193.054688 -164.101562 198.578125 -165.484375 206.859375 -165.484375 L 248.21875 -165.484375 C 256.5 -165.484375 262.015625 -164.101562 264.765625 -161.34375 C 267.523438 -158.582031 268.90625 -153.066406 268.90625 -144.796875 L 268.90625 -106.875 C 268.90625 -90.320312 266.03125 -75.035156 260.28125 -61.015625 C 254.539062 -46.992188 246.5 -34.925781 236.15625 -24.8125 C 225.8125 -14.707031 213.171875 -6.894531 198.234375 -1.375 C 183.296875 4.132812 166.632812 6.890625 148.25 6.890625 Z M 148.25 6.890625 "/></g></g></g><g fill="#ffffff" fill-opacity="1"><g transform="translate(3428.113347, 1543.279635)"><g><path d="M 48.265625 0 C 39.992188 0 34.476562 -1.378906 31.71875 -4.140625 C 28.957031 -6.898438 27.578125 -12.414062 27.578125 -20.6875 L 27.578125 -461.96875 C 27.578125 -470.25 28.957031 -475.765625 31.71875 -478.515625 C 34.476562 -481.273438 39.992188 -482.65625 48.265625 -482.65625 L 110.328125 -482.65625 C 118.597656 -482.65625 124.113281 -481.273438 126.875 -478.515625 C 129.632812 -475.765625 131.015625 -470.25 131.015625 -461.96875 L 131.015625 -96.53125 C 131.015625 -91.019531 131.929688 -87.34375 133.765625 -85.5 C 135.609375 -83.65625 139.285156 -82.734375 144.796875 -82.734375 L 213.75 -82.734375 C 222.019531 -82.734375 227.535156 -81.351562 230.296875 -78.59375 C 233.054688 -75.84375 234.4375 -70.332031 234.4375 -62.0625 L 234.4375 -20.6875 C 234.4375 -12.414062 233.054688 -6.898438 230.296875 -4.140625 C 227.535156 -1.378906 222.019531 0 213.75 0 Z M 48.265625 0 "/></g></g></g><g fill="#ffffff" fill-opacity="1"><g transform="translate(3669.443716, 1543.279635)"><g><path d="M 34.46875 0 C 26.195312 0 20.679688 -1.378906 17.921875 -4.140625 C 15.171875 -6.898438 13.796875 -12.414062 13.796875 -20.6875 L 13.796875 -62.0625 C 13.796875 -70.332031 15.171875 -75.84375 17.921875 -78.59375 C 20.679688 -81.351562 26.195312 -82.734375 34.46875 -82.734375 L 55.15625 -82.734375 C 60.675781 -82.734375 64.351562 -83.65625 66.1875 -85.5 C 68.03125 -87.34375 68.953125 -91.019531 68.953125 -96.53125 L 68.953125 -386.125 C 68.953125 -391.644531 68.03125 -395.320312 66.1875 -397.15625 C 64.351562 -399 60.675781 -399.921875 55.15625 -399.921875 L 34.46875 -399.921875 C 26.195312 -399.921875 20.679688 -401.296875 17.921875 -404.046875 C 15.171875 -406.804688 13.796875 -412.328125 13.796875 -420.609375 L 13.796875 -461.96875 C 13.796875 -470.25 15.171875 -475.765625 17.921875 -478.515625 C 20.679688 -481.273438 26.195312 -482.65625 34.46875 -482.65625 L 206.859375 -482.65625 C 215.128906 -482.65625 220.644531 -481.273438 223.40625 -478.515625 C 226.164062 -475.765625 227.546875 -470.25 227.546875 -461.96875 L 227.546875 -420.609375 C 227.546875 -412.328125 226.164062 -406.804688 223.40625 -404.046875 C 220.644531 -401.296875 215.128906 -399.921875 206.859375 -399.921875 L 186.171875 -399.921875 C 180.648438 -399.921875 176.96875 -399 175.125 -397.15625 C 173.289062 -395.320312 172.375 -391.644531 172.375 -386.125 L 172.375 -96.53125 C 172.375 -91.019531 173.289062 -87.34375 175.125 -85.5 C 176.96875 -83.65625 180.648438 -82.734375 186.171875 -82.734375 L 206.859375 -82.734375 C 215.128906 -82.734375 220.644531 -81.351562 223.40625 -78.59375 C 226.164062 -75.84375 227.546875 -70.332031 227.546875 -62.0625 L 227.546875 -20.6875 C 227.546875 -12.414062 226.164062 -6.898438 223.40625 -4.140625 C 220.644531 -1.378906 215.128906 0 206.859375 0 Z M 34.46875 0 "/></g></g></g><g fill="#ffffff" fill-opacity="1"><g transform="translate(3910.774108, 1543.279635)"><g><path d="M 296.484375 96.53125 C 268.910156 96.53125 246.503906 91.929688 229.265625 82.734375 C 212.023438 73.546875 198.804688 63.207031 189.609375 51.71875 C 178.117188 38.84375 170.078125 23.898438 165.484375 6.890625 L 155.140625 6.890625 C 115.148438 6.890625 83.890625 -4.140625 61.359375 -26.203125 C 38.835938 -48.265625 27.578125 -77.453125 27.578125 -113.765625 L 27.578125 -368.890625 C 27.578125 -405.203125 38.835938 -434.390625 61.359375 -456.453125 C 83.890625 -478.523438 115.148438 -489.5625 155.140625 -489.5625 C 195.128906 -489.5625 226.382812 -478.523438 248.90625 -456.453125 C 271.4375 -434.390625 282.703125 -405.203125 282.703125 -368.890625 L 282.703125 -113.765625 C 282.703125 -96.296875 280.515625 -81.703125 276.140625 -69.984375 C 271.773438 -58.265625 267.066406 -48.726562 262.015625 -41.375 C 256.035156 -33.09375 249.140625 -26.195312 241.328125 -20.6875 C 244.085938 -14.25 247.765625 -8.503906 252.359375 -3.453125 C 256.035156 1.148438 260.976562 5.175781 267.1875 8.625 C 273.394531 12.070312 280.863281 13.796875 289.59375 13.796875 L 293.046875 13.796875 C 301.316406 13.796875 306.832031 15.171875 309.59375 17.921875 C 312.351562 20.679688 313.734375 26.195312 313.734375 34.46875 L 313.734375 75.84375 C 313.734375 84.125 312.351562 89.640625 309.59375 92.390625 C 306.832031 95.148438 301.316406 96.53125 293.046875 96.53125 Z M 155.140625 -75.84375 C 162.035156 -75.84375 167.78125 -78.140625 172.375 -82.734375 C 176.976562 -87.335938 179.28125 -93.085938 179.28125 -99.984375 L 179.28125 -382.6875 C 179.28125 -389.582031 176.976562 -395.328125 172.375 -399.921875 C 167.78125 -404.515625 162.035156 -406.8125 155.140625 -406.8125 C 148.242188 -406.8125 142.5 -404.515625 137.90625 -399.921875 C 133.3125 -395.328125 131.015625 -389.582031 131.015625 -382.6875 L 131.015625 -99.984375 C 131.015625 -93.085938 133.3125 -87.335938 137.90625 -82.734375 C 142.5 -78.140625 148.242188 -75.84375 155.140625 -75.84375 Z M 155.140625 -75.84375 "/></g></g></g><g fill="#ffffff" fill-opacity="1"><g transform="translate(4224.503614, 1543.279635)"><g><path d="M 148.25 6.890625 C 129.863281 6.890625 113.195312 4.132812 98.25 -1.375 C 83.3125 -6.894531 70.671875 -14.707031 60.328125 -24.8125 C 49.984375 -34.925781 41.9375 -46.992188 36.1875 -61.015625 C 30.445312 -75.035156 27.578125 -90.320312 27.578125 -106.875 L 27.578125 -461.96875 C 27.578125 -470.25 28.957031 -475.765625 31.71875 -478.515625 C 34.476562 -481.273438 39.992188 -482.65625 48.265625 -482.65625 L 110.328125 -482.65625 C 118.597656 -482.65625 124.113281 -481.273438 126.875 -478.515625 C 129.632812 -475.765625 131.015625 -470.25 131.015625 -461.96875 L 131.015625 -103.421875 C 131.015625 -95.609375 133.65625 -89.054688 138.9375 -83.765625 C 144.21875 -78.484375 150.769531 -75.84375 158.59375 -75.84375 C 166.40625 -75.84375 172.953125 -78.484375 178.234375 -83.765625 C 183.523438 -89.054688 186.171875 -95.609375 186.171875 -103.421875 L 186.171875 -461.96875 C 186.171875 -470.25 187.546875 -475.765625 190.296875 -478.515625 C 193.054688 -481.273438 198.578125 -482.65625 206.859375 -482.65625 L 248.21875 -482.65625 C 256.5 -482.65625 262.015625 -481.273438 264.765625 -478.515625 C 267.523438 -475.765625 268.90625 -470.25 268.90625 -461.96875 L 268.90625 -106.875 C 268.90625 -90.320312 266.03125 -75.035156 260.28125 -61.015625 C 254.539062 -46.992188 246.5 -34.925781 236.15625 -24.8125 C 225.8125 -14.707031 213.171875 -6.894531 198.234375 -1.375 C 183.296875 4.132812 166.632812 6.890625 148.25 6.890625 Z M 148.25 6.890625 "/></g></g></g><g fill="#ffffff" fill-opacity="1"><g transform="translate(4520.995262, 1543.279635)"><g><path d="M 48.265625 0 C 39.992188 0 34.476562 -1.378906 31.71875 -4.140625 C 28.957031 -6.898438 27.578125 -12.414062 27.578125 -20.6875 L 27.578125 -461.96875 C 27.578125 -470.25 28.957031 -475.765625 31.71875 -478.515625 C 34.476562 -481.273438 39.992188 -482.65625 48.265625 -482.65625 L 227.546875 -482.65625 C 235.816406 -482.65625 241.328125 -481.273438 244.078125 -478.515625 C 246.835938 -475.765625 248.21875 -470.25 248.21875 -461.96875 L 248.21875 -420.609375 C 248.21875 -412.328125 246.835938 -406.804688 244.078125 -404.046875 C 241.328125 -401.296875 235.816406 -399.921875 227.546875 -399.921875 L 144.796875 -399.921875 C 139.285156 -399.921875 135.609375 -399 133.765625 -397.15625 C 131.929688 -395.320312 131.015625 -391.644531 131.015625 -386.125 L 131.015625 -303.390625 C 131.015625 -297.867188 131.929688 -294.1875 133.765625 -292.34375 C 135.609375 -290.507812 139.285156 -289.59375 144.796875 -289.59375 L 193.0625 -289.59375 C 201.332031 -289.59375 206.847656 -288.210938 209.609375 -285.453125 C 212.367188 -282.703125 213.75 -277.1875 213.75 -268.90625 L 213.75 -227.546875 C 213.75 -219.265625 212.367188 -213.742188 209.609375 -210.984375 C 206.847656 -208.234375 201.332031 -206.859375 193.0625 -206.859375 L 144.796875 -206.859375 C 139.285156 -206.859375 135.609375 -205.9375 133.765625 -204.09375 C 131.929688 -202.257812 131.015625 -198.582031 131.015625 -193.0625 L 131.015625 -96.53125 C 131.015625 -91.019531 131.929688 -87.34375 133.765625 -85.5 C 135.609375 -83.65625 139.285156 -82.734375 144.796875 -82.734375 L 227.546875 -82.734375 C 235.816406 -82.734375 241.328125 -81.351562 244.078125 -78.59375 C 246.835938 -75.84375 248.21875 -70.332031 248.21875 -62.0625 L 248.21875 -20.6875 C 248.21875 -12.414062 246.835938 -6.898438 244.078125 -4.140625 C 241.328125 -1.378906 235.816406 0 227.546875 0 Z M 48.265625 0 "/></g></g></g><g fill="#ffffff" fill-opacity="1"><g transform="translate(4783.01102, 1543.279635)"><g/></g></g><g fill="#ffffff" fill-opacity="1"><g transform="translate(4907.123654, 1543.279635)"><g><path d="M 48.265625 0 C 39.992188 0 34.476562 -1.378906 31.71875 -4.140625 C 28.957031 -6.898438 27.578125 -12.414062 27.578125 -20.6875 L 27.578125 -461.96875 C 27.578125 -470.25 28.957031 -475.765625 31.71875 -478.515625 C 34.476562 -481.273438 39.992188 -482.65625 48.265625 -482.65625 L 125.484375 -482.65625 C 133.765625 -482.65625 139.859375 -481.390625 143.765625 -478.859375 C 147.671875 -476.335938 150.773438 -471.171875 153.078125 -463.359375 L 196.515625 -258.5625 L 203.40625 -258.5625 L 247.53125 -463.359375 C 249.832031 -471.171875 252.9375 -476.335938 256.84375 -478.859375 C 260.75 -481.390625 266.835938 -482.65625 275.109375 -482.65625 L 351.65625 -482.65625 C 359.925781 -482.65625 365.441406 -481.273438 368.203125 -478.515625 C 370.960938 -475.765625 372.34375 -470.25 372.34375 -461.96875 L 372.34375 -20.6875 C 372.34375 -12.414062 370.960938 -6.898438 368.203125 -4.140625 C 365.441406 -1.378906 359.925781 0 351.65625 0 L 289.59375 0 C 281.320312 0 275.804688 -1.378906 273.046875 -4.140625 C 270.285156 -6.898438 268.90625 -12.414062 268.90625 -20.6875 L 268.90625 -224.09375 L 262.015625 -224.09375 L 219.265625 -19.3125 C 216.960938 -11.488281 213.859375 -6.3125 209.953125 -3.78125 C 206.046875 -1.257812 199.957031 0 191.6875 0 L 187.546875 0 C 179.273438 0 173.1875 -1.257812 169.28125 -3.78125 C 165.375 -6.3125 162.269531 -11.488281 159.96875 -19.3125 L 117.21875 -224.09375 L 110.328125 -224.09375 L 110.328125 -20.6875 C 110.328125 -12.414062 108.945312 -6.898438 106.1875 -4.140625 C 103.425781 -1.378906 97.910156 0 89.640625 0 Z M 48.265625 0 "/></g></g></g><g fill="#ffffff" fill-opacity="1"><g transform="translate(5307.042531, 1543.279635)"><g><path d="M 155.140625 6.890625 C 115.148438 6.890625 83.890625 -4.140625 61.359375 -26.203125 C 38.835938 -48.265625 27.578125 -77.453125 27.578125 -113.765625 L 27.578125 -368.890625 C 27.578125 -405.203125 38.835938 -434.390625 61.359375 -456.453125 C 83.890625 -478.523438 115.148438 -489.5625 155.140625 -489.5625 C 195.128906 -489.5625 226.382812 -478.523438 248.90625 -456.453125 C 271.4375 -434.390625 282.703125 -405.203125 282.703125 -368.890625 L 282.703125 -113.765625 C 282.703125 -77.453125 271.4375 -48.265625 248.90625 -26.203125 C 226.382812 -4.140625 195.128906 6.890625 155.140625 6.890625 Z M 155.140625 -75.84375 C 162.035156 -75.84375 167.78125 -78.140625 172.375 -82.734375 C 176.976562 -87.335938 179.28125 -93.085938 179.28125 -99.984375 L 179.28125 -382.6875 C 179.28125 -389.582031 176.976562 -395.328125 172.375 -399.921875 C 167.78125 -404.515625 162.035156 -406.8125 155.140625 -406.8125 C 148.242188 -406.8125 142.5 -404.515625 137.90625 -399.921875 C 133.3125 -395.328125 131.015625 -389.582031 131.015625 -382.6875 L 131.015625 -99.984375 C 131.015625 -93.085938 133.3125 -87.335938 137.90625 -82.734375 C 142.5 -78.140625 148.242188 -75.84375 155.140625 -75.84375 Z M 155.140625 -75.84375 "/></g></g></g><g fill="#ffffff" fill-opacity="1"><g transform="translate(5617.324485, 1543.279635)"><g><path d="M 34.46875 0 C 26.195312 0 20.679688 -1.378906 17.921875 -4.140625 C 15.171875 -6.898438 13.796875 -12.414062 13.796875 -20.6875 L 13.796875 -62.0625 C 13.796875 -70.332031 15.171875 -75.84375 17.921875 -78.59375 C 20.679688 -81.351562 26.195312 -82.734375 34.46875 -82.734375 L 55.15625 -82.734375 C 60.675781 -82.734375 64.351562 -83.65625 66.1875 -85.5 C 68.03125 -87.34375 68.953125 -91.019531 68.953125 -96.53125 L 68.953125 -386.125 C 68.953125 -391.644531 68.03125 -395.320312 66.1875 -397.15625 C 64.351562 -399 60.675781 -399.921875 55.15625 -399.921875 L 34.46875 -399.921875 C 26.195312 -399.921875 20.679688 -401.296875 17.921875 -404.046875 C 15.171875 -406.804688 13.796875 -412.328125 13.796875 -420.609375 L 13.796875 -461.96875 C 13.796875 -470.25 15.171875 -475.765625 17.921875 -478.515625 C 20.679688 -481.273438 26.195312 -482.65625 34.46875 -482.65625 L 206.859375 -482.65625 C 215.128906 -482.65625 220.644531 -481.273438 223.40625 -478.515625 C 226.164062 -475.765625 227.546875 -470.25 227.546875 -461.96875 L 227.546875 -420.609375 C 227.546875 -412.328125 226.164062 -406.804688 223.40625 -404.046875 C 220.644531 -401.296875 215.128906 -399.921875 206.859375 -399.921875 L 186.171875 -399.921875 C 180.648438 -399.921875 176.96875 -399 175.125 -397.15625 C 173.289062 -395.320312 172.375 -391.644531 172.375 -386.125 L 172.375 -96.53125 C 172.375 -91.019531 173.289062 -87.34375 175.125 -85.5 C 176.96875 -83.65625 180.648438 -82.734375 186.171875 -82.734375 L 206.859375 -82.734375 C 215.128906 -82.734375 220.644531 -81.351562 223.40625 -78.59375 C 226.164062 -75.84375 227.546875 -70.332031 227.546875 -62.0625 L 227.546875 -20.6875 C 227.546875 -12.414062 226.164062 -6.898438 223.40625 -4.140625 C 220.644531 -1.378906 215.128906 0 206.859375 0 Z M 34.46875 0 "/></g></g></g><g fill="#ffffff" fill-opacity="1"><g transform="translate(5858.654832, 1543.279635)"><g/></g></g><g fill="#ffffff" fill-opacity="1"><g transform="translate(5982.767466, 1543.279635)"><g><path d="M 89.640625 6.890625 C 74.003906 6.890625 60.898438 1.601562 50.328125 -8.96875 C 39.753906 -19.539062 34.46875 -32.640625 34.46875 -48.265625 C 34.46875 -63.890625 39.753906 -76.988281 50.328125 -87.5625 C 60.898438 -98.132812 74.003906 -103.421875 89.640625 -103.421875 C 105.265625 -103.421875 118.363281 -98.132812 128.9375 -87.5625 C 139.507812 -76.988281 144.796875 -63.890625 144.796875 -48.265625 C 144.796875 -32.640625 139.507812 -19.539062 128.9375 -8.96875 C 118.363281 1.601562 105.265625 6.890625 89.640625 6.890625 Z M 68.953125 -144.796875 C 60.679688 -144.796875 55.164062 -146.175781 52.40625 -148.9375 C 49.644531 -151.695312 48.035156 -157.210938 47.578125 -165.484375 L 35.171875 -461.96875 C 34.703125 -470.25 35.847656 -475.765625 38.609375 -478.515625 C 41.367188 -481.273438 46.882812 -482.65625 55.15625 -482.65625 L 124.109375 -482.65625 C 132.390625 -482.65625 137.90625 -481.273438 140.65625 -478.515625 C 143.414062 -475.765625 144.566406 -470.25 144.109375 -461.96875 L 131.703125 -165.484375 C 131.242188 -157.210938 129.632812 -151.695312 126.875 -148.9375 C 124.113281 -146.175781 118.597656 -144.796875 110.328125 -144.796875 Z M 68.953125 -144.796875 "/></g></g></g><g clip-path="url(#9e65bcd275)"><path fill="#7bc9a3" d="M 2650.554688 1295.492188 C 2650.554688 1304.429688 2650.332031 1313.367188 2649.894531 1322.292969 C 2649.457031 1331.222656 2648.800781 1340.136719 2647.921875 1349.03125 C 2647.046875 1357.929688 2645.953125 1366.796875 2644.640625 1375.640625 C 2643.328125 1384.484375 2641.800781 1393.289062 2640.058594 1402.058594 C 2638.3125 1410.824219 2636.355469 1419.546875 2634.183594 1428.214844 C 2632.011719 1436.886719 2629.628906 1445.5 2627.03125 1454.054688 C 2624.4375 1462.609375 2621.632812 1471.097656 2618.621094 1479.515625 C 2615.609375 1487.929688 2612.394531 1496.269531 2608.972656 1504.527344 C 2605.550781 1512.785156 2601.929688 1520.957031 2598.109375 1529.039062 C 2594.285156 1537.121094 2590.269531 1545.101562 2586.054688 1552.988281 C 2581.839844 1560.871094 2577.433594 1568.648438 2572.839844 1576.3125 C 2568.242188 1583.980469 2563.460938 1591.53125 2558.496094 1598.964844 C 2553.527344 1606.398438 2548.382812 1613.703125 2543.058594 1620.886719 C 2537.730469 1628.066406 2532.234375 1635.109375 2526.5625 1642.023438 C 2520.890625 1648.933594 2515.054688 1655.699219 2509.050781 1662.324219 C 2503.046875 1668.945312 2496.886719 1675.417969 2490.5625 1681.742188 C 2484.242188 1688.0625 2477.769531 1694.222656 2471.144531 1700.226562 C 2464.523438 1706.230469 2457.753906 1712.066406 2450.84375 1717.738281 C 2443.933594 1723.410156 2436.890625 1728.910156 2429.707031 1734.234375 C 2422.527344 1739.558594 2415.222656 1744.707031 2407.789062 1749.671875 C 2400.355469 1754.636719 2392.804688 1759.417969 2385.136719 1764.015625 C 2377.46875 1768.613281 2369.695312 1773.015625 2361.808594 1777.230469 C 2353.925781 1781.445312 2345.941406 1785.464844 2337.863281 1789.285156 C 2329.78125 1793.105469 2321.609375 1796.730469 2313.351562 1800.148438 C 2305.09375 1803.570312 2296.753906 1806.789062 2288.335938 1809.800781 C 2279.921875 1812.808594 2271.433594 1815.613281 2262.878906 1818.207031 C 2254.324219 1820.804688 2245.710938 1823.1875 2237.039062 1825.359375 C 2228.367188 1827.53125 2219.648438 1829.488281 2210.878906 1831.234375 C 2202.113281 1832.976562 2193.308594 1834.507812 2184.464844 1835.816406 C 2175.621094 1837.128906 2166.753906 1838.222656 2157.855469 1839.097656 C 2148.960938 1839.976562 2140.046875 1840.632812 2131.117188 1841.070312 C 2122.1875 1841.511719 2113.253906 1841.730469 2104.316406 1841.730469 C 2095.375 1841.730469 2086.441406 1841.511719 2077.511719 1841.070312 C 2068.582031 1840.632812 2059.671875 1839.976562 2050.773438 1839.097656 C 2041.878906 1838.222656 2033.007812 1837.128906 2024.164062 1835.816406 C 2015.324219 1834.507812 2006.515625 1832.976562 1997.75 1831.234375 C 1988.980469 1829.488281 1980.261719 1827.53125 1971.589844 1825.359375 C 1962.917969 1823.1875 1954.304688 1820.804688 1945.75 1818.207031 C 1937.195312 1815.613281 1928.710938 1812.808594 1920.292969 1809.796875 C 1911.875 1806.789062 1903.539062 1803.570312 1895.277344 1800.148438 C 1887.019531 1796.730469 1878.847656 1793.105469 1870.769531 1789.285156 C 1862.6875 1785.464844 1854.703125 1781.445312 1846.820312 1777.230469 C 1838.9375 1773.015625 1831.160156 1768.613281 1823.492188 1764.015625 C 1815.824219 1759.417969 1808.273438 1754.636719 1800.839844 1749.671875 C 1793.410156 1744.707031 1786.101562 1739.558594 1778.921875 1734.234375 C 1771.742188 1728.910156 1764.695312 1723.410156 1757.785156 1717.738281 C 1750.875 1712.066406 1744.109375 1706.230469 1737.484375 1700.226562 C 1730.859375 1694.222656 1724.386719 1688.0625 1718.066406 1681.742188 C 1711.746094 1675.417969 1705.582031 1668.945312 1699.578125 1662.324219 C 1693.574219 1655.699219 1687.738281 1648.933594 1682.066406 1642.023438 C 1676.394531 1635.109375 1670.898438 1628.066406 1665.574219 1620.886719 C 1660.246094 1613.703125 1655.101562 1606.398438 1650.132812 1598.964844 C 1645.167969 1591.53125 1640.386719 1583.980469 1635.792969 1576.3125 C 1631.195312 1568.648438 1626.789062 1560.871094 1622.574219 1552.988281 C 1618.363281 1545.101562 1614.34375 1537.121094 1610.523438 1529.039062 C 1606.699219 1520.957031 1603.078125 1512.785156 1599.65625 1504.527344 C 1596.234375 1496.269531 1593.019531 1487.929688 1590.007812 1479.515625 C 1586.996094 1471.097656 1584.191406 1462.609375 1581.597656 1454.054688 C 1579.003906 1445.5 1576.621094 1436.886719 1574.445312 1428.214844 C 1572.273438 1419.546875 1570.316406 1410.824219 1568.574219 1402.058594 C 1566.828125 1393.289062 1565.300781 1384.484375 1563.988281 1375.640625 C 1562.675781 1366.796875 1561.582031 1357.929688 1560.707031 1349.03125 C 1559.832031 1340.136719 1559.171875 1331.222656 1558.734375 1322.292969 C 1558.296875 1313.367188 1558.078125 1304.429688 1558.078125 1295.492188 C 1558.078125 1286.550781 1558.296875 1277.617188 1558.734375 1268.6875 C 1559.171875 1259.761719 1559.832031 1250.847656 1560.707031 1241.949219 C 1561.582031 1233.054688 1562.675781 1224.183594 1563.988281 1215.34375 C 1565.300781 1206.5 1566.828125 1197.695312 1568.574219 1188.925781 C 1570.316406 1180.160156 1572.273438 1171.4375 1574.445312 1162.765625 C 1576.621094 1154.09375 1579.003906 1145.480469 1581.597656 1136.925781 C 1584.191406 1128.371094 1586.996094 1119.886719 1590.007812 1111.46875 C 1593.019531 1103.050781 1596.234375 1094.714844 1599.65625 1086.457031 C 1603.078125 1078.195312 1606.699219 1070.027344 1610.523438 1061.945312 C 1614.34375 1053.863281 1618.363281 1045.882812 1622.574219 1037.996094 C 1626.789062 1030.113281 1631.195312 1022.335938 1635.792969 1014.667969 C 1640.386719 1007 1645.167969 999.449219 1650.132812 992.019531 C 1655.101562 984.585938 1660.246094 977.277344 1665.574219 970.097656 C 1670.898438 962.917969 1676.394531 955.871094 1682.066406 948.960938 C 1687.738281 942.050781 1693.574219 935.285156 1699.578125 928.660156 C 1705.582031 922.035156 1711.746094 915.5625 1718.066406 909.242188 C 1724.386719 902.921875 1730.859375 896.757812 1737.484375 890.757812 C 1744.109375 884.753906 1750.875 878.914062 1757.785156 873.242188 C 1764.695312 867.574219 1771.742188 862.074219 1778.921875 856.75 C 1786.101562 851.425781 1793.410156 846.277344 1800.839844 841.3125 C 1808.273438 836.34375 1815.824219 831.5625 1823.492188 826.96875 C 1831.160156 822.371094 1838.9375 817.96875 1846.820312 813.753906 C 1854.703125 809.539062 1862.6875 805.519531 1870.769531 801.699219 C 1878.847656 797.875 1887.019531 794.253906 1895.277344 790.832031 C 1903.539062 787.414062 1911.875 784.195312 1920.292969 781.183594 C 1928.710938 778.171875 1937.195312 775.371094 1945.75 772.773438 C 1954.304688 770.179688 1962.917969 767.796875 1971.589844 765.625 C 1980.261719 763.453125 1988.980469 761.492188 1997.75 759.75 C 2006.515625 758.003906 2015.324219 756.476562 2024.164062 755.164062 C 2033.007812 753.855469 2041.878906 752.761719 2050.773438 751.882812 C 2059.671875 751.007812 2068.582031 750.351562 2077.511719 749.910156 C 2086.441406 749.472656 2095.375 749.253906 2104.316406 749.253906 C 2113.253906 749.253906 2122.1875 749.472656 2131.117188 749.910156 C 2140.046875 750.351562 2148.960938 751.007812 2157.855469 751.882812 C 2166.753906 752.761719 2175.621094 753.855469 2184.464844 755.164062 C 2193.308594 756.476562 2202.113281 758.003906 2210.878906 759.75 C 2219.648438 761.492188 2228.367188 763.453125 2237.039062 765.625 C 2245.710938 767.796875 2254.324219 770.179688 2262.878906 772.773438 C 2271.433594 775.371094 2279.921875 778.171875 2288.335938 781.183594 C 2296.753906 784.195312 2305.09375 787.414062 2313.351562 790.832031 C 2321.609375 794.253906 2329.78125 797.875 2337.863281 801.699219 C 2345.941406 805.519531 2353.925781 809.539062 2361.808594 813.753906 C 2369.695312 817.96875 2377.46875 822.371094 2385.136719 826.96875 C 2392.804688 831.5625 2400.355469 836.34375 2407.789062 841.3125 C 2415.222656 846.277344 2422.527344 851.425781 2429.707031 856.75 C 2436.890625 862.074219 2443.933594 867.574219 2450.84375 873.242188 C 2457.753906 878.914062 2464.523438 884.753906 2471.144531 890.757812 C 2477.769531 896.757812 2484.242188 902.921875 2490.5625 909.242188 C 2496.886719 915.5625 2503.046875 922.035156 2509.050781 928.660156 C 2515.054688 935.285156 2520.890625 942.050781 2526.5625 948.960938 C 2532.234375 955.871094 2537.730469 962.917969 2543.058594 970.097656 C 2548.382812 977.277344 2553.527344 984.585938 2558.496094 992.019531 C 2563.460938 999.449219 2568.242188 1007 2572.839844 1014.667969 C 2577.433594 1022.335938 2581.839844 1030.113281 2586.054688 1037.996094 C 2590.269531 1045.882812 2594.285156 1053.863281 2598.109375 1061.945312 C 2601.929688 1070.027344 2605.550781 1078.195312 2608.972656 1086.457031 C 2612.394531 1094.714844 2615.609375 1103.050781 2618.621094 1111.46875 C 2621.632812 1119.886719 2624.4375 1128.371094 2627.03125 1136.925781 C 2629.628906 1145.480469 2632.011719 1154.09375 2634.183594 1162.765625 C 2636.355469 1171.4375 2638.3125 1180.160156 2640.058594 1188.925781 C 2641.800781 1197.695312 2643.328125 1206.5 2644.640625 1215.34375 C 2645.953125 1224.183594 2647.046875 1233.054688 2647.921875 1241.949219 C 2648.800781 1250.847656 2649.457031 1259.761719 2649.894531 1268.6875 C 2650.332031 1277.617188 2650.554688 1286.550781 2650.554688 1295.492188 Z M 2650.554688 1295.492188 " fill-opacity="1" fill-rule="nonzero"/></g><g clip-path="url(#ac999b9c1b)"><path fill="#ffffff" d="M 2707.191406 1350.695312 C 2698.460938 1338.421875 2685.4375 1330.277344 2670.511719 1327.773438 C 2640.527344 1322.773438 2612.058594 1342.402344 2606.039062 1371.78125 L 2605.972656 1372.101562 C 2605.941406 1372.261719 2605.910156 1372.425781 2605.886719 1372.59375 L 2605.773438 1373.171875 C 2589.882812 1454.929688 2549.761719 1528.765625 2489.753906 1586.679688 C 2407.835938 1665.691406 2299.871094 1706.3125 2185.734375 1701.183594 C 2071.785156 1696.042969 1967.925781 1645.71875 1893.304688 1559.484375 C 1759.5 1404.878906 1762.75 1174.566406 1900.863281 1023.746094 C 1976.738281 940.867188 2080.363281 893.503906 2192.652344 890.378906 C 2295.121094 887.496094 2392.785156 921.75 2469.949219 987.328125 L 2407.953125 1045.46875 C 2395.9375 1056.726562 2391.808594 1073.378906 2397.167969 1088.921875 C 2402.558594 1104.527344 2416.152344 1115.113281 2432.660156 1116.566406 L 2647.605469 1135.335938 C 2659.359375 1136.398438 2671.097656 1132.324219 2679.695312 1124.171875 C 2688.253906 1116.074219 2692.941406 1104.699219 2692.5625 1092.953125 L 2685.753906 878.925781 C 2685.210938 862.539062 2675.441406 848.460938 2660.25 842.183594 C 2645.011719 835.886719 2628.097656 838.992188 2616.125 850.246094 L 2552.214844 910.183594 C 2457.289062 825.699219 2335.617188 778.992188 2207.347656 778.226562 C 2069.921875 777.046875 1939.628906 829.289062 1840.800781 924.625 C 1736.503906 1025.234375 1680.390625 1160.148438 1682.792969 1304.535156 C 1685.191406 1448.867188 1746.027344 1582.050781 1854.085938 1679.558594 C 1949.675781 1765.8125 2074.164062 1813.304688 2204.609375 1813.300781 C 2326.324219 1813.292969 2444.402344 1771.183594 2537.101562 1694.722656 C 2630.960938 1617.285156 2692.808594 1513.984375 2716.082031 1395.796875 L 2716.851562 1391.808594 C 2716.851562 1391.792969 2716.855469 1391.769531 2716.863281 1391.746094 L 2717.015625 1390.675781 C 2718.988281 1376.546875 2715.527344 1362.410156 2707.191406 1350.695312 Z M 2707.191406 1350.695312 " fill-opacity="1" fill-rule="nonzero"/></g><path fill="#ffffff" d="M 2427.273438 1273.371094 C 2426.570312 1271.03125 2425.617188 1268.746094 2424.675781 1266.445312 C 2423.640625 1263.917969 2422.609375 1261.449219 2421.316406 1259.035156 C 2420.890625 1258.226562 2420.667969 1257.390625 2420.210938 1256.601562 C 2419.433594 1255.265625 2418.386719 1254.1875 2417.535156 1252.90625 C 2416.023438 1250.640625 2414.492188 1248.421875 2412.742188 1246.304688 C 2411.050781 1244.257812 2409.238281 1242.375 2407.363281 1240.527344 C 2405.667969 1238.863281 2403.96875 1237.230469 2402.109375 1235.699219 C 2399.769531 1233.777344 2397.335938 1232.113281 2394.808594 1230.488281 C 2393.644531 1229.738281 2392.6875 1228.804688 2391.472656 1228.113281 L 2149.992188 1089.828125 C 2148.71875 1089.09375 2147.359375 1088.730469 2146.058594 1088.074219 C 2143.476562 1086.773438 2140.878906 1085.546875 2138.132812 1084.523438 C 2135.808594 1083.660156 2133.46875 1082.992188 2131.105469 1082.367188 C 2128.597656 1081.6875 2126.113281 1081.082031 2123.511719 1080.664062 C 2120.761719 1080.207031 2118.050781 1080.007812 2115.289062 1079.835938 C 2113.761719 1079.742188 2112.28125 1079.378906 2110.734375 1079.378906 C 2109.808594 1079.378906 2108.964844 1079.617188 2108.058594 1079.660156 C 2105.347656 1079.753906 2102.679688 1080.101562 2100.003906 1080.46875 C 2097.480469 1080.8125 2094.96875 1081.125 2092.523438 1081.714844 C 2090.199219 1082.261719 2087.96875 1083.050781 2085.695312 1083.816406 C 2083.136719 1084.679688 2080.574219 1085.496094 2078.136719 1086.609375 C 2076 1087.578125 2074.003906 1088.78125 2071.960938 1089.9375 C 2069.636719 1091.253906 2067.3125 1092.535156 2065.148438 1094.070312 C 2063.214844 1095.441406 2061.425781 1097.035156 2059.617188 1098.601562 C 2057.589844 1100.355469 2055.558594 1102.074219 2053.71875 1104.015625 C 2052.171875 1105.640625 2050.785156 1107.449219 2049.390625 1109.226562 C 2047.546875 1111.527344 2045.773438 1113.851562 2044.210938 1116.359375 C 2043.785156 1117.054688 2043.195312 1117.601562 2042.792969 1118.320312 C 2042.089844 1119.527344 2041.722656 1120.847656 2041.078125 1122.074219 C 2039.730469 1124.707031 2038.460938 1127.339844 2037.425781 1130.140625 C 2036.578125 1132.40625 2035.917969 1134.671875 2035.289062 1136.984375 C 2034.605469 1139.511719 2033.976562 1142.019531 2033.5625 1144.613281 C 2033.117188 1147.324219 2032.894531 1150.007812 2032.730469 1152.734375 C 2032.636719 1154.25 2032.269531 1155.699219 2032.269531 1157.253906 L 2032.269531 1433.828125 C 2032.269531 1435.382812 2032.636719 1436.832031 2032.730469 1438.347656 C 2032.894531 1441.066406 2033.097656 1443.757812 2033.5625 1446.46875 C 2033.984375 1449.085938 2034.617188 1451.585938 2035.289062 1454.097656 C 2035.917969 1456.398438 2036.582031 1458.664062 2037.425781 1460.941406 C 2038.484375 1463.734375 2039.730469 1466.375 2041.078125 1469.007812 C 2041.707031 1470.25 2042.078125 1471.554688 2042.792969 1472.761719 C 2043.21875 1473.472656 2043.792969 1474.023438 2044.210938 1474.722656 C 2045.773438 1477.226562 2047.546875 1479.546875 2049.390625 1481.851562 C 2050.808594 1483.640625 2052.171875 1485.4375 2053.71875 1487.0625 C 2055.5625 1489 2057.597656 1490.742188 2059.617188 1492.472656 C 2061.441406 1494.027344 2063.214844 1495.640625 2065.148438 1497.007812 C 2067.308594 1498.539062 2069.625 1499.820312 2071.960938 1501.140625 C 2074.003906 1502.292969 2076 1503.5 2078.136719 1504.46875 C 2080.570312 1505.578125 2083.128906 1506.40625 2085.695312 1507.261719 C 2087.964844 1508.03125 2090.195312 1508.8125 2092.523438 1509.367188 C 2094.972656 1509.953125 2097.480469 1510.269531 2100.003906 1510.609375 C 2102.695312 1510.972656 2105.347656 1511.324219 2108.058594 1511.417969 C 2108.964844 1511.453125 2109.808594 1511.695312 2110.734375 1511.695312 C 2112.296875 1511.695312 2113.757812 1511.332031 2115.289062 1511.242188 C 2118.035156 1511.089844 2120.761719 1510.878906 2123.511719 1510.417969 C 2126.109375 1510 2128.597656 1509.378906 2131.105469 1508.714844 C 2133.464844 1508.074219 2135.804688 1507.417969 2138.132812 1506.558594 C 2140.878906 1505.535156 2143.476562 1504.328125 2146.058594 1503.007812 C 2147.351562 1502.351562 2148.714844 1501.984375 2149.992188 1501.253906 L 2391.460938 1362.953125 C 2392.683594 1362.257812 2393.632812 1361.328125 2394.800781 1360.578125 C 2397.304688 1358.96875 2399.753906 1357.28125 2402.101562 1355.367188 C 2403.960938 1353.851562 2405.660156 1352.222656 2407.351562 1350.539062 C 2409.230469 1348.691406 2411.039062 1346.808594 2412.734375 1344.761719 C 2414.480469 1342.640625 2416.019531 1340.425781 2417.523438 1338.160156 C 2418.371094 1336.875 2419.421875 1335.820312 2420.199219 1334.464844 C 2420.660156 1333.675781 2420.882812 1332.839844 2421.304688 1332.03125 C 2422.601562 1329.617188 2423.644531 1327.148438 2424.664062 1324.621094 C 2425.609375 1322.347656 2426.570312 1320.078125 2427.273438 1317.757812 C 2427.992188 1315.398438 2428.4375 1312.980469 2428.914062 1310.570312 C 2429.410156 1308.042969 2429.945312 1305.535156 2430.207031 1303 C 2430.445312 1300.53125 2430.390625 1298.058594 2430.40625 1295.570312 C 2430.40625 1293.082031 2430.445312 1290.613281 2430.207031 1288.140625 C 2429.96875 1285.59375 2429.429688 1283.089844 2428.914062 1280.570312 C 2428.429688 1278.148438 2427.984375 1275.730469 2427.273438 1273.371094 Z M 2427.273438 1273.371094 " fill-opacity="1" fill-rule="nonzero"/></svg>