<svg xmlns="http://www.w3.org/2000/svg" xmlns:xlink="http://www.w3.org/1999/xlink" width="11520" zoomAndPan="magnify" viewBox="0 0 8640 2592.000001" height="3456" preserveAspectRatio="xMidYMid meet" version="1.0"><defs><g/><clipPath id="ba1c0b1090"><path d="M 1424.769531 601.496094 L 7215.535156 601.496094 L 7215.535156 1989.757812 L 1424.769531 1989.757812 Z M 1424.769531 601.496094 " clip-rule="nonzero"/></clipPath><clipPath id="51909eef95"><path d="M 1558.078125 749.253906 L 2650.40625 749.253906 L 2650.40625 1841.582031 L 1558.078125 1841.582031 Z M 1558.078125 749.253906 " clip-rule="nonzero"/></clipPath><clipPath id="f896912f3c"><path d="M 1682 778 L 2718 778 L 2718 1813.402344 L 1682 1813.402344 Z M 1682 778 " clip-rule="nonzero"/></clipPath></defs><g clip-path="url(#ba1c0b1090)"><path fill="#7bc9a3" d="M 7215.535156 1295.625 C 7215.535156 1678.984375 6904.804688 1989.757812 6521.496094 1989.757812 L 2118.804688 1989.757812 C 1735.507812 1989.757812 1424.769531 1678.984375 1424.769531 1295.625 C 1424.769531 912.265625 1735.507812 601.496094 2118.804688 601.496094 L 6521.496094 601.496094 C 6904.804688 601.496094 7215.535156 912.265625 7215.535156 1295.625 Z M 7215.535156 1295.625 " fill-opacity="1" fill-rule="evenodd"/></g><path fill="#ffffff" d="M 2643.976562 1295.625 C 2643.976562 1005.546875 2408.847656 770.386719 2118.808594 770.386719 C 1828.765625 770.386719 1593.640625 1005.546875 1593.640625 1295.625 C 1593.640625 1585.707031 1828.765625 1820.863281 2118.808594 1820.863281 C 2408.847656 1820.863281 2643.976562 1585.707031 2643.976562 1295.625 Z M 2643.976562 1295.625 " fill-opacity="1" fill-rule="evenodd"/><path fill="#47ab7b" d="M 1933.421875 1220.414062 C 1940.9375 1220.617188 1948.359375 1222.964844 1954.855469 1227.632812 C 1972.203125 1240.058594 1976.195312 1264.214844 1963.761719 1281.566406 L 1939.730469 1315.207031 L 1935.925781 1320.523438 L 1915.605469 1348.761719 C 1872.460938 1409.007812 1886.378906 1492.8125 1946.597656 1535.953125 C 2006.90625 1579.097656 2090.691406 1565.234375 2133.839844 1504.996094 L 2157.960938 1471.441406 L 2158.148438 1471.628906 L 2182.273438 1437.988281 C 2194.707031 1420.625 2218.921875 1416.636719 2236.273438 1429.070312 C 2253.625 1441.496094 2257.613281 1465.652344 2245.179688 1483.003906 L 2217.25 1521.960938 L 2215.117188 1524.390625 L 2194.335938 1553.410156 C 2126.320312 1648.359375 1994.101562 1670.207031 1899.183594 1602.203125 C 1804.171875 1534.199219 1782.273438 1402.09375 1850.378906 1307.140625 L 1873.015625 1275.5 L 1876.820312 1270.191406 L 1900.945312 1236.550781 C 1908.648438 1225.703125 1921.082031 1220.070312 1933.421875 1220.414062 Z M 2203.242188 1138.046875 C 2211.222656 1138.257812 2219.199219 1140.78125 2226.160156 1145.765625 C 2244.71875 1159.0625 2248.984375 1184.898438 2235.714844 1203.46875 L 2069.167969 1435.945312 C 2055.898438 1454.515625 2030.011719 1458.785156 2011.453125 1445.484375 C 1992.894531 1432.1875 1988.628906 1406.351562 2001.894531 1387.785156 L 2168.445312 1155.304688 C 2176.796875 1143.707031 2189.972656 1137.683594 2203.242188 1138.046875 Z M 2221.242188 949.5625 C 2261.976562 950.6875 2302.800781 963.546875 2338.429688 989.046875 C 2433.441406 1057.050781 2455.339844 1189.160156 2387.234375 1284.109375 L 2367.195312 1312.136719 L 2365.617188 1314.945312 L 2337.6875 1353.894531 C 2325.253906 1371.257812 2301.039062 1375.246094 2283.6875 1362.820312 C 2266.335938 1350.386719 2262.347656 1326.242188 2274.777344 1308.878906 L 2293.335938 1282.96875 L 2293.058594 1282.78125 L 2322.007812 1242.488281 C 2365.152344 1182.246094 2351.234375 1098.4375 2291.015625 1055.296875 C 2230.707031 1012.15625 2146.921875 1026.019531 2103.773438 1086.253906 L 2084.199219 1113.507812 L 2074.824219 1126.546875 L 2056.269531 1152.457031 C 2043.835938 1169.820312 2019.710938 1173.808594 2002.359375 1161.375 C 1985.007812 1148.949219 1981.019531 1124.804688 1993.453125 1107.441406 L 2012.011719 1081.53125 L 2021.289062 1068.492188 L 2043.277344 1037.84375 C 2085.773438 978.496094 2153.324219 947.707031 2221.242188 949.5625 Z M 2221.242188 949.5625 " fill-opacity="1" fill-rule="evenodd"/><path stroke-linecap="butt" transform="matrix(0.749711, 0, 0, 0.749711, 2885.051374, 813.061385)" fill="none" stroke-linejoin="miter" d="M 139.902128 974.002154 C 128.824938 974.002154 121.118841 972.204586 116.773415 968.609449 C 112.5843 964.868423 109.515408 957.459315 107.57195 946.382126 L 15.734445 357.868681 C 13.785777 346.791492 14.312021 339.455329 17.302758 335.860192 C 20.449805 332.119166 27.556713 330.248653 38.633902 330.248653 L 135.186767 330.248653 C 146.263956 330.248653 153.751219 332.119166 157.643345 335.860192 C 161.681361 339.455329 164.302164 346.791492 165.500542 357.868681 L 204.119604 679.628199 L 213.32628 679.628199 L 251.945342 357.868681 C 253.143721 346.791492 255.764523 339.455329 259.80775 335.860192 C 263.850976 332.119166 271.333028 330.248653 282.259117 330.248653 L 351.415999 330.248653 C 362.347299 330.248653 369.308317 332.119166 372.299054 335.860192 C 375.446101 339.455329 376.118235 346.791492 374.320667 357.868681 L 282.259117 946.382126 C 280.466759 957.459315 277.397867 964.868423 273.052441 968.609449 C 268.863326 972.204586 261.230173 974.002154 250.152984 974.002154 Z M 596.995093 983.20362 C 543.557816 983.20362 501.791707 968.536504 471.701976 939.197063 C 441.763346 909.706522 426.79403 870.712316 426.79403 822.214444 L 426.79403 482.036364 C 426.79403 433.533281 441.763346 394.61723 471.701976 365.277789 C 501.791707 335.787248 543.557816 321.041977 596.995093 321.041977 C 650.28648 321.041977 691.901489 335.787248 721.84012 365.277789 C 751.92985 394.61723 766.97211 433.533281 766.97211 482.036364 L 766.97211 822.214444 C 766.97211 870.712316 751.92985 909.706522 721.84012 939.197063 C 691.901489 968.536504 650.28648 983.20362 596.995093 983.20362 Z M 596.995093 872.733929 C 606.128824 872.733929 613.761976 869.737981 619.89976 863.751297 C 626.037544 857.613513 629.106436 849.907416 629.106436 840.622585 L 629.106436 463.623012 C 629.106436 454.343391 626.037544 446.632083 619.89976 440.494299 C 613.761976 434.356515 606.128824 431.292834 596.995093 431.292834 C 587.715472 431.292834 580.004164 434.356515 573.871591 440.494299 C 567.733807 446.632083 564.664915 454.343391 564.664915 463.623012 L 564.664915 840.622585 C 564.664915 849.907416 567.733807 857.613513 573.871591 863.751297 C 580.004164 869.737981 587.715472 872.733929 596.995093 872.733929 Z M 849.873877 974.002154 C 838.796688 974.002154 831.38237 972.204586 827.641343 968.609449 C 824.051417 964.868423 822.253849 957.459315 822.253849 946.382126 L 822.253849 891.147281 C 822.253849 880.215981 824.051417 872.885029 827.641343 869.138792 C 831.38237 865.397766 838.796688 863.527253 849.873877 863.527253 L 877.488694 863.527253 C 884.824857 863.527253 889.691317 862.328874 892.082865 859.932116 C 894.630723 857.540569 895.902046 852.674108 895.902046 845.337945 L 895.902046 458.907651 C 895.902046 451.571488 894.630723 446.710238 892.082865 444.313481 C 889.691317 441.770833 884.824857 440.494299 877.488694 440.494299 L 849.873877 440.494299 C 838.796688 440.494299 831.38237 438.701941 827.641343 435.106805 C 824.051417 431.365778 822.253849 423.956671 822.253849 412.879482 L 822.253849 357.868681 C 822.253849 346.791492 824.051417 339.455329 827.641343 335.860192 C 831.38237 332.119166 838.796688 330.248653 849.873877 330.248653 L 1079.8011 330.248653 C 1090.878289 330.248653 1098.209242 332.119166 1101.804378 335.860192 C 1105.545405 339.455329 1107.415918 346.791492 1107.415918 357.868681 L 1107.415918 412.879482 C 1107.415918 423.956671 1105.545405 431.365778 1101.804378 435.106805 C 1098.209242 438.701941 1090.878289 440.494299 1079.8011 440.494299 L 1052.181072 440.494299 C 1044.844909 440.494299 1039.905504 441.770833 1037.362857 444.313481 C 1034.966099 446.710238 1033.76772 451.571488 1033.76772 458.907651 L 1033.76772 845.337945 C 1033.76772 852.674108 1034.966099 857.540569 1037.362857 859.932116 C 1039.905504 862.328874 1044.844909 863.527253 1052.181072 863.527253 L 1079.8011 863.527253 C 1090.878289 863.527253 1098.209242 865.397766 1101.804378 869.138792 C 1105.545405 872.885029 1107.415918 880.215981 1107.415918 891.147281 L 1107.415918 946.382126 C 1107.415918 957.459315 1105.545405 964.868423 1101.804378 968.609449 C 1098.209242 972.204586 1090.878289 974.002154 1079.8011 974.002154 Z M 1456.930932 978.488259 C 1416.967602 978.488259 1388.52434 970.110028 1371.606356 953.343144 C 1354.844683 936.425161 1346.461241 908.060054 1346.461241 868.242613 L 1346.461241 753.276396 C 1346.461241 744.147875 1344.887718 736.514723 1341.745881 730.376939 C 1338.749934 724.239155 1332.690305 721.170263 1323.556574 721.170263 L 1314.349898 721.170263 C 1308.811303 721.170263 1305.070277 722.066442 1303.126819 723.86401 C 1301.329251 725.661579 1300.427861 729.32966 1300.427861 734.868255 L 1300.427861 946.382126 C 1300.427861 957.459315 1298.557348 964.868423 1294.816322 968.609449 C 1291.221186 972.204586 1283.890233 974.002154 1272.813044 974.002154 L 1190.182215 974.002154 C 1179.105026 974.002154 1171.695919 972.204586 1167.949682 968.609449 C 1164.359756 964.868423 1162.562187 957.459315 1162.562187 946.382126 L 1162.562187 357.868681 C 1162.562187 346.791492 1164.359756 339.455329 1167.949682 335.860192 C 1171.695919 332.119166 1179.105026 330.248653 1190.182215 330.248653 L 1323.556574 330.248653 C 1376.847961 330.248653 1418.46297 344.993924 1448.401601 374.484465 C 1478.491331 403.823906 1493.533591 442.739957 1493.533591 491.24304 L 1493.533591 560.175877 C 1493.533591 581.579965 1490.1625 598.721994 1483.430736 611.596751 C 1476.693763 624.466298 1469.3576 634.574363 1461.422248 641.905316 C 1451.694538 650.590958 1440.992493 657.025731 1429.316115 661.220057 L 1429.316115 670.421523 C 1439.643014 674.766949 1448.84969 681.201722 1456.930932 689.736264 C 1463.667906 697.067217 1469.883845 707.399327 1475.568329 720.722173 C 1481.409123 733.89392 1484.326915 750.884849 1484.326915 771.689748 L 1484.326915 845.337945 C 1484.326915 855.670056 1486.197429 861.953729 1489.938455 864.199387 C 1493.684691 866.293945 1497.800862 867.794524 1502.292178 868.690703 C 1506.929383 869.592092 1511.196654 871.160405 1515.08878 873.406063 C 1519.132006 875.500621 1521.153619 881.41436 1521.153619 891.147281 L 1521.153619 955.588802 C 1521.153619 964.868423 1519.580096 971.006207 1516.438259 974.002154 C 1513.442312 976.992891 1507.377473 978.488259 1498.248952 978.488259 Z M 1323.556574 610.695362 C 1332.690305 610.695362 1340.323457 607.62647 1346.461241 601.488686 C 1352.599025 595.350902 1355.667917 587.717749 1355.667917 578.589228 L 1355.667917 472.829688 C 1355.667917 463.550067 1352.599025 455.838759 1346.461241 449.700975 C 1340.323457 443.563191 1332.690305 440.494299 1323.556574 440.494299 L 1314.349898 440.494299 C 1308.811303 440.494299 1305.070277 441.468633 1303.126819 443.417302 C 1301.329251 445.20966 1300.427861 448.877741 1300.427861 454.416336 L 1300.427861 596.99737 C 1300.427861 602.535965 1301.329251 606.204046 1303.126819 608.001614 C 1305.070277 609.799183 1308.811303 610.695362 1314.349898 610.695362 Z M 1833.826299 974.002154 C 1822.894999 974.002154 1815.564047 972.204586 1811.81781 968.609449 C 1808.227884 964.868423 1806.430316 957.459315 1806.430316 946.382126 L 1806.430316 458.907651 C 1806.430316 451.571488 1805.158992 446.710238 1802.616345 444.313481 C 1800.219587 441.770833 1795.353127 440.494299 1788.016964 440.494299 L 1732.782118 440.494299 C 1721.704929 440.494299 1714.295822 438.701941 1710.554795 435.106805 C 1706.959659 431.365778 1705.16209 423.956671 1705.16209 412.879482 L 1705.16209 357.868681 C 1705.16209 346.791492 1706.959659 339.455329 1710.554795 335.860192 C 1714.295822 332.119166 1721.704929 330.248653 1732.782118 330.248653 L 2017.944187 330.248653 C 2028.875487 330.248653 2036.133494 332.119166 2039.728631 335.860192 C 2043.469657 339.455329 2045.34017 346.791492 2045.34017 357.868681 L 2045.34017 412.879482 C 2045.34017 423.956671 2043.469657 431.365778 2039.728631 435.106805 C 2036.133494 438.701941 2028.875487 440.494299 2017.944187 440.494299 L 1962.709342 440.494299 C 1955.373179 440.494299 1950.433774 441.770833 1947.891126 444.313481 C 1945.494369 446.710238 1944.29599 451.571488 1944.29599 458.907651 L 1944.29599 946.382126 C 1944.29599 957.459315 1942.425477 964.868423 1938.68445 968.609449 C 1935.089314 972.204586 1927.758361 974.002154 1916.681172 974.002154 Z M 2119.087364 974.002154 C 2108.010175 974.002154 2100.601068 972.204586 2096.854831 968.609449 C 2093.264905 964.868423 2091.467336 957.459315 2091.467336 946.382126 L 2091.467336 357.868681 C 2091.467336 346.791492 2093.264905 339.455329 2096.854831 335.860192 C 2100.601068 332.119166 2108.010175 330.248653 2119.087364 330.248653 L 2358.221264 330.248653 C 2369.147353 330.248653 2376.483516 332.119166 2380.224542 335.860192 C 2383.965568 339.455329 2385.836081 346.791492 2385.836081 357.868681 L 2385.836081 412.879482 C 2385.836081 423.956671 2383.965568 431.365778 2380.224542 435.106805 C 2376.483516 438.701941 2369.147353 440.494299 2358.221264 440.494299 L 2247.746362 440.494299 C 2240.4102 440.494299 2235.470794 441.770833 2232.928147 444.313481 C 2230.531389 446.710238 2229.333011 451.571488 2229.333011 458.907651 L 2229.333011 569.382553 C 2229.333011 576.718715 2230.531389 581.65812 2232.928147 584.200768 C 2235.470794 586.597526 2240.4102 587.795904 2247.746362 587.795904 L 2312.187884 587.795904 C 2323.265073 587.795904 2330.601236 589.666418 2334.196372 593.407444 C 2337.937399 596.99737 2339.807912 604.333533 2339.807912 615.410722 L 2339.807912 670.421523 C 2339.807912 681.498712 2337.937399 688.91303 2334.196372 692.654056 C 2330.601236 696.243982 2323.265073 698.041551 2312.187884 698.041551 L 2247.746362 698.041551 C 2240.4102 698.041551 2235.470794 699.312874 2232.928147 701.860732 C 2230.531389 704.252279 2229.333011 709.11874 2229.333011 716.454903 L 2229.333011 845.337945 C 2229.333011 852.674108 2230.531389 857.540569 2232.928147 859.932116 C 2235.470794 862.328874 2240.4102 863.527253 2247.746362 863.527253 L 2358.221264 863.527253 C 2369.147353 863.527253 2376.483516 865.397766 2380.224542 869.138792 C 2383.965568 872.885029 2385.836081 880.215981 2385.836081 891.147281 L 2385.836081 946.382126 C 2385.836081 957.459315 2383.965568 964.868423 2380.224542 968.609449 C 2376.483516 972.204586 2369.147353 974.002154 2358.221264 974.002154 Z M 2588.028649 983.20362 C 2535.935641 983.20362 2495.294966 968.984594 2466.106625 940.541332 C 2437.064173 911.95218 2422.548158 874.078197 2422.548158 826.929804 L 2422.548158 799.309776 C 2422.548158 788.232587 2424.340516 780.896424 2427.935652 777.306498 C 2431.676678 773.560261 2439.085786 771.689748 2450.162975 771.689748 L 2505.397821 771.689748 C 2516.32912 771.689748 2523.587128 773.560261 2527.182264 777.306498 C 2530.923291 780.896424 2532.793804 788.232587 2532.793804 799.309776 L 2532.793804 831.415909 C 2532.793804 843.691477 2536.612985 853.648442 2544.246138 861.281595 C 2552.03039 868.914747 2562.0603 872.733929 2574.335868 872.733929 C 2586.606226 872.733929 2596.563191 868.914747 2604.196343 861.281595 C 2611.829496 853.648442 2615.648677 843.691477 2615.648677 831.415909 C 2615.648677 808.813441 2611.006262 788.607732 2601.726641 770.793569 C 2592.59812 752.979407 2581.296886 736.139578 2567.822939 720.268874 C 2554.348993 704.252279 2539.603722 688.45973 2523.587128 672.891225 C 2507.721634 657.176831 2493.049308 639.810758 2479.580571 620.798217 C 2466.106625 601.790886 2454.727236 580.532686 2445.447615 557.03404 C 2436.319094 533.379083 2431.749623 505.310965 2431.749623 472.829688 C 2431.749623 450.675309 2435.568805 430.240344 2443.201957 411.530003 C 2450.835109 392.819661 2461.542364 376.724912 2475.313301 363.256176 C 2489.235337 349.782229 2506.14811 339.377174 2526.05683 332.046221 C 2545.965551 324.710059 2568.198084 321.041977 2592.74401 321.041977 C 2617.295146 321.041977 2639.376579 324.710059 2658.983099 332.046221 C 2678.59483 339.377174 2695.434659 349.782229 2709.507795 363.256176 C 2723.575721 376.724912 2734.428865 392.819661 2742.062017 411.530003 C 2749.70038 430.240344 2753.514351 450.675309 2753.514351 472.829688 L 2753.514351 495.734355 C 2753.514351 506.811544 2751.643838 514.220652 2747.902812 517.961678 C 2744.307675 521.556815 2737.049668 523.349173 2726.123578 523.349173 L 2670.883523 523.349173 C 2659.806334 523.349173 2652.397226 521.556815 2648.6562 517.961678 C 2645.061063 514.220652 2643.268705 506.811544 2643.268705 495.734355 L 2643.268705 468.114327 C 2643.268705 457.787428 2639.751724 449.101786 2632.71255 442.067823 C 2625.678587 434.88276 2616.920001 431.292834 2606.442001 431.292834 C 2595.964002 431.292834 2587.205415 434.88276 2580.171452 442.067823 C 2573.137489 449.101786 2569.620508 457.787428 2569.620508 468.114327 C 2569.620508 491.467084 2574.184768 511.902049 2583.313289 529.414012 C 2592.59812 546.780085 2603.972299 563.468813 2617.446245 579.485407 C 2630.914982 595.350902 2645.587308 611.143451 2661.452802 626.863056 C 2677.469396 642.43156 2692.214667 659.719478 2705.688613 678.73202 C 2719.30845 697.744561 2730.687839 719.221595 2739.81636 743.173541 C 2748.950091 767.125488 2753.514351 795.042505 2753.514351 826.929804 C 2753.514351 874.078197 2738.920181 911.95218 2709.73184 940.541332 C 2680.689388 968.984594 2640.121658 983.20362 2588.028649 983.20362 Z M 3002.006027 974.002154 C 2990.928837 974.002154 2983.51973 972.204586 2979.778704 968.609449 C 2976.183567 964.868423 2974.391209 957.459315 2974.391209 946.382126 L 2974.391209 357.868681 C 2974.391209 346.791492 2976.183567 339.455329 2979.778704 335.860192 C 2983.51973 332.119166 2990.928837 330.248653 3002.006027 330.248653 L 3104.847775 330.248653 C 3115.924965 330.248653 3124.079151 331.968066 3129.320756 335.412103 C 3134.557151 338.70504 3138.678532 345.514958 3141.669269 355.847068 L 3199.603072 629.108714 L 3208.804538 629.108714 L 3267.63452 355.847068 C 3270.781567 345.514958 3274.970683 338.70504 3280.212288 335.412103 C 3285.448682 331.968066 3293.535135 330.248653 3304.461224 330.248653 L 3406.625628 330.248653 C 3417.702817 330.248653 3425.03898 332.119166 3428.628906 335.860192 C 3432.375143 339.455329 3434.245656 346.791492 3434.245656 357.868681 L 3434.245656 946.382126 C 3434.245656 957.459315 3432.375143 964.868423 3428.628906 968.609449 C 3425.03898 972.204586 3417.702817 974.002154 3406.625628 974.002154 L 3323.770755 974.002154 C 3312.844665 974.002154 3305.508503 972.204586 3301.767476 968.609449 C 3298.02124 964.868423 3296.150727 957.459315 3296.150727 946.382126 L 3296.150727 675.136883 L 3286.944051 675.136883 L 3230.135682 948.179694 C 3226.993845 958.657694 3222.804729 965.618712 3217.563124 969.062749 C 3212.32673 972.355686 3204.240277 974.002154 3193.314188 974.002154 L 3187.702649 974.002154 C 3176.62546 974.002154 3168.466063 972.355686 3163.224458 969.062749 C 3158.133953 965.618712 3154.017782 958.657694 3150.875945 948.179694 L 3093.843531 675.136883 L 3084.636855 675.136883 L 3084.636855 946.382126 C 3084.636855 957.459315 3082.766342 964.868423 3079.025316 968.609449 C 3075.430179 972.204586 3068.094016 974.002154 3057.016827 974.002154 Z M 3535.435726 974.002154 C 3524.358537 974.002154 3516.949429 972.204586 3513.208403 968.609449 C 3509.618477 964.868423 3507.820908 957.459315 3507.820908 946.382126 L 3507.820908 357.868681 C 3507.820908 346.791492 3509.618477 339.455329 3513.208403 335.860192 C 3516.949429 332.119166 3524.358537 330.248653 3535.435726 330.248653 L 3774.569625 330.248653 C 3785.500925 330.248653 3792.831877 332.119166 3796.578114 335.860192 C 3800.31914 339.455329 3802.189653 346.791492 3802.189653 357.868681 L 3802.189653 412.879482 C 3802.189653 423.956671 3800.31914 431.365778 3796.578114 435.106805 C 3792.831877 438.701941 3785.500925 440.494299 3774.569625 440.494299 L 3664.099935 440.494299 C 3656.763772 440.494299 3651.824367 441.770833 3649.276509 444.313481 C 3646.884961 446.710238 3645.686583 451.571488 3645.686583 458.907651 L 3645.686583 569.382553 C 3645.686583 576.718715 3646.884961 581.65812 3649.276509 584.200768 C 3651.824367 586.597526 3656.763772 587.795904 3664.099935 587.795904 L 3728.541456 587.795904 C 3739.618645 587.795904 3746.954808 589.666418 3750.544734 593.407444 C 3754.28576 596.99737 3756.161484 604.333533 3756.161484 615.410722 L 3756.161484 670.421523 C 3756.161484 681.498712 3754.28576 688.91303 3750.544734 692.654056 C 3746.954808 696.243982 3739.618645 698.041551 3728.541456 698.041551 L 3664.099935 698.041551 C 3656.763772 698.041551 3651.824367 699.312874 3649.276509 701.860732 C 3646.884961 704.252279 3645.686583 709.11874 3645.686583 716.454903 L 3645.686583 845.337945 C 3645.686583 852.674108 3646.884961 857.540569 3649.276509 859.932116 C 3651.824367 862.328874 3656.763772 863.527253 3664.099935 863.527253 L 3774.569625 863.527253 C 3785.500925 863.527253 3792.831877 865.397766 3796.578114 869.138792 C 3800.31914 872.885029 3802.189653 880.215981 3802.189653 891.147281 L 3802.189653 946.382126 C 3802.189653 957.459315 3800.31914 964.868423 3796.578114 968.609449 C 3792.831877 972.204586 3785.500925 974.002154 3774.569625 974.002154 Z M 3884.924689 974.002154 C 3873.8475 974.002154 3866.438392 972.204586 3862.697366 968.609449 C 3859.10744 964.868423 3857.309871 957.459315 3857.309871 946.382126 L 3857.309871 357.868681 C 3857.309871 346.791492 3859.10744 339.455329 3862.697366 335.860192 C 3866.438392 332.119166 3873.8475 330.248653 3884.924689 330.248653 L 3987.766438 330.248653 C 3998.843627 330.248653 4007.003024 331.968066 4012.239418 335.412103 C 4017.481023 338.70504 4021.597194 345.514958 4024.587931 355.847068 L 4082.521734 629.108714 L 4091.72841 629.108714 L 4150.558392 355.847068 C 4153.700229 345.514958 4157.889345 338.70504 4163.13095 335.412103 C 4168.367345 331.968066 4176.453797 330.248653 4187.379886 330.248653 L 4289.54429 330.248653 C 4300.621479 330.248653 4307.957642 332.119166 4311.552779 335.860192 C 4315.293805 339.455329 4317.164318 346.791492 4317.164318 357.868681 L 4317.164318 946.382126 C 4317.164318 957.459315 4315.293805 964.868423 4311.552779 968.609449 C 4307.957642 972.204586 4300.621479 974.002154 4289.54429 974.002154 L 4206.689417 974.002154 C 4195.763328 974.002154 4188.427165 972.204586 4184.686139 968.609449 C 4180.945112 964.868423 4179.074599 957.459315 4179.074599 946.382126 L 4179.074599 675.136883 L 4169.867923 675.136883 L 4113.059554 948.179694 C 4109.912507 958.657694 4105.723391 965.618712 4100.486997 969.062749 C 4095.245392 972.355686 4087.16415 974.002154 4076.23285 974.002154 L 4070.621311 974.002154 C 4059.544122 974.002154 4051.384725 972.355686 4046.14833 969.062749 C 4041.057825 965.618712 4036.941654 958.657694 4033.794607 948.179694 L 3976.762193 675.136883 L 3967.555517 675.136883 L 3967.555517 946.382126 C 3967.555517 957.459315 3965.685004 964.868423 3961.943978 968.609449 C 3958.348842 972.204586 3951.017889 974.002154 3939.9407 974.002154 Z M 4418.359599 974.002154 C 4407.28241 974.002154 4399.873302 972.204586 4396.127065 968.609449 C 4392.537139 964.868423 4390.739571 957.459315 4390.739571 946.382126 L 4390.739571 357.868681 C 4390.739571 346.791492 4392.537139 339.455329 4396.127065 335.860192 C 4399.873302 332.119166 4407.28241 330.248653 4418.359599 330.248653 L 4657.493498 330.248653 C 4668.419587 330.248653 4675.75575 332.119166 4679.496776 335.860192 C 4683.237803 339.455329 4685.108316 346.791492 4685.108316 357.868681 L 4685.108316 412.879482 C 4685.108316 423.956671 4683.237803 431.365778 4679.496776 435.106805 C 4675.75575 438.701941 4668.419587 440.494299 4657.493498 440.494299 L 4547.018597 440.494299 C 4539.682434 440.494299 4534.743029 441.770833 4532.200381 444.313481 C 4529.803624 446.710238 4528.605245 451.571488 4528.605245 458.907651 L 4528.605245 569.382553 C 4528.605245 576.718715 4529.803624 581.65812 4532.200381 584.200768 C 4534.743029 586.597526 4539.682434 587.795904 4547.018597 587.795904 L 4611.460118 587.795904 C 4622.537307 587.795904 4629.87347 589.666418 4633.463396 593.407444 C 4637.209633 596.99737 4639.080146 604.333533 4639.080146 615.410722 L 4639.080146 670.421523 C 4639.080146 681.498712 4637.209633 688.91303 4633.463396 692.654056 C 4629.87347 696.243982 4622.537307 698.041551 4611.460118 698.041551 L 4547.018597 698.041551 C 4539.682434 698.041551 4534.743029 699.312874 4532.200381 701.860732 C 4529.803624 704.252279 4528.605245 709.11874 4528.605245 716.454903 L 4528.605245 845.337945 C 4528.605245 852.674108 4529.803624 857.540569 4532.200381 859.932116 C 4534.743029 862.328874 4539.682434 863.527253 4547.018597 863.527253 L 4657.493498 863.527253 C 4668.419587 863.527253 4675.75575 865.397766 4679.496776 869.138792 C 4683.237803 872.885029 4685.108316 880.215981 4685.108316 891.147281 L 4685.108316 946.382126 C 4685.108316 957.459315 4683.237803 964.868423 4679.496776 968.609449 C 4675.75575 972.204586 4668.419587 974.002154 4657.493498 974.002154 Z M 4887.300884 983.20362 C 4835.207875 983.20362 4794.5672 968.984594 4765.378859 940.541332 C 4736.336407 911.95218 4721.815182 874.078197 4721.815182 826.929804 L 4721.815182 799.309776 C 4721.815182 788.232587 4723.61275 780.896424 4727.207887 777.306498 C 4730.948913 773.560261 4738.35802 771.689748 4749.43521 771.689748 L 4804.670055 771.689748 C 4815.601354 771.689748 4822.859362 773.560261 4826.454499 777.306498 C 4830.195525 780.896424 4832.066038 788.232587 4832.066038 799.309776 L 4832.066038 831.415909 C 4832.066038 843.691477 4835.88522 853.648442 4843.518372 861.281595 C 4851.302624 868.914747 4861.332534 872.733929 4873.602892 872.733929 C 4885.87846 872.733929 4895.835425 868.914747 4903.468578 861.281595 C 4911.10173 853.648442 4914.920912 843.691477 4914.920912 831.415909 C 4914.920912 808.813441 4910.278496 788.607732 4900.998875 770.793569 C 4891.865144 752.979407 4880.56391 736.139578 4867.095174 720.268874 C 4853.621227 704.252279 4838.875956 688.45973 4822.859362 672.891225 C 4806.993868 657.176831 4792.321542 639.810758 4778.847595 620.798217 C 4765.378859 601.790886 4753.99947 580.532686 4744.719849 557.03404 C 4735.586118 533.379083 4731.021858 505.310965 4731.021858 472.829688 C 4731.021858 450.675309 4734.841039 430.240344 4742.474191 411.530003 C 4750.107344 392.819661 4760.809388 376.724912 4774.585535 363.256176 C 4788.502361 349.782229 4805.420344 339.377174 4825.329065 332.046221 C 4845.237785 324.710059 4867.470318 321.041977 4892.016244 321.041977 C 4916.56738 321.041977 4938.643603 324.710059 4958.255334 332.046221 C 4977.867065 339.377174 4994.706893 349.782229 5008.774819 363.256176 C 5022.847955 376.724912 5033.701099 392.819661 5041.334252 411.530003 C 5048.967404 430.240344 5052.786586 450.675309 5052.786586 472.829688 L 5052.786586 495.734355 C 5052.786586 506.811544 5050.916073 514.220652 5047.175046 517.961678 C 5043.57991 521.556815 5036.321902 523.349173 5025.390602 523.349173 L 4970.155757 523.349173 C 4959.078568 523.349173 4951.66946 521.556815 4947.928434 517.961678 C 4944.333297 514.220652 4942.540939 506.811544 4942.540939 495.734355 L 4942.540939 468.114327 C 4942.540939 457.787428 4939.018748 449.101786 4931.984785 442.067823 C 4924.950822 434.88276 4916.192235 431.292834 4905.714236 431.292834 C 4895.236236 431.292834 4886.477649 434.88276 4879.443686 442.067823 C 4872.409724 449.101786 4868.887532 457.787428 4868.887532 468.114327 C 4868.887532 491.467084 4873.457002 511.902049 4882.585523 529.414012 C 4891.865144 546.780085 4903.244533 563.468813 4916.71848 579.485407 C 4930.187216 595.350902 4944.859542 611.143451 4960.725036 626.863056 C 4976.74163 642.43156 4991.486901 659.719478 5004.960848 678.73202 C 5018.580684 697.744561 5029.960073 719.221595 5039.088594 743.173541 C 5048.222325 767.125488 5052.786586 795.042505 5052.786586 826.929804 C 5052.786586 874.078197 5038.192415 911.95218 5009.004074 940.541332 C 4979.961622 968.984594 4939.393892 983.20362 4887.300884 983.20362 Z M 5356.289062 983.20362 C 5335.484162 983.20362 5318.045145 976.169657 5303.972008 962.101731 C 5289.898872 948.028594 5282.864909 930.516632 5282.864909 909.555422 C 5282.864909 888.750523 5289.898872 871.311505 5303.972008 857.238369 C 5318.045145 843.170443 5335.484162 836.131269 5356.289062 836.131269 C 5377.245061 836.131269 5394.762234 843.170443 5408.83016 857.238369 C 5422.903296 871.311505 5429.937259 888.750523 5429.937259 909.555422 C 5429.937259 930.516632 5422.903296 948.028594 5408.83016 962.101731 C 5394.762234 976.169657 5377.245061 983.20362 5356.289062 983.20362 Z M 5328.898289 780.896424 C 5317.8211 780.896424 5310.406782 779.098856 5306.665756 775.508929 C 5303.075829 771.767903 5300.976061 764.353585 5300.382082 753.276396 L 5283.766298 357.868681 C 5283.167109 346.791492 5284.662477 339.455329 5288.252404 335.860192 C 5291.99864 332.119166 5299.407748 330.248653 5310.484937 330.248653 L 5402.322441 330.248653 C 5413.399631 330.248653 5420.730583 332.119166 5424.32572 335.860192 C 5428.066746 339.455329 5429.64027 346.791492 5429.04108 357.868681 L 5412.425296 753.276396 C 5411.826107 764.353585 5409.653394 771.767903 5405.912368 775.508929 C 5402.322441 779.098856 5394.986279 780.896424 5383.90909 780.896424 Z M 5328.898289 780.896424 " stroke="#47ab7b" stroke-width="148.304688" stroke-opacity="1" stroke-miterlimit="4"/><g fill="#ffffff" fill-opacity="1"><g transform="translate(2885.063088, 1543.279635)"><g><path d="M 104.8125 0 C 96.53125 0 90.78125 -1.378906 87.5625 -4.140625 C 84.34375 -6.898438 82.046875 -12.414062 80.671875 -20.6875 L 11.71875 -461.96875 C 10.34375 -470.25 10.800781 -475.765625 13.09375 -478.515625 C 15.394531 -481.273438 20.679688 -482.65625 28.953125 -482.65625 L 101.359375 -482.65625 C 109.628906 -482.65625 115.257812 -481.273438 118.25 -478.515625 C 121.238281 -475.765625 123.191406 -470.25 124.109375 -461.96875 L 153.078125 -220.640625 L 159.96875 -220.640625 L 188.921875 -461.96875 C 189.847656 -470.25 191.800781 -475.765625 194.78125 -478.515625 C 197.769531 -481.273438 203.40625 -482.65625 211.6875 -482.65625 L 263.390625 -482.65625 C 271.671875 -482.65625 276.957031 -481.273438 279.25 -478.515625 C 281.550781 -475.765625 282.015625 -470.25 280.640625 -461.96875 L 211.6875 -20.6875 C 210.300781 -12.414062 208 -6.898438 204.78125 -4.140625 C 201.5625 -1.378906 195.816406 0 187.546875 0 Z M 104.8125 0 "/></g></g></g><g fill="#ffffff" fill-opacity="1"><g transform="translate(3177.4176, 1543.279635)"><g><path d="M 155.140625 6.890625 C 115.148438 6.890625 83.890625 -4.140625 61.359375 -26.203125 C 38.835938 -48.265625 27.578125 -77.453125 27.578125 -113.765625 L 27.578125 -368.890625 C 27.578125 -405.203125 38.835938 -434.390625 61.359375 -456.453125 C 83.890625 -478.523438 115.148438 -489.5625 155.140625 -489.5625 C 195.128906 -489.5625 226.382812 -478.523438 248.90625 -456.453125 C 271.4375 -434.390625 282.703125 -405.203125 282.703125 -368.890625 L 282.703125 -113.765625 C 282.703125 -77.453125 271.4375 -48.265625 248.90625 -26.203125 C 226.382812 -4.140625 195.128906 6.890625 155.140625 6.890625 Z M 155.140625 -75.84375 C 162.035156 -75.84375 167.78125 -78.140625 172.375 -82.734375 C 176.976562 -87.335938 179.28125 -93.085938 179.28125 -99.984375 L 179.28125 -382.6875 C 179.28125 -389.582031 176.976562 -395.328125 172.375 -399.921875 C 167.78125 -404.515625 162.035156 -406.8125 155.140625 -406.8125 C 148.242188 -406.8125 142.5 -404.515625 137.90625 -399.921875 C 133.3125 -395.328125 131.015625 -389.582031 131.015625 -382.6875 L 131.015625 -99.984375 C 131.015625 -93.085938 133.3125 -87.335938 137.90625 -82.734375 C 142.5 -78.140625 148.242188 -75.84375 155.140625 -75.84375 Z M 155.140625 -75.84375 "/></g></g></g><g fill="#ffffff" fill-opacity="1"><g transform="translate(3487.699555, 1543.279635)"><g><path d="M 34.46875 0 C 26.195312 0 20.679688 -1.378906 17.921875 -4.140625 C 15.171875 -6.898438 13.796875 -12.414062 13.796875 -20.6875 L 13.796875 -62.0625 C 13.796875 -70.332031 15.171875 -75.84375 17.921875 -78.59375 C 20.679688 -81.351562 26.195312 -82.734375 34.46875 -82.734375 L 55.15625 -82.734375 C 60.675781 -82.734375 64.351562 -83.65625 66.1875 -85.5 C 68.03125 -87.34375 68.953125 -91.019531 68.953125 -96.53125 L 68.953125 -386.125 C 68.953125 -391.644531 68.03125 -395.320312 66.1875 -397.15625 C 64.351562 -399 60.675781 -399.921875 55.15625 -399.921875 L 34.46875 -399.921875 C 26.195312 -399.921875 20.679688 -401.296875 17.921875 -404.046875 C 15.171875 -406.804688 13.796875 -412.328125 13.796875 -420.609375 L 13.796875 -461.96875 C 13.796875 -470.25 15.171875 -475.765625 17.921875 -478.515625 C 20.679688 -481.273438 26.195312 -482.65625 34.46875 -482.65625 L 206.859375 -482.65625 C 215.128906 -482.65625 220.644531 -481.273438 223.40625 -478.515625 C 226.164062 -475.765625 227.546875 -470.25 227.546875 -461.96875 L 227.546875 -420.609375 C 227.546875 -412.328125 226.164062 -406.804688 223.40625 -404.046875 C 220.644531 -401.296875 215.128906 -399.921875 206.859375 -399.921875 L 186.171875 -399.921875 C 180.648438 -399.921875 176.96875 -399 175.125 -397.15625 C 173.289062 -395.320312 172.375 -391.644531 172.375 -386.125 L 172.375 -96.53125 C 172.375 -91.019531 173.289062 -87.34375 175.125 -85.5 C 176.96875 -83.65625 180.648438 -82.734375 186.171875 -82.734375 L 206.859375 -82.734375 C 215.128906 -82.734375 220.644531 -81.351562 223.40625 -78.59375 C 226.164062 -75.84375 227.546875 -70.332031 227.546875 -62.0625 L 227.546875 -20.6875 C 227.546875 -12.414062 226.164062 -6.898438 223.40625 -4.140625 C 220.644531 -1.378906 215.128906 0 206.859375 0 Z M 34.46875 0 "/></g></g></g><g fill="#ffffff" fill-opacity="1"><g transform="translate(3729.029901, 1543.279635)"><g><path d="M 248.21875 3.453125 C 218.34375 3.453125 197.082031 -2.863281 184.4375 -15.5 C 171.800781 -28.144531 165.484375 -49.410156 165.484375 -79.296875 L 165.484375 -165.484375 C 165.484375 -172.378906 164.332031 -178.125 162.03125 -182.71875 C 159.738281 -187.3125 155.144531 -189.609375 148.25 -189.609375 L 141.34375 -189.609375 C 137.207031 -189.609375 134.453125 -188.921875 133.078125 -187.546875 C 131.703125 -186.171875 131.015625 -183.414062 131.015625 -179.28125 L 131.015625 -20.6875 C 131.015625 -12.414062 129.632812 -6.898438 126.875 -4.140625 C 124.113281 -1.378906 118.597656 0 110.328125 0 L 48.265625 0 C 39.992188 0 34.476562 -1.378906 31.71875 -4.140625 C 28.957031 -6.898438 27.578125 -12.414062 27.578125 -20.6875 L 27.578125 -461.96875 C 27.578125 -470.25 28.957031 -475.765625 31.71875 -478.515625 C 34.476562 -481.273438 39.992188 -482.65625 48.265625 -482.65625 L 148.25 -482.65625 C 188.238281 -482.65625 219.492188 -471.625 242.015625 -449.5625 C 264.546875 -427.5 275.8125 -398.3125 275.8125 -362 L 275.8125 -310.28125 C 275.8125 -294.195312 273.28125 -281.328125 268.21875 -271.671875 C 263.164062 -262.015625 257.648438 -254.429688 251.671875 -248.921875 C 244.316406 -242.484375 236.273438 -237.65625 227.546875 -234.4375 L 227.546875 -227.546875 C 235.359375 -224.328125 242.25 -219.5 248.21875 -213.0625 C 253.28125 -207.539062 257.992188 -199.835938 262.359375 -189.953125 C 266.722656 -180.078125 268.90625 -167.320312 268.90625 -151.6875 L 268.90625 -96.53125 C 268.90625 -88.71875 270.285156 -84.003906 273.046875 -82.390625 C 275.804688 -80.785156 278.910156 -79.640625 282.359375 -78.953125 C 285.804688 -78.265625 289.019531 -77.113281 292 -75.5 C 294.988281 -73.894531 296.484375 -69.414062 296.484375 -62.0625 L 296.484375 -13.796875 C 296.484375 -6.898438 295.332031 -2.300781 293.03125 0 C 290.738281 2.300781 286.144531 3.453125 279.25 3.453125 Z M 148.25 -272.359375 C 155.144531 -272.359375 160.890625 -274.65625 165.484375 -279.25 C 170.078125 -283.851562 172.375 -289.597656 172.375 -296.484375 L 172.375 -375.78125 C 172.375 -382.675781 170.078125 -388.421875 165.484375 -393.015625 C 160.890625 -397.617188 155.144531 -399.921875 148.25 -399.921875 L 141.34375 -399.921875 C 137.207031 -399.921875 134.453125 -399.226562 133.078125 -397.84375 C 131.703125 -396.46875 131.015625 -393.710938 131.015625 -389.578125 L 131.015625 -282.703125 C 131.015625 -278.566406 131.703125 -275.804688 133.078125 -274.421875 C 134.453125 -273.046875 137.207031 -272.359375 141.34375 -272.359375 Z M 148.25 -272.359375 "/></g></g></g><g fill="#ffffff" fill-opacity="1"><g transform="translate(4032.416654, 1543.279635)"><g/></g></g><g fill="#ffffff" fill-opacity="1"><g transform="translate(4156.529288, 1543.279635)"><g><path d="M 103.421875 0 C 95.148438 0 89.632812 -1.378906 86.875 -4.140625 C 84.113281 -6.898438 82.734375 -12.414062 82.734375 -20.6875 L 82.734375 -386.125 C 82.734375 -391.644531 81.8125 -395.320312 79.96875 -397.15625 C 78.132812 -399 74.460938 -399.921875 68.953125 -399.921875 L 27.578125 -399.921875 C 19.304688 -399.921875 13.789062 -401.296875 11.03125 -404.046875 C 8.269531 -406.804688 6.890625 -412.328125 6.890625 -420.609375 L 6.890625 -461.96875 C 6.890625 -470.25 8.269531 -475.765625 11.03125 -478.515625 C 13.789062 -481.273438 19.304688 -482.65625 27.578125 -482.65625 L 241.328125 -482.65625 C 249.597656 -482.65625 255.113281 -481.273438 257.875 -478.515625 C 260.632812 -475.765625 262.015625 -470.25 262.015625 -461.96875 L 262.015625 -420.609375 C 262.015625 -412.328125 260.632812 -406.804688 257.875 -404.046875 C 255.113281 -401.296875 249.597656 -399.921875 241.328125 -399.921875 L 199.953125 -399.921875 C 194.441406 -399.921875 190.765625 -399 188.921875 -397.15625 C 187.085938 -395.320312 186.171875 -391.644531 186.171875 -386.125 L 186.171875 -20.6875 C 186.171875 -12.414062 184.789062 -6.898438 182.03125 -4.140625 C 179.269531 -1.378906 173.753906 0 165.484375 0 Z M 103.421875 0 "/></g></g></g><g fill="#ffffff" fill-opacity="1"><g transform="translate(4425.440241, 1543.279635)"><g><path d="M 48.265625 0 C 39.992188 0 34.476562 -1.378906 31.71875 -4.140625 C 28.957031 -6.898438 27.578125 -12.414062 27.578125 -20.6875 L 27.578125 -461.96875 C 27.578125 -470.25 28.957031 -475.765625 31.71875 -478.515625 C 34.476562 -481.273438 39.992188 -482.65625 48.265625 -482.65625 L 227.546875 -482.65625 C 235.816406 -482.65625 241.328125 -481.273438 244.078125 -478.515625 C 246.835938 -475.765625 248.21875 -470.25 248.21875 -461.96875 L 248.21875 -420.609375 C 248.21875 -412.328125 246.835938 -406.804688 244.078125 -404.046875 C 241.328125 -401.296875 235.816406 -399.921875 227.546875 -399.921875 L 144.796875 -399.921875 C 139.285156 -399.921875 135.609375 -399 133.765625 -397.15625 C 131.929688 -395.320312 131.015625 -391.644531 131.015625 -386.125 L 131.015625 -303.390625 C 131.015625 -297.867188 131.929688 -294.1875 133.765625 -292.34375 C 135.609375 -290.507812 139.285156 -289.59375 144.796875 -289.59375 L 193.0625 -289.59375 C 201.332031 -289.59375 206.847656 -288.210938 209.609375 -285.453125 C 212.367188 -282.703125 213.75 -277.1875 213.75 -268.90625 L 213.75 -227.546875 C 213.75 -219.265625 212.367188 -213.742188 209.609375 -210.984375 C 206.847656 -208.234375 201.332031 -206.859375 193.0625 -206.859375 L 144.796875 -206.859375 C 139.285156 -206.859375 135.609375 -205.9375 133.765625 -204.09375 C 131.929688 -202.257812 131.015625 -198.582031 131.015625 -193.0625 L 131.015625 -96.53125 C 131.015625 -91.019531 131.929688 -87.34375 133.765625 -85.5 C 135.609375 -83.65625 139.285156 -82.734375 144.796875 -82.734375 L 227.546875 -82.734375 C 235.816406 -82.734375 241.328125 -81.351562 244.078125 -78.59375 C 246.835938 -75.84375 248.21875 -70.332031 248.21875 -62.0625 L 248.21875 -20.6875 C 248.21875 -12.414062 246.835938 -6.898438 244.078125 -4.140625 C 241.328125 -1.378906 235.816406 0 227.546875 0 Z M 48.265625 0 "/></g></g></g><g fill="#ffffff" fill-opacity="1"><g transform="translate(4687.456088, 1543.279635)"><g><path d="M 137.90625 6.890625 C 98.832031 6.890625 68.378906 -3.796875 46.546875 -25.171875 C 24.710938 -46.546875 13.796875 -74.929688 13.796875 -110.328125 L 13.796875 -131.015625 C 13.796875 -139.285156 15.171875 -144.796875 17.921875 -147.546875 C 20.679688 -150.304688 26.195312 -151.6875 34.46875 -151.6875 L 75.84375 -151.6875 C 84.125 -151.6875 89.640625 -150.304688 92.390625 -147.546875 C 95.148438 -144.796875 96.53125 -139.285156 96.53125 -131.015625 L 96.53125 -106.875 C 96.53125 -97.675781 99.398438 -90.203125 105.140625 -84.453125 C 110.890625 -78.710938 118.363281 -75.84375 127.5625 -75.84375 C 136.75 -75.84375 144.21875 -78.710938 149.96875 -84.453125 C 155.71875 -90.203125 158.59375 -97.675781 158.59375 -106.875 C 158.59375 -123.882812 155.144531 -139.050781 148.25 -152.375 C 141.351562 -165.707031 132.847656 -178.347656 122.734375 -190.296875 C 112.617188 -202.253906 101.582031 -214.09375 89.625 -225.8125 C 77.675781 -237.539062 66.644531 -250.53125 56.53125 -264.78125 C 46.425781 -279.03125 37.925781 -295 31.03125 -312.6875 C 24.132812 -330.382812 20.6875 -351.414062 20.6875 -375.78125 C 20.6875 -392.332031 23.554688 -407.617188 29.296875 -421.640625 C 35.046875 -435.660156 43.09375 -447.722656 53.4375 -457.828125 C 63.78125 -467.941406 76.421875 -475.757812 91.359375 -481.28125 C 106.296875 -486.800781 122.957031 -489.5625 141.34375 -489.5625 C 159.738281 -489.5625 176.289062 -486.800781 191 -481.28125 C 205.707031 -475.757812 218.347656 -467.941406 228.921875 -457.828125 C 239.492188 -447.722656 247.648438 -435.660156 253.390625 -421.640625 C 259.140625 -407.617188 262.015625 -392.332031 262.015625 -375.78125 L 262.015625 -358.546875 C 262.015625 -350.273438 260.632812 -344.757812 257.875 -342 C 255.113281 -339.238281 249.597656 -337.859375 241.328125 -337.859375 L 199.953125 -337.859375 C 191.679688 -337.859375 186.164062 -339.238281 183.40625 -342 C 180.65625 -344.757812 179.28125 -350.273438 179.28125 -358.546875 L 179.28125 -379.234375 C 179.28125 -387.046875 176.632812 -393.59375 171.34375 -398.875 C 166.0625 -404.164062 159.507812 -406.8125 151.6875 -406.8125 C 143.875 -406.8125 137.320312 -404.164062 132.03125 -398.875 C 126.75 -393.59375 124.109375 -387.046875 124.109375 -379.234375 C 124.109375 -361.765625 127.554688 -346.476562 134.453125 -333.375 C 141.347656 -320.28125 149.851562 -307.753906 159.96875 -295.796875 C 170.082031 -283.847656 181.113281 -272.007812 193.0625 -260.28125 C 205.007812 -248.5625 216.039062 -235.578125 226.15625 -221.328125 C 236.269531 -207.078125 244.773438 -190.988281 251.671875 -173.0625 C 258.566406 -155.132812 262.015625 -134.222656 262.015625 -110.328125 C 262.015625 -74.929688 251.097656 -46.546875 229.265625 -25.171875 C 207.429688 -3.796875 176.976562 6.890625 137.90625 6.890625 Z M 137.90625 6.890625 "/></g></g></g><g fill="#ffffff" fill-opacity="1"><g transform="translate(4963.262325, 1543.279635)"><g/></g></g><g fill="#ffffff" fill-opacity="1"><g transform="translate(5087.374959, 1543.279635)"><g><path d="M 48.265625 0 C 39.992188 0 34.476562 -1.378906 31.71875 -4.140625 C 28.957031 -6.898438 27.578125 -12.414062 27.578125 -20.6875 L 27.578125 -461.96875 C 27.578125 -470.25 28.957031 -475.765625 31.71875 -478.515625 C 34.476562 -481.273438 39.992188 -482.65625 48.265625 -482.65625 L 125.484375 -482.65625 C 133.765625 -482.65625 139.859375 -481.390625 143.765625 -478.859375 C 147.671875 -476.335938 150.773438 -471.171875 153.078125 -463.359375 L 196.515625 -258.5625 L 203.40625 -258.5625 L 247.53125 -463.359375 C 249.832031 -471.171875 252.9375 -476.335938 256.84375 -478.859375 C 260.75 -481.390625 266.835938 -482.65625 275.109375 -482.65625 L 351.65625 -482.65625 C 359.925781 -482.65625 365.441406 -481.273438 368.203125 -478.515625 C 370.960938 -475.765625 372.34375 -470.25 372.34375 -461.96875 L 372.34375 -20.6875 C 372.34375 -12.414062 370.960938 -6.898438 368.203125 -4.140625 C 365.441406 -1.378906 359.925781 0 351.65625 0 L 289.59375 0 C 281.320312 0 275.804688 -1.378906 273.046875 -4.140625 C 270.285156 -6.898438 268.90625 -12.414062 268.90625 -20.6875 L 268.90625 -224.09375 L 262.015625 -224.09375 L 219.265625 -19.3125 C 216.960938 -11.488281 213.859375 -6.3125 209.953125 -3.78125 C 206.046875 -1.257812 199.957031 0 191.6875 0 L 187.546875 0 C 179.273438 0 173.1875 -1.257812 169.28125 -3.78125 C 165.375 -6.3125 162.269531 -11.488281 159.96875 -19.3125 L 117.21875 -224.09375 L 110.328125 -224.09375 L 110.328125 -20.6875 C 110.328125 -12.414062 108.945312 -6.898438 106.1875 -4.140625 C 103.425781 -1.378906 97.910156 0 89.640625 0 Z M 48.265625 0 "/></g></g></g><g fill="#ffffff" fill-opacity="1"><g transform="translate(5487.293836, 1543.279635)"><g><path d="M 48.265625 0 C 39.992188 0 34.476562 -1.378906 31.71875 -4.140625 C 28.957031 -6.898438 27.578125 -12.414062 27.578125 -20.6875 L 27.578125 -461.96875 C 27.578125 -470.25 28.957031 -475.765625 31.71875 -478.515625 C 34.476562 -481.273438 39.992188 -482.65625 48.265625 -482.65625 L 227.546875 -482.65625 C 235.816406 -482.65625 241.328125 -481.273438 244.078125 -478.515625 C 246.835938 -475.765625 248.21875 -470.25 248.21875 -461.96875 L 248.21875 -420.609375 C 248.21875 -412.328125 246.835938 -406.804688 244.078125 -404.046875 C 241.328125 -401.296875 235.816406 -399.921875 227.546875 -399.921875 L 144.796875 -399.921875 C 139.285156 -399.921875 135.609375 -399 133.765625 -397.15625 C 131.929688 -395.320312 131.015625 -391.644531 131.015625 -386.125 L 131.015625 -303.390625 C 131.015625 -297.867188 131.929688 -294.1875 133.765625 -292.34375 C 135.609375 -290.507812 139.285156 -289.59375 144.796875 -289.59375 L 193.0625 -289.59375 C 201.332031 -289.59375 206.847656 -288.210938 209.609375 -285.453125 C 212.367188 -282.703125 213.75 -277.1875 213.75 -268.90625 L 213.75 -227.546875 C 213.75 -219.265625 212.367188 -213.742188 209.609375 -210.984375 C 206.847656 -208.234375 201.332031 -206.859375 193.0625 -206.859375 L 144.796875 -206.859375 C 139.285156 -206.859375 135.609375 -205.9375 133.765625 -204.09375 C 131.929688 -202.257812 131.015625 -198.582031 131.015625 -193.0625 L 131.015625 -96.53125 C 131.015625 -91.019531 131.929688 -87.34375 133.765625 -85.5 C 135.609375 -83.65625 139.285156 -82.734375 144.796875 -82.734375 L 227.546875 -82.734375 C 235.816406 -82.734375 241.328125 -81.351562 244.078125 -78.59375 C 246.835938 -75.84375 248.21875 -70.332031 248.21875 -62.0625 L 248.21875 -20.6875 C 248.21875 -12.414062 246.835938 -6.898438 244.078125 -4.140625 C 241.328125 -1.378906 235.816406 0 227.546875 0 Z M 48.265625 0 "/></g></g></g><g fill="#ffffff" fill-opacity="1"><g transform="translate(5749.309684, 1543.279635)"><g><path d="M 48.265625 0 C 39.992188 0 34.476562 -1.378906 31.71875 -4.140625 C 28.957031 -6.898438 27.578125 -12.414062 27.578125 -20.6875 L 27.578125 -461.96875 C 27.578125 -470.25 28.957031 -475.765625 31.71875 -478.515625 C 34.476562 -481.273438 39.992188 -482.65625 48.265625 -482.65625 L 125.484375 -482.65625 C 133.765625 -482.65625 139.859375 -481.390625 143.765625 -478.859375 C 147.671875 -476.335938 150.773438 -471.171875 153.078125 -463.359375 L 196.515625 -258.5625 L 203.40625 -258.5625 L 247.53125 -463.359375 C 249.832031 -471.171875 252.9375 -476.335938 256.84375 -478.859375 C 260.75 -481.390625 266.835938 -482.65625 275.109375 -482.65625 L 351.65625 -482.65625 C 359.925781 -482.65625 365.441406 -481.273438 368.203125 -478.515625 C 370.960938 -475.765625 372.34375 -470.25 372.34375 -461.96875 L 372.34375 -20.6875 C 372.34375 -12.414062 370.960938 -6.898438 368.203125 -4.140625 C 365.441406 -1.378906 359.925781 0 351.65625 0 L 289.59375 0 C 281.320312 0 275.804688 -1.378906 273.046875 -4.140625 C 270.285156 -6.898438 268.90625 -12.414062 268.90625 -20.6875 L 268.90625 -224.09375 L 262.015625 -224.09375 L 219.265625 -19.3125 C 216.960938 -11.488281 213.859375 -6.3125 209.953125 -3.78125 C 206.046875 -1.257812 199.957031 0 191.6875 0 L 187.546875 0 C 179.273438 0 173.1875 -1.257812 169.28125 -3.78125 C 165.375 -6.3125 162.269531 -11.488281 159.96875 -19.3125 L 117.21875 -224.09375 L 110.328125 -224.09375 L 110.328125 -20.6875 C 110.328125 -12.414062 108.945312 -6.898438 106.1875 -4.140625 C 103.425781 -1.378906 97.910156 0 89.640625 0 Z M 48.265625 0 "/></g></g></g><g fill="#ffffff" fill-opacity="1"><g transform="translate(6149.22856, 1543.279635)"><g><path d="M 48.265625 0 C 39.992188 0 34.476562 -1.378906 31.71875 -4.140625 C 28.957031 -6.898438 27.578125 -12.414062 27.578125 -20.6875 L 27.578125 -461.96875 C 27.578125 -470.25 28.957031 -475.765625 31.71875 -478.515625 C 34.476562 -481.273438 39.992188 -482.65625 48.265625 -482.65625 L 227.546875 -482.65625 C 235.816406 -482.65625 241.328125 -481.273438 244.078125 -478.515625 C 246.835938 -475.765625 248.21875 -470.25 248.21875 -461.96875 L 248.21875 -420.609375 C 248.21875 -412.328125 246.835938 -406.804688 244.078125 -404.046875 C 241.328125 -401.296875 235.816406 -399.921875 227.546875 -399.921875 L 144.796875 -399.921875 C 139.285156 -399.921875 135.609375 -399 133.765625 -397.15625 C 131.929688 -395.320312 131.015625 -391.644531 131.015625 -386.125 L 131.015625 -303.390625 C 131.015625 -297.867188 131.929688 -294.1875 133.765625 -292.34375 C 135.609375 -290.507812 139.285156 -289.59375 144.796875 -289.59375 L 193.0625 -289.59375 C 201.332031 -289.59375 206.847656 -288.210938 209.609375 -285.453125 C 212.367188 -282.703125 213.75 -277.1875 213.75 -268.90625 L 213.75 -227.546875 C 213.75 -219.265625 212.367188 -213.742188 209.609375 -210.984375 C 206.847656 -208.234375 201.332031 -206.859375 193.0625 -206.859375 L 144.796875 -206.859375 C 139.285156 -206.859375 135.609375 -205.9375 133.765625 -204.09375 C 131.929688 -202.257812 131.015625 -198.582031 131.015625 -193.0625 L 131.015625 -96.53125 C 131.015625 -91.019531 131.929688 -87.34375 133.765625 -85.5 C 135.609375 -83.65625 139.285156 -82.734375 144.796875 -82.734375 L 227.546875 -82.734375 C 235.816406 -82.734375 241.328125 -81.351562 244.078125 -78.59375 C 246.835938 -75.84375 248.21875 -70.332031 248.21875 -62.0625 L 248.21875 -20.6875 C 248.21875 -12.414062 246.835938 -6.898438 244.078125 -4.140625 C 241.328125 -1.378906 235.816406 0 227.546875 0 Z M 48.265625 0 "/></g></g></g><g fill="#ffffff" fill-opacity="1"><g transform="translate(6411.244408, 1543.279635)"><g><path d="M 137.90625 6.890625 C 98.832031 6.890625 68.378906 -3.796875 46.546875 -25.171875 C 24.710938 -46.546875 13.796875 -74.929688 13.796875 -110.328125 L 13.796875 -131.015625 C 13.796875 -139.285156 15.171875 -144.796875 17.921875 -147.546875 C 20.679688 -150.304688 26.195312 -151.6875 34.46875 -151.6875 L 75.84375 -151.6875 C 84.125 -151.6875 89.640625 -150.304688 92.390625 -147.546875 C 95.148438 -144.796875 96.53125 -139.285156 96.53125 -131.015625 L 96.53125 -106.875 C 96.53125 -97.675781 99.398438 -90.203125 105.140625 -84.453125 C 110.890625 -78.710938 118.363281 -75.84375 127.5625 -75.84375 C 136.75 -75.84375 144.21875 -78.710938 149.96875 -84.453125 C 155.71875 -90.203125 158.59375 -97.675781 158.59375 -106.875 C 158.59375 -123.882812 155.144531 -139.050781 148.25 -152.375 C 141.351562 -165.707031 132.847656 -178.347656 122.734375 -190.296875 C 112.617188 -202.253906 101.582031 -214.09375 89.625 -225.8125 C 77.675781 -237.539062 66.644531 -250.53125 56.53125 -264.78125 C 46.425781 -279.03125 37.925781 -295 31.03125 -312.6875 C 24.132812 -330.382812 20.6875 -351.414062 20.6875 -375.78125 C 20.6875 -392.332031 23.554688 -407.617188 29.296875 -421.640625 C 35.046875 -435.660156 43.09375 -447.722656 53.4375 -457.828125 C 63.78125 -467.941406 76.421875 -475.757812 91.359375 -481.28125 C 106.296875 -486.800781 122.957031 -489.5625 141.34375 -489.5625 C 159.738281 -489.5625 176.289062 -486.800781 191 -481.28125 C 205.707031 -475.757812 218.347656 -467.941406 228.921875 -457.828125 C 239.492188 -447.722656 247.648438 -435.660156 253.390625 -421.640625 C 259.140625 -407.617188 262.015625 -392.332031 262.015625 -375.78125 L 262.015625 -358.546875 C 262.015625 -350.273438 260.632812 -344.757812 257.875 -342 C 255.113281 -339.238281 249.597656 -337.859375 241.328125 -337.859375 L 199.953125 -337.859375 C 191.679688 -337.859375 186.164062 -339.238281 183.40625 -342 C 180.65625 -344.757812 179.28125 -350.273438 179.28125 -358.546875 L 179.28125 -379.234375 C 179.28125 -387.046875 176.632812 -393.59375 171.34375 -398.875 C 166.0625 -404.164062 159.507812 -406.8125 151.6875 -406.8125 C 143.875 -406.8125 137.320312 -404.164062 132.03125 -398.875 C 126.75 -393.59375 124.109375 -387.046875 124.109375 -379.234375 C 124.109375 -361.765625 127.554688 -346.476562 134.453125 -333.375 C 141.347656 -320.28125 149.851562 -307.753906 159.96875 -295.796875 C 170.082031 -283.847656 181.113281 -272.007812 193.0625 -260.28125 C 205.007812 -248.5625 216.039062 -235.578125 226.15625 -221.328125 C 236.269531 -207.078125 244.773438 -190.988281 251.671875 -173.0625 C 258.566406 -155.132812 262.015625 -134.222656 262.015625 -110.328125 C 262.015625 -74.929688 251.097656 -46.546875 229.265625 -25.171875 C 207.429688 -3.796875 176.976562 6.890625 137.90625 6.890625 Z M 137.90625 6.890625 "/></g></g></g><g fill="#ffffff" fill-opacity="1"><g transform="translate(6687.050465, 1543.279635)"><g/></g></g><g fill="#ffffff" fill-opacity="1"><g transform="translate(6811.163099, 1543.279635)"><g><path d="M 89.640625 6.890625 C 74.003906 6.890625 60.898438 1.601562 50.328125 -8.96875 C 39.753906 -19.539062 34.46875 -32.640625 34.46875 -48.265625 C 34.46875 -63.890625 39.753906 -76.988281 50.328125 -87.5625 C 60.898438 -98.132812 74.003906 -103.421875 89.640625 -103.421875 C 105.265625 -103.421875 118.363281 -98.132812 128.9375 -87.5625 C 139.507812 -76.988281 144.796875 -63.890625 144.796875 -48.265625 C 144.796875 -32.640625 139.507812 -19.539062 128.9375 -8.96875 C 118.363281 1.601562 105.265625 6.890625 89.640625 6.890625 Z M 68.953125 -144.796875 C 60.679688 -144.796875 55.164062 -146.175781 52.40625 -148.9375 C 49.644531 -151.695312 48.035156 -157.210938 47.578125 -165.484375 L 35.171875 -461.96875 C 34.703125 -470.25 35.847656 -475.765625 38.609375 -478.515625 C 41.367188 -481.273438 46.882812 -482.65625 55.15625 -482.65625 L 124.109375 -482.65625 C 132.390625 -482.65625 137.90625 -481.273438 140.65625 -478.515625 C 143.414062 -475.765625 144.566406 -470.25 144.109375 -461.96875 L 131.703125 -165.484375 C 131.242188 -157.210938 129.632812 -151.695312 126.875 -148.9375 C 124.113281 -146.175781 118.597656 -144.796875 110.328125 -144.796875 Z M 68.953125 -144.796875 "/></g></g></g><g clip-path="url(#51909eef95)"><path fill="#7bc9a3" d="M 2650.554688 1295.492188 C 2650.554688 1304.429688 2650.332031 1313.367188 2649.894531 1322.292969 C 2649.457031 1331.222656 2648.800781 1340.136719 2647.921875 1349.03125 C 2647.046875 1357.929688 2645.953125 1366.796875 2644.640625 1375.640625 C 2643.328125 1384.484375 2641.800781 1393.289062 2640.058594 1402.058594 C 2638.3125 1410.824219 2636.355469 1419.546875 2634.183594 1428.214844 C 2632.011719 1436.886719 2629.628906 1445.5 2627.03125 1454.054688 C 2624.4375 1462.609375 2621.632812 1471.097656 2618.621094 1479.515625 C 2615.609375 1487.929688 2612.394531 1496.269531 2608.972656 1504.527344 C 2605.550781 1512.785156 2601.929688 1520.957031 2598.109375 1529.039062 C 2594.285156 1537.121094 2590.269531 1545.101562 2586.054688 1552.988281 C 2581.839844 1560.871094 2577.433594 1568.648438 2572.839844 1576.3125 C 2568.242188 1583.980469 2563.460938 1591.53125 2558.496094 1598.964844 C 2553.527344 1606.398438 2548.382812 1613.703125 2543.058594 1620.886719 C 2537.730469 1628.066406 2532.234375 1635.109375 2526.5625 1642.023438 C 2520.890625 1648.933594 2515.054688 1655.699219 2509.050781 1662.324219 C 2503.046875 1668.945312 2496.886719 1675.417969 2490.5625 1681.742188 C 2484.242188 1688.0625 2477.769531 1694.222656 2471.144531 1700.226562 C 2464.523438 1706.230469 2457.753906 1712.066406 2450.84375 1717.738281 C 2443.933594 1723.410156 2436.890625 1728.910156 2429.707031 1734.234375 C 2422.527344 1739.558594 2415.222656 1744.707031 2407.789062 1749.671875 C 2400.355469 1754.636719 2392.804688 1759.417969 2385.136719 1764.015625 C 2377.46875 1768.613281 2369.695312 1773.015625 2361.808594 1777.230469 C 2353.925781 1781.445312 2345.941406 1785.464844 2337.863281 1789.285156 C 2329.78125 1793.105469 2321.609375 1796.730469 2313.351562 1800.148438 C 2305.09375 1803.570312 2296.753906 1806.789062 2288.335938 1809.800781 C 2279.921875 1812.808594 2271.433594 1815.613281 2262.878906 1818.207031 C 2254.324219 1820.804688 2245.710938 1823.1875 2237.039062 1825.359375 C 2228.367188 1827.53125 2219.648438 1829.488281 2210.878906 1831.234375 C 2202.113281 1832.976562 2193.308594 1834.507812 2184.464844 1835.816406 C 2175.621094 1837.128906 2166.753906 1838.222656 2157.855469 1839.097656 C 2148.960938 1839.976562 2140.046875 1840.632812 2131.117188 1841.070312 C 2122.1875 1841.511719 2113.253906 1841.730469 2104.316406 1841.730469 C 2095.375 1841.730469 2086.441406 1841.511719 2077.511719 1841.070312 C 2068.582031 1840.632812 2059.671875 1839.976562 2050.773438 1839.097656 C 2041.878906 1838.222656 2033.007812 1837.128906 2024.164062 1835.816406 C 2015.324219 1834.507812 2006.515625 1832.976562 1997.75 1831.234375 C 1988.980469 1829.488281 1980.261719 1827.53125 1971.589844 1825.359375 C 1962.917969 1823.1875 1954.304688 1820.804688 1945.75 1818.207031 C 1937.195312 1815.613281 1928.710938 1812.808594 1920.292969 1809.796875 C 1911.875 1806.789062 1903.539062 1803.570312 1895.277344 1800.148438 C 1887.019531 1796.730469 1878.847656 1793.105469 1870.769531 1789.285156 C 1862.6875 1785.464844 1854.703125 1781.445312 1846.820312 1777.230469 C 1838.9375 1773.015625 1831.160156 1768.613281 1823.492188 1764.015625 C 1815.824219 1759.417969 1808.273438 1754.636719 1800.839844 1749.671875 C 1793.410156 1744.707031 1786.101562 1739.558594 1778.921875 1734.234375 C 1771.742188 1728.910156 1764.695312 1723.410156 1757.785156 1717.738281 C 1750.875 1712.066406 1744.109375 1706.230469 1737.484375 1700.226562 C 1730.859375 1694.222656 1724.386719 1688.0625 1718.066406 1681.742188 C 1711.746094 1675.417969 1705.582031 1668.945312 1699.578125 1662.324219 C 1693.574219 1655.699219 1687.738281 1648.933594 1682.066406 1642.023438 C 1676.394531 1635.109375 1670.898438 1628.066406 1665.574219 1620.886719 C 1660.246094 1613.703125 1655.101562 1606.398438 1650.132812 1598.964844 C 1645.167969 1591.53125 1640.386719 1583.980469 1635.792969 1576.3125 C 1631.195312 1568.648438 1626.789062 1560.871094 1622.574219 1552.988281 C 1618.363281 1545.101562 1614.34375 1537.121094 1610.523438 1529.039062 C 1606.699219 1520.957031 1603.078125 1512.785156 1599.65625 1504.527344 C 1596.234375 1496.269531 1593.019531 1487.929688 1590.007812 1479.515625 C 1586.996094 1471.097656 1584.191406 1462.609375 1581.597656 1454.054688 C 1579.003906 1445.5 1576.621094 1436.886719 1574.445312 1428.214844 C 1572.273438 1419.546875 1570.316406 1410.824219 1568.574219 1402.058594 C 1566.828125 1393.289062 1565.300781 1384.484375 1563.988281 1375.640625 C 1562.675781 1366.796875 1561.582031 1357.929688 1560.707031 1349.03125 C 1559.832031 1340.136719 1559.171875 1331.222656 1558.734375 1322.292969 C 1558.296875 1313.367188 1558.078125 1304.429688 1558.078125 1295.492188 C 1558.078125 1286.550781 1558.296875 1277.617188 1558.734375 1268.6875 C 1559.171875 1259.761719 1559.832031 1250.847656 1560.707031 1241.949219 C 1561.582031 1233.054688 1562.675781 1224.183594 1563.988281 1215.34375 C 1565.300781 1206.5 1566.828125 1197.695312 1568.574219 1188.925781 C 1570.316406 1180.160156 1572.273438 1171.4375 1574.445312 1162.765625 C 1576.621094 1154.09375 1579.003906 1145.480469 1581.597656 1136.925781 C 1584.191406 1128.371094 1586.996094 1119.886719 1590.007812 1111.46875 C 1593.019531 1103.050781 1596.234375 1094.714844 1599.65625 1086.457031 C 1603.078125 1078.195312 1606.699219 1070.027344 1610.523438 1061.945312 C 1614.34375 1053.863281 1618.363281 1045.882812 1622.574219 1037.996094 C 1626.789062 1030.113281 1631.195312 1022.335938 1635.792969 1014.667969 C 1640.386719 1007 1645.167969 999.449219 1650.132812 992.019531 C 1655.101562 984.585938 1660.246094 977.277344 1665.574219 970.097656 C 1670.898438 962.917969 1676.394531 955.871094 1682.066406 948.960938 C 1687.738281 942.050781 1693.574219 935.285156 1699.578125 928.660156 C 1705.582031 922.035156 1711.746094 915.5625 1718.066406 909.242188 C 1724.386719 902.921875 1730.859375 896.757812 1737.484375 890.757812 C 1744.109375 884.753906 1750.875 878.914062 1757.785156 873.242188 C 1764.695312 867.574219 1771.742188 862.074219 1778.921875 856.75 C 1786.101562 851.425781 1793.410156 846.277344 1800.839844 841.3125 C 1808.273438 836.34375 1815.824219 831.5625 1823.492188 826.96875 C 1831.160156 822.371094 1838.9375 817.96875 1846.820312 813.753906 C 1854.703125 809.539062 1862.6875 805.519531 1870.769531 801.699219 C 1878.847656 797.875 1887.019531 794.253906 1895.277344 790.832031 C 1903.539062 787.414062 1911.875 784.195312 1920.292969 781.183594 C 1928.710938 778.171875 1937.195312 775.371094 1945.75 772.773438 C 1954.304688 770.179688 1962.917969 767.796875 1971.589844 765.625 C 1980.261719 763.453125 1988.980469 761.492188 1997.75 759.75 C 2006.515625 758.003906 2015.324219 756.476562 2024.164062 755.164062 C 2033.007812 753.855469 2041.878906 752.761719 2050.773438 751.882812 C 2059.671875 751.007812 2068.582031 750.351562 2077.511719 749.910156 C 2086.441406 749.472656 2095.375 749.253906 2104.316406 749.253906 C 2113.253906 749.253906 2122.1875 749.472656 2131.117188 749.910156 C 2140.046875 750.351562 2148.960938 751.007812 2157.855469 751.882812 C 2166.753906 752.761719 2175.621094 753.855469 2184.464844 755.164062 C 2193.308594 756.476562 2202.113281 758.003906 2210.878906 759.75 C 2219.648438 761.492188 2228.367188 763.453125 2237.039062 765.625 C 2245.710938 767.796875 2254.324219 770.179688 2262.878906 772.773438 C 2271.433594 775.371094 2279.921875 778.171875 2288.335938 781.183594 C 2296.753906 784.195312 2305.09375 787.414062 2313.351562 790.832031 C 2321.609375 794.253906 2329.78125 797.875 2337.863281 801.699219 C 2345.941406 805.519531 2353.925781 809.539062 2361.808594 813.753906 C 2369.695312 817.96875 2377.46875 822.371094 2385.136719 826.96875 C 2392.804688 831.5625 2400.355469 836.34375 2407.789062 841.3125 C 2415.222656 846.277344 2422.527344 851.425781 2429.707031 856.75 C 2436.890625 862.074219 2443.933594 867.574219 2450.84375 873.242188 C 2457.753906 878.914062 2464.523438 884.753906 2471.144531 890.757812 C 2477.769531 896.757812 2484.242188 902.921875 2490.5625 909.242188 C 2496.886719 915.5625 2503.046875 922.035156 2509.050781 928.660156 C 2515.054688 935.285156 2520.890625 942.050781 2526.5625 948.960938 C 2532.234375 955.871094 2537.730469 962.917969 2543.058594 970.097656 C 2548.382812 977.277344 2553.527344 984.585938 2558.496094 992.019531 C 2563.460938 999.449219 2568.242188 1007 2572.839844 1014.667969 C 2577.433594 1022.335938 2581.839844 1030.113281 2586.054688 1037.996094 C 2590.269531 1045.882812 2594.285156 1053.863281 2598.109375 1061.945312 C 2601.929688 1070.027344 2605.550781 1078.195312 2608.972656 1086.457031 C 2612.394531 1094.714844 2615.609375 1103.050781 2618.621094 1111.46875 C 2621.632812 1119.886719 2624.4375 1128.371094 2627.03125 1136.925781 C 2629.628906 1145.480469 2632.011719 1154.09375 2634.183594 1162.765625 C 2636.355469 1171.4375 2638.3125 1180.160156 2640.058594 1188.925781 C 2641.800781 1197.695312 2643.328125 1206.5 2644.640625 1215.34375 C 2645.953125 1224.183594 2647.046875 1233.054688 2647.921875 1241.949219 C 2648.800781 1250.847656 2649.457031 1259.761719 2649.894531 1268.6875 C 2650.332031 1277.617188 2650.554688 1286.550781 2650.554688 1295.492188 Z M 2650.554688 1295.492188 " fill-opacity="1" fill-rule="nonzero"/></g><g clip-path="url(#f896912f3c)"><path fill="#ffffff" d="M 2707.191406 1350.695312 C 2698.460938 1338.421875 2685.4375 1330.277344 2670.511719 1327.773438 C 2640.527344 1322.773438 2612.058594 1342.402344 2606.039062 1371.78125 L 2605.972656 1372.101562 C 2605.941406 1372.261719 2605.910156 1372.425781 2605.886719 1372.59375 L 2605.773438 1373.171875 C 2589.882812 1454.929688 2549.761719 1528.765625 2489.753906 1586.679688 C 2407.835938 1665.691406 2299.871094 1706.3125 2185.734375 1701.183594 C 2071.785156 1696.042969 1967.925781 1645.71875 1893.304688 1559.484375 C 1759.5 1404.878906 1762.75 1174.566406 1900.863281 1023.746094 C 1976.738281 940.867188 2080.363281 893.503906 2192.652344 890.378906 C 2295.121094 887.496094 2392.785156 921.75 2469.949219 987.328125 L 2407.953125 1045.46875 C 2395.9375 1056.726562 2391.808594 1073.378906 2397.167969 1088.921875 C 2402.558594 1104.527344 2416.152344 1115.113281 2432.660156 1116.566406 L 2647.605469 1135.335938 C 2659.359375 1136.398438 2671.097656 1132.324219 2679.695312 1124.171875 C 2688.253906 1116.074219 2692.941406 1104.699219 2692.5625 1092.953125 L 2685.753906 878.925781 C 2685.210938 862.539062 2675.441406 848.460938 2660.25 842.183594 C 2645.011719 835.886719 2628.097656 838.992188 2616.125 850.246094 L 2552.214844 910.183594 C 2457.289062 825.699219 2335.617188 778.992188 2207.347656 778.226562 C 2069.921875 777.046875 1939.628906 829.289062 1840.800781 924.625 C 1736.503906 1025.234375 1680.390625 1160.148438 1682.792969 1304.535156 C 1685.191406 1448.867188 1746.027344 1582.050781 1854.085938 1679.558594 C 1949.675781 1765.8125 2074.164062 1813.304688 2204.609375 1813.300781 C 2326.324219 1813.292969 2444.402344 1771.183594 2537.101562 1694.722656 C 2630.960938 1617.285156 2692.808594 1513.984375 2716.082031 1395.796875 L 2716.851562 1391.808594 C 2716.851562 1391.792969 2716.855469 1391.769531 2716.863281 1391.746094 L 2717.015625 1390.675781 C 2718.988281 1376.546875 2715.527344 1362.410156 2707.191406 1350.695312 Z M 2707.191406 1350.695312 " fill-opacity="1" fill-rule="nonzero"/></g><path fill="#ffffff" d="M 2427.273438 1273.371094 C 2426.570312 1271.03125 2425.617188 1268.746094 2424.675781 1266.445312 C 2423.640625 1263.917969 2422.609375 1261.449219 2421.316406 1259.035156 C 2420.890625 1258.226562 2420.667969 1257.390625 2420.210938 1256.601562 C 2419.433594 1255.265625 2418.386719 1254.1875 2417.535156 1252.90625 C 2416.023438 1250.640625 2414.492188 1248.421875 2412.742188 1246.304688 C 2411.050781 1244.257812 2409.238281 1242.375 2407.363281 1240.527344 C 2405.667969 1238.863281 2403.96875 1237.230469 2402.109375 1235.699219 C 2399.769531 1233.777344 2397.335938 1232.113281 2394.808594 1230.488281 C 2393.644531 1229.738281 2392.6875 1228.804688 2391.472656 1228.113281 L 2149.992188 1089.828125 C 2148.71875 1089.09375 2147.359375 1088.730469 2146.058594 1088.074219 C 2143.476562 1086.773438 2140.878906 1085.546875 2138.132812 1084.523438 C 2135.808594 1083.660156 2133.46875 1082.992188 2131.105469 1082.367188 C 2128.597656 1081.6875 2126.113281 1081.082031 2123.511719 1080.664062 C 2120.761719 1080.207031 2118.050781 1080.007812 2115.289062 1079.835938 C 2113.761719 1079.742188 2112.28125 1079.378906 2110.734375 1079.378906 C 2109.808594 1079.378906 2108.964844 1079.617188 2108.058594 1079.660156 C 2105.347656 1079.753906 2102.679688 1080.101562 2100.003906 1080.46875 C 2097.480469 1080.8125 2094.96875 1081.125 2092.523438 1081.714844 C 2090.199219 1082.261719 2087.96875 1083.050781 2085.695312 1083.816406 C 2083.136719 1084.679688 2080.574219 1085.496094 2078.136719 1086.609375 C 2076 1087.578125 2074.003906 1088.78125 2071.960938 1089.9375 C 2069.636719 1091.253906 2067.3125 1092.535156 2065.148438 1094.070312 C 2063.214844 1095.441406 2061.425781 1097.035156 2059.617188 1098.601562 C 2057.589844 1100.355469 2055.558594 1102.074219 2053.71875 1104.015625 C 2052.171875 1105.640625 2050.785156 1107.449219 2049.390625 1109.226562 C 2047.546875 1111.527344 2045.773438 1113.851562 2044.210938 1116.359375 C 2043.785156 1117.054688 2043.195312 1117.601562 2042.792969 1118.320312 C 2042.089844 1119.527344 2041.722656 1120.847656 2041.078125 1122.074219 C 2039.730469 1124.707031 2038.460938 1127.339844 2037.425781 1130.140625 C 2036.578125 1132.40625 2035.917969 1134.671875 2035.289062 1136.984375 C 2034.605469 1139.511719 2033.976562 1142.019531 2033.5625 1144.613281 C 2033.117188 1147.324219 2032.894531 1150.007812 2032.730469 1152.734375 C 2032.636719 1154.25 2032.269531 1155.699219 2032.269531 1157.253906 L 2032.269531 1433.828125 C 2032.269531 1435.382812 2032.636719 1436.832031 2032.730469 1438.347656 C 2032.894531 1441.066406 2033.097656 1443.757812 2033.5625 1446.46875 C 2033.984375 1449.085938 2034.617188 1451.585938 2035.289062 1454.097656 C 2035.917969 1456.398438 2036.582031 1458.664062 2037.425781 1460.941406 C 2038.484375 1463.734375 2039.730469 1466.375 2041.078125 1469.007812 C 2041.707031 1470.25 2042.078125 1471.554688 2042.792969 1472.761719 C 2043.21875 1473.472656 2043.792969 1474.023438 2044.210938 1474.722656 C 2045.773438 1477.226562 2047.546875 1479.546875 2049.390625 1481.851562 C 2050.808594 1483.640625 2052.171875 1485.4375 2053.71875 1487.0625 C 2055.5625 1489 2057.597656 1490.742188 2059.617188 1492.472656 C 2061.441406 1494.027344 2063.214844 1495.640625 2065.148438 1497.007812 C 2067.308594 1498.539062 2069.625 1499.820312 2071.960938 1501.140625 C 2074.003906 1502.292969 2076 1503.5 2078.136719 1504.46875 C 2080.570312 1505.578125 2083.128906 1506.40625 2085.695312 1507.261719 C 2087.964844 1508.03125 2090.195312 1508.8125 2092.523438 1509.367188 C 2094.972656 1509.953125 2097.480469 1510.269531 2100.003906 1510.609375 C 2102.695312 1510.972656 2105.347656 1511.324219 2108.058594 1511.417969 C 2108.964844 1511.453125 2109.808594 1511.695312 2110.734375 1511.695312 C 2112.296875 1511.695312 2113.757812 1511.332031 2115.289062 1511.242188 C 2118.035156 1511.089844 2120.761719 1510.878906 2123.511719 1510.417969 C 2126.109375 1510 2128.597656 1509.378906 2131.105469 1508.714844 C 2133.464844 1508.074219 2135.804688 1507.417969 2138.132812 1506.558594 C 2140.878906 1505.535156 2143.476562 1504.328125 2146.058594 1503.007812 C 2147.351562 1502.351562 2148.714844 1501.984375 2149.992188 1501.253906 L 2391.460938 1362.953125 C 2392.683594 1362.257812 2393.632812 1361.328125 2394.800781 1360.578125 C 2397.304688 1358.96875 2399.753906 1357.28125 2402.101562 1355.367188 C 2403.960938 1353.851562 2405.660156 1352.222656 2407.351562 1350.539062 C 2409.230469 1348.691406 2411.039062 1346.808594 2412.734375 1344.761719 C 2414.480469 1342.640625 2416.019531 1340.425781 2417.523438 1338.160156 C 2418.371094 1336.875 2419.421875 1335.820312 2420.199219 1334.464844 C 2420.660156 1333.675781 2420.882812 1332.839844 2421.304688 1332.03125 C 2422.601562 1329.617188 2423.644531 1327.148438 2424.664062 1324.621094 C 2425.609375 1322.347656 2426.570312 1320.078125 2427.273438 1317.757812 C 2427.992188 1315.398438 2428.4375 1312.980469 2428.914062 1310.570312 C 2429.410156 1308.042969 2429.945312 1305.535156 2430.207031 1303 C 2430.445312 1300.53125 2430.390625 1298.058594 2430.40625 1295.570312 C 2430.40625 1293.082031 2430.445312 1290.613281 2430.207031 1288.140625 C 2429.96875 1285.59375 2429.429688 1283.089844 2428.914062 1280.570312 C 2428.429688 1278.148438 2427.984375 1275.730469 2427.273438 1273.371094 Z M 2427.273438 1273.371094 " fill-opacity="1" fill-rule="nonzero"/></svg>